<svg width="120" height="121" viewBox="0 0 120 121" fill="none" xmlns="http://www.w3.org/2000/svg">
<ellipse opacity="0.1" cx="60" cy="116.956" rx="60" ry="3.6" fill="#9DA4AE"/>
<path fill-rule="evenodd" clip-rule="evenodd" d="M28.7999 30.5561C28.7999 26.5796 32.0235 23.3561 35.9999 23.3561H69.5491C69.7854 23.3561 70.0206 23.3677 70.2538 23.3906V39.5025C70.2538 42.1535 72.4028 44.3025 75.0538 44.3025H89.9999V74.1427C88.8401 73.8895 87.6356 73.7561 86.3999 73.7561C77.1215 73.7561 69.5999 81.2777 69.5999 90.5561C69.5999 93.3027 70.259 95.8954 71.4278 98.1846H35.9999C32.0235 98.1846 28.7999 94.9611 28.7999 90.9846V30.5561ZM72.9202 100.585H35.9999C30.698 100.585 26.3999 96.2866 26.3999 90.9846V30.5561C26.3999 25.2541 30.698 20.9561 35.9999 20.9561H69.5491C72.0952 20.9561 74.537 21.9675 76.3373 23.7678L89.5881 37.0187C91.3885 38.819 92.3999 41.2608 92.3999 43.8069V44.2171L92.4002 44.3025H92.3999V74.8592C98.7152 77.2746 103.2 83.3916 103.2 90.5561C103.2 99.8344 95.6783 107.356 86.3999 107.356C80.8805 107.356 75.9827 104.694 72.9202 100.585ZM39.9514 38.1075C40.42 37.6389 41.1798 37.6389 41.6484 38.1075L45.8999 42.359L50.1514 38.1075C50.62 37.6389 51.3798 37.6389 51.8484 38.1075C52.3171 38.5762 52.3171 39.336 51.8484 39.8046L47.597 44.0561L51.8484 48.3075C52.3171 48.7762 52.3171 49.536 51.8484 50.0046C51.3798 50.4732 50.62 50.4732 50.1514 50.0046L45.8999 45.7531L41.6484 50.0046C41.1798 50.4732 40.42 50.4732 39.9514 50.0046C39.4827 49.536 39.4827 48.7762 39.9514 48.3075L44.2028 44.0561L39.9514 39.8046C39.4827 39.336 39.4827 38.5762 39.9514 38.1075ZM39.5999 61.1561C39.5999 59.4992 40.943 58.1561 42.5999 58.1561H60.5999C62.2568 58.1561 63.5999 59.4992 63.5999 61.1561C63.5999 62.8129 62.2568 64.1561 60.5999 64.1561H42.5999C40.943 64.1561 39.5999 62.8129 39.5999 61.1561ZM42.5999 60.5561C42.2685 60.5561 41.9999 60.8247 41.9999 61.1561C41.9999 61.4874 42.2685 61.7561 42.5999 61.7561H60.5999C60.9313 61.7561 61.1999 61.4874 61.1999 61.1561C61.1999 60.8247 60.9313 60.5561 60.5999 60.5561H42.5999ZM42.5999 67.7561C40.943 67.7561 39.5999 69.0992 39.5999 70.7561C39.5999 72.4129 40.9431 73.7561 42.5999 73.7561H76.1999C77.8568 73.7561 79.1999 72.4129 79.1999 70.7561C79.1999 69.0992 77.8568 67.7561 76.1999 67.7561H42.5999ZM41.9999 70.7561C41.9999 70.4247 42.2685 70.1561 42.5999 70.1561H76.1999C76.5313 70.1561 76.7999 70.4247 76.7999 70.7561C76.7999 71.0874 76.5313 71.3561 76.1999 71.3561H42.5999C42.2685 71.3561 41.9999 71.0874 41.9999 70.7561ZM96.0978 30.8269C95.31 29.7086 93.8911 29.2256 92.5846 29.631C90.5398 30.2656 89.7078 32.7096 90.9409 34.4599L93.5561 38.1721C94.3666 39.3226 94.8053 40.6938 94.8132 42.1011L94.8387 46.6631C94.8484 48.4081 96.2698 49.8153 98.0147 49.8076C99.7617 49.7999 101.171 48.3769 101.163 46.6299L101.138 41.6749C101.126 39.2539 100.373 36.8948 98.9782 34.9156L96.0978 30.8269ZM93.2959 31.9232C93.6082 31.8263 93.9475 31.9418 94.1358 32.2091L97.0162 36.2978C98.1278 37.8757 98.7289 39.7565 98.7384 41.6867L98.7629 46.6417C98.765 47.0628 98.4252 47.4058 98.0041 47.4076C97.5835 47.4095 97.241 47.0703 97.2386 46.6497L97.2131 42.0877C97.2025 40.1901 96.611 38.3413 95.5181 36.7899L92.9029 33.0777C92.6081 32.6592 92.807 32.0749 93.2959 31.9232ZM71.9999 90.5561C71.9999 82.6032 78.447 76.1561 86.3999 76.1561C94.3528 76.1561 100.8 82.6032 100.8 90.5561C100.8 98.509 94.3528 104.956 86.3999 104.956C78.447 104.956 71.9999 98.509 71.9999 90.5561ZM83.3999 82.7561C83.3999 81.0992 84.7431 79.7561 86.3999 79.7561C88.0568 79.7561 89.3999 81.0992 89.3999 82.7561V89.9561C89.3999 91.6129 88.0568 92.9561 86.3999 92.9561C84.7431 92.9561 83.3999 91.6129 83.3999 89.9561V82.7561ZM86.3999 82.1561C86.0685 82.1561 85.7999 82.4247 85.7999 82.7561V89.9561C85.7999 90.2874 86.0685 90.5561 86.3999 90.5561C86.7313 90.5561 86.9999 90.2874 86.9999 89.9561V82.7561C86.9999 82.4247 86.7313 82.1561 86.3999 82.1561ZM86.3999 101.356C84.7431 101.356 83.3999 100.013 83.3999 98.3561C83.3999 96.6992 84.7431 95.3561 86.3999 95.3561C88.0568 95.3561 89.3999 96.6992 89.3999 98.3561C89.3999 100.013 88.0568 101.356 86.3999 101.356ZM85.7999 98.3561C85.7999 98.6874 86.0685 98.9561 86.3999 98.9561C86.7313 98.9561 86.9999 98.6874 86.9999 98.3561C86.9999 98.0247 86.7313 97.7561 86.3999 97.7561C86.0685 97.7561 85.7999 98.0247 85.7999 98.3561Z" fill="#9DA4AE"/>
</svg>
