<svg width="52" height="40" viewBox="0 0 52 40" fill="none" xmlns="http://www.w3.org/2000/svg">
<path fill-rule="evenodd" clip-rule="evenodd" d="M18.5499 2.37615C18.5499 1.49504 19.2642 0.780762 20.1453 0.780762H23.4273C24.3084 0.780762 25.0227 1.49504 25.0227 2.37615C25.0227 3.25726 24.3084 3.97155 23.4273 3.97155H20.1453C19.2642 3.97155 18.5499 3.25726 18.5499 2.37615ZM20.1453 1.99188C19.9331 1.99188 19.761 2.16392 19.761 2.37615C19.761 2.58839 19.9331 2.76043 20.1453 2.76043L23.4273 2.76043C23.6395 2.76043 23.8116 2.58839 23.8116 2.37615C23.8116 2.16392 23.6395 1.99188 23.4273 1.99188L20.1453 1.99188ZM5.83322 5.92799C3.15771 5.92799 0.98877 8.09693 0.98877 10.7724V34.3892C0.98877 37.0647 3.1577 39.2336 5.83322 39.2336H37.3501C40.0256 39.2336 42.1946 37.0647 42.1946 34.3892V33.7642C42.3854 33.7771 42.578 33.7836 42.7722 33.7836C47.4543 33.7836 51.25 29.988 51.25 25.3058C51.25 20.6237 47.4543 16.828 42.7722 16.828C42.578 16.828 42.3854 16.8345 42.1946 16.8474V10.7724C42.1946 8.09693 40.0256 5.92799 37.3501 5.92799H5.83322ZM40.9835 17.0171V14.5459H2.19988V34.3892C2.19988 36.3958 3.82658 38.0225 5.83322 38.0225H37.3501C39.3568 38.0225 40.9835 36.3958 40.9835 34.3892V33.5946C37.1603 32.7735 34.2944 29.3743 34.2944 25.3058C34.2944 21.2373 37.1603 17.8382 40.9835 17.0171ZM40.9835 10.7724V13.3348H2.19988V10.7724C2.19988 8.76581 3.82658 7.13911 5.83322 7.13911H37.3501C39.3568 7.13911 40.9835 8.76581 40.9835 10.7724ZM35.5055 25.3058C35.5055 21.2925 38.7589 18.0391 42.7722 18.0391C46.7855 18.0391 50.0389 21.2925 50.0389 25.3058C50.0389 29.3191 46.7855 32.5725 42.7722 32.5725C38.7589 32.5725 35.5055 29.3191 35.5055 25.3058ZM41.2583 21.3697C41.2583 20.5336 41.9361 19.8558 42.7722 19.8558C43.6083 19.8558 44.2861 20.5336 44.2861 21.3697V25.003C44.2861 25.8391 43.6083 26.5169 42.7722 26.5169C41.9361 26.5169 41.2583 25.8391 41.2583 25.003V21.3697ZM42.7722 21.0669C42.605 21.0669 42.4694 21.2025 42.4694 21.3697V25.003C42.4694 25.1702 42.605 25.3058 42.7722 25.3058C42.9394 25.3058 43.075 25.1702 43.075 25.003V21.3697C43.075 21.2025 42.9394 21.0669 42.7722 21.0669ZM42.7722 30.7558C41.9361 30.7558 41.2583 30.078 41.2583 29.2419C41.2583 28.4058 41.9361 27.728 42.7722 27.728C43.6083 27.728 44.2861 28.4058 44.2861 29.2419C44.2861 30.078 43.6083 30.7558 42.7722 30.7558ZM42.4694 29.2419C42.4694 29.4091 42.605 29.5447 42.7722 29.5447C42.9394 29.5447 43.075 29.4091 43.075 29.2419C43.075 29.0747 42.9394 28.9391 42.7722 28.9391C42.605 28.9391 42.4694 29.0747 42.4694 29.2419ZM6.74156 11.9836C7.57766 11.9836 8.25545 11.3058 8.25545 10.4697C8.25545 9.63357 7.57766 8.95578 6.74156 8.95578C5.90546 8.95578 5.22767 9.63357 5.22767 10.4697C5.22767 11.3058 5.90546 11.9836 6.74156 11.9836ZM12.4943 10.4697C12.4943 11.3058 11.8166 11.9836 10.9805 11.9836C10.1444 11.9836 9.46656 11.3058 9.46656 10.4697C9.46656 9.63357 10.1444 8.95578 10.9805 8.95578C11.8166 8.95578 12.4943 9.63357 12.4943 10.4697ZM5.22767 20.7641C5.22767 19.928 5.90546 19.2502 6.74156 19.2502H15.8249C16.661 19.2502 17.3388 19.928 17.3388 20.7641C17.3388 21.6002 16.661 22.278 15.8249 22.278H6.74156C5.90546 22.278 5.22767 21.6002 5.22767 20.7641ZM5.22767 25.6086C5.22767 24.7725 5.90546 24.0947 6.74156 24.0947H24.9083C25.7444 24.0947 26.4221 24.7725 26.4221 25.6086C26.4221 26.4447 25.7444 27.1225 24.9083 27.1225H6.74156C5.90546 27.1225 5.22767 26.4447 5.22767 25.6086ZM5.22767 30.453C5.22767 29.6169 5.90546 28.9391 6.74156 28.9391H24.9083C25.7444 28.9391 26.4221 29.6169 26.4221 30.453C26.4221 31.2891 25.7444 31.9669 24.9083 31.9669H6.74156C5.90546 31.9669 5.22767 31.2891 5.22767 30.453Z" fill="#9DA4AE"/>
</svg>
