<svg width="92" height="92" viewBox="0 0 92 92" fill="none" xmlns="http://www.w3.org/2000/svg">
<rect x="6" y="6" width="80" height="80" rx="40" fill="#F2F4F7"/>
<rect x="6" y="6" width="80" height="80" rx="40" stroke="#F9FAFB" stroke-width="12"/>
<path d="M39.3333 52.6667L46 46M46 46L52.6667 52.6667M46 46V61M59.3333 53.9047C61.3692 52.2234 62.6667 49.6799 62.6667 46.8333C62.6667 41.7707 58.5626 37.6667 53.5 37.6667C53.1358 37.6667 52.7951 37.4767 52.6102 37.1629C50.4368 33.4747 46.424 31 41.8333 31C34.9298 31 29.3333 36.5964 29.3333 43.5C29.3333 46.9435 30.7257 50.0618 32.9782 52.3226" stroke="#475467" stroke-width="3.33333" stroke-linecap="round" stroke-linejoin="round"/>
</svg>
