<svg width="16" height="14" viewBox="0 0 16 14" fill="none" xmlns="http://www.w3.org/2000/svg">
<path d="M7.16196 2.5355C7.4329 2.49545 7.7124 2.47396 8.00028 2.47396C11.4036 2.47396 13.6369 5.47719 14.3871 6.66517C14.4779 6.80896 14.5233 6.88085 14.5488 6.99174C14.5678 7.07502 14.5678 7.2064 14.5487 7.28968C14.5233 7.40056 14.4776 7.47293 14.3861 7.61767C14.1862 7.93406 13.8814 8.37869 13.4777 8.86093M4.48288 3.61732C3.0415 4.59509 2.06297 5.95354 1.61407 6.66415C1.52286 6.80854 1.47725 6.88073 1.45183 6.99161C1.43273 7.07489 1.43272 7.20625 1.45181 7.28953C1.47722 7.40041 1.52262 7.4723 1.61342 7.61608C2.36369 8.80407 4.59694 11.8073 8.00028 11.8073C9.37255 11.8073 10.5546 11.319 11.5259 10.6584M2.00028 1.14062L14.0003 13.1406M6.58606 5.72641C6.22413 6.08834 6.00028 6.58834 6.00028 7.14063C6.00028 8.24519 6.89571 9.14063 8.00028 9.14063C8.55256 9.14063 9.05256 8.91677 9.41449 8.55484" stroke="#6C737F" stroke-width="1.6" stroke-linecap="round" stroke-linejoin="round"/>
</svg>
