<svg width="24" height="25" viewBox="0 0 24 25" fill="none" xmlns="http://www.w3.org/2000/svg">
<g clip-path="url(#clip0_2632_521)">
<path d="M24 12.1406C24 5.5132 18.6274 0.140625 12 0.140625C5.37258 0.140625 0 5.5132 0 12.1406C0 18.1301 4.3882 23.0946 10.125 23.9948V15.6094H7.07812V12.1406H10.125V9.49688C10.125 6.48938 11.9166 4.82812 14.6576 4.82812C15.9701 4.82812 17.3438 5.0625 17.3438 5.0625V8.01562H15.8306C14.34 8.01562 13.875 8.9407 13.875 9.89062V12.1406H17.2031L16.6711 15.6094H13.875V23.9948C19.6118 23.0946 24 18.1301 24 12.1406Z" fill="#0043B7"/>
</g>
<defs>
<clipPath id="clip0_2632_521">
<rect width="24" height="24" fill="white" transform="translate(0 0.140625)"/>
</clipPath>
</defs>
</svg>
