<svg width="111" height="40" viewBox="0 0 111 40" fill="none" xmlns="http://www.w3.org/2000/svg">
<path d="M27.1242 14.2285V8.03528C25.2125 9.37599 24.0494 10.2176 22.0548 11.6567C19.1615 14.0696 16.5685 14.6179 13.2382 14.3449C12.6712 14.2979 12.0997 14.2128 11.5103 13.9733C15.9231 10.6809 20.3336 7.38843 25.1318 3.8095H17.9356V1.84176e-05H31.7722V14.2285H27.1242Z" fill="#0A2628"/>
<path d="M0 23.9638V0H9.8115C9.8115 0.455919 9.8115 0.896117 9.8115 1.33631C9.8115 5.44857 9.82499 9.56307 9.79801 13.6753C9.79576 14.0167 9.6136 14.4412 9.37298 14.6837C6.38883 17.691 3.37994 20.6713 0.375549 23.6584C0.29909 23.7347 0.209138 23.7954 0.0022488 23.9616L0 23.9638Z" fill="#0A2628"/>
<path d="M3.67645 32.449C5.97022 30.156 6.82251 28.649 9.12528 26.3469C10.3351 27.2789 12.8785 28.1571 14.4684 28.2829C18.2194 28.5816 23.0206 24.8174 23.1218 21.0645C23.1488 20.0359 23.1623 18.8276 23.1623 17.7428H31.6919C32.4318 25.1431 29.351 32.1952 22.0491 35.6158C15.5793 38.6477 8.05935 36.9072 3.6787 32.4513L3.67645 32.449Z" fill="#0A2628"/>
<path d="M45.8198 40C44.0045 40 42.4479 39.7504 41.15 39.2512C39.8608 38.7607 38.8348 38.0907 38.0718 37.2411C37.3088 36.3915 36.8134 35.4369 36.5853 34.3771L41.7682 33.6808C41.9261 34.0837 42.176 34.4603 42.518 34.8106C42.8601 35.161 43.3117 35.4412 43.873 35.6514C44.443 35.8704 45.1358 35.9799 45.9514 35.9799C47.1704 35.9799 48.1745 35.6821 48.9638 35.0865C49.7618 34.4997 50.1608 33.5144 50.1608 32.1305V28.4389H49.9241C49.6785 28.9994 49.3102 29.5293 48.8191 30.0285C48.328 30.5278 47.6966 30.935 46.9248 31.2503C46.1531 31.5656 45.2323 31.7233 44.1624 31.7233C42.6452 31.7233 41.264 31.3729 40.0187 30.6723C38.7822 29.9628 37.7956 28.8812 37.0589 27.4273C36.331 25.9646 35.9671 24.1166 35.9671 21.8832C35.9671 19.5972 36.3398 17.6879 37.0852 16.1552C37.8306 14.6224 38.8216 13.4751 40.0581 12.7131C41.3034 11.9511 42.6671 11.5701 44.1492 11.5701C45.2805 11.5701 46.2276 11.7628 46.9906 12.1482C47.7536 12.5248 48.3674 12.9977 48.8322 13.567C49.3058 14.1276 49.6697 14.6794 49.9241 15.2224H50.1345V11.8329H55.6989V32.2094C55.6989 33.926 55.278 35.3624 54.4361 36.5185C53.5942 37.6746 52.4278 38.5417 50.937 39.1198C49.4549 39.7066 47.7492 40 45.8198 40ZM45.9382 27.5192C46.8415 27.5192 47.6045 27.2959 48.2271 26.8492C48.8585 26.3938 49.3409 25.7456 49.6741 24.9048C50.0161 24.0553 50.1871 23.0393 50.1871 21.8569C50.1871 20.6745 50.0205 19.6498 49.6873 18.7827C49.354 17.9068 48.8717 17.2281 48.2403 16.7464C47.6089 16.2646 46.8415 16.0238 45.9382 16.0238C45.0174 16.0238 44.2413 16.2734 43.6099 16.7726C42.9785 17.2631 42.5005 17.9463 42.176 18.8221C41.8515 19.6979 41.6893 20.7095 41.6893 21.8569C41.6893 23.0218 41.8515 24.029 42.176 24.8786C42.5093 25.7194 42.9872 26.3719 43.6099 26.8361C44.2413 27.2915 45.0174 27.5192 45.9382 27.5192Z" fill="#0A2628"/>
<path d="M58.7692 32.0123V11.8329H64.202V15.3538H64.4125C64.7808 14.1013 65.3991 13.1554 66.2673 12.516C67.1355 11.8679 68.1352 11.5438 69.2665 11.5438C69.5471 11.5438 69.8497 11.5614 70.1742 11.5964C70.4987 11.6314 70.7837 11.6796 71.0292 11.7409V16.7069C70.7661 16.6281 70.4022 16.558 69.9374 16.4967C69.4726 16.4354 69.0473 16.4048 68.6614 16.4048C67.8371 16.4048 67.1004 16.5843 66.4514 16.9434C65.8113 17.2938 65.3026 17.7842 64.9255 18.4148C64.5572 19.0454 64.373 19.7724 64.373 20.5957V32.0123H58.7692Z" fill="#0A2628"/>
<path d="M77.7203 32.3933C76.4311 32.3933 75.2823 32.17 74.2738 31.7233C73.2653 31.2678 72.4672 30.5978 71.8797 29.7132C71.3009 28.8199 71.0115 27.7075 71.0115 26.3763C71.0115 25.2552 71.2176 24.3136 71.6297 23.5517C72.0419 22.7897 72.6032 22.1766 73.3135 21.7124C74.0239 21.2482 74.8307 20.8979 75.734 20.6614C76.646 20.4249 77.6019 20.2585 78.6016 20.1621C79.7768 20.0395 80.7239 19.9257 81.443 19.8206C82.1621 19.7067 82.6839 19.5403 83.0084 19.3213C83.3329 19.1024 83.4951 18.7783 83.4951 18.3491V18.2703C83.4951 17.4383 83.2321 16.7945 82.7059 16.3391C82.1885 15.8836 81.4518 15.6559 80.4959 15.6559C79.4874 15.6559 78.685 15.8793 78.0886 16.326C77.4923 16.7639 77.0976 17.3157 76.9047 17.9813L71.7218 17.5609C71.9849 16.3347 72.5023 15.2749 73.274 14.3816C74.0458 13.4795 75.0412 12.7875 76.2601 12.3058C77.4879 11.8154 78.9086 11.5701 80.5222 11.5701C81.6447 11.5701 82.719 11.7015 83.7451 11.9642C84.7799 12.227 85.6963 12.6343 86.4944 13.1861C87.3012 13.7378 87.937 14.4473 88.4018 15.3144C88.8666 16.1727 89.099 17.2018 89.099 18.4017V32.0123H83.7845V29.214H83.6267C83.3022 29.8446 82.8681 30.4008 82.3244 30.8825C81.7807 31.3554 81.1273 31.7277 80.3644 31.9992C79.6014 32.2619 78.72 32.3933 77.7203 32.3933ZM79.3251 28.5308C80.1495 28.5308 80.8774 28.3688 81.5088 28.0447C82.1402 27.7119 82.6357 27.2652 82.9953 26.7047C83.3548 26.1442 83.5346 25.5092 83.5346 24.7997V22.6583C83.3592 22.7722 83.118 22.8773 82.8111 22.9736C82.5129 23.0612 82.1753 23.1444 81.7982 23.2232C81.4211 23.2933 81.044 23.359 80.6669 23.4203C80.2898 23.4728 79.9478 23.521 79.6409 23.5648C78.9831 23.6611 78.4087 23.8144 77.9176 24.0246C77.4265 24.2348 77.045 24.5195 76.7732 24.8786C76.5013 25.2289 76.3654 25.6668 76.3654 26.1923C76.3654 26.9543 76.6416 27.5367 77.1941 27.9396C77.7554 28.3338 78.4657 28.5308 79.3251 28.5308Z" fill="#0A2628"/>
<path d="M99.5029 32.3407C97.9682 32.3407 96.5782 31.9466 95.3329 31.1584C94.0964 30.3613 93.1142 29.1921 92.3863 27.6506C91.6672 26.1004 91.3076 24.1998 91.3076 21.9489C91.3076 19.6366 91.6803 17.7142 92.4258 16.1814C93.1712 14.64 94.1622 13.4882 95.3987 12.7262C96.644 11.9555 98.0077 11.5701 99.4898 11.5701C100.621 11.5701 101.564 11.7628 102.318 12.1482C103.081 12.5248 103.695 12.9977 104.16 13.567C104.633 14.1276 104.993 14.6794 105.238 15.2224H105.409V5.1064H111V32.0123H105.475V28.7804H105.238C104.975 29.341 104.603 29.8971 104.12 30.4489C103.647 30.9919 103.028 31.443 102.265 31.8021C101.511 32.1612 100.59 32.3407 99.5029 32.3407ZM101.279 27.8871C102.182 27.8871 102.945 27.6418 103.568 27.1514C104.199 26.6521 104.681 25.9558 105.015 25.0625C105.357 24.1691 105.528 23.1225 105.528 21.9226C105.528 20.7227 105.361 19.6804 105.028 18.7958C104.695 17.9112 104.212 17.2281 103.581 16.7464C102.949 16.2646 102.182 16.0238 101.279 16.0238C100.358 16.0238 99.5818 16.2734 98.9504 16.7726C98.319 17.2719 97.8411 17.9638 97.5166 18.8484C97.1921 19.733 97.0299 20.7577 97.0299 21.9226C97.0299 23.0962 97.1921 24.1341 97.5166 25.0362C97.8498 25.9296 98.3278 26.6302 98.9504 27.1382C99.5818 27.6375 100.358 27.8871 101.279 27.8871Z" fill="#0A2628"/>
</svg>
