<svg width="25" height="25" viewBox="0 0 25 25" fill="none" xmlns="http://www.w3.org/2000/svg">
<g clip-path="url(#clip0_2632_467)">
<path d="M24.266 12.4171C24.266 11.6014 24.1999 10.7813 24.0588 9.97876H12.74V14.5997H19.2217C18.9528 16.0901 18.0885 17.4085 16.823 18.2463V21.2446H20.69C22.9608 19.1546 24.266 16.068 24.266 12.4171Z" fill="#4285F4"/>
<path d="M12.7401 24.1414C15.9766 24.1414 18.7059 23.0788 20.6945 21.2445L16.8276 18.2462C15.7517 18.9781 14.3627 19.3926 12.7445 19.3926C9.61388 19.3926 6.95946 17.2805 6.00705 14.4409H2.0166V17.5319C4.05371 21.584 8.2029 24.1414 12.7401 24.1414Z" fill="#34A853"/>
<path d="M6.00253 14.4408C5.49987 12.9505 5.49987 11.3367 6.00253 9.84631V6.75537H2.01649C0.31449 10.1461 0.31449 14.141 2.01649 17.5318L6.00253 14.4408Z" fill="#FBBC04"/>
<path d="M12.7401 4.89029C14.4509 4.86383 16.1044 5.50759 17.3434 6.68929L20.7695 3.26324C18.6001 1.22613 15.7208 0.106159 12.7401 0.141434C8.2029 0.141434 4.05371 2.69885 2.0166 6.75543L6.00264 9.84638C6.95064 7.00236 9.60947 4.89029 12.7401 4.89029Z" fill="#EA4335"/>
</g>
<defs>
<clipPath id="clip0_2632_467">
<rect width="24" height="24" fill="white" transform="translate(0.5 0.140625)"/>
</clipPath>
</defs>
</svg>
