<svg width="147" height="160" viewBox="0 0 147 160" fill="none" xmlns="http://www.w3.org/2000/svg">
<path d="M23.5565 123.261L18.6085 123.366C16.9439 123.394 15.2653 123.422 13.5867 123.422H13.4287V123.261V119.331V119.156H13.6043L18.5839 119.177C20.2449 119.177 21.906 119.219 23.5635 119.237H23.6618V119.328L23.5565 123.261ZM23.5565 123.261L23.4652 119.331L23.5565 119.426C21.899 119.444 20.2379 119.482 18.5769 119.486L13.5973 119.507L13.7729 119.331V123.261L13.6148 123.106C15.2548 123.106 16.8983 123.135 18.5523 123.163L23.5565 123.261Z" fill="#EBEBEB"/>
<path d="M18.0008 128.219L13.0598 128.321C11.3987 128.349 9.72015 128.377 8.03804 128.377H7.88353V128.219L7.86597 124.289V124.114H8.04155L13.0247 124.135C14.6857 124.135 16.3432 124.177 18.0043 124.195H18.0991V124.286L18.0008 128.219ZM18.0008 128.219L17.9059 124.289L17.9972 124.384C16.3362 124.402 14.6787 124.44 13.0176 124.444L8.03453 124.465L8.21011 124.289V128.219L8.05209 128.064C9.69557 128.064 11.3355 128.093 12.9931 128.121L18.0008 128.219Z" fill="#EBEBEB"/>
<path d="M105.604 96.6419L100.666 96.7402C99.0018 96.7683 97.3232 96.7964 95.6446 96.7999H95.4866V96.6419L95.469 92.7088V92.5332H95.6481L100.628 92.5543C102.289 92.5543 103.946 92.5964 105.607 92.614H105.699V92.7088L105.604 96.6419ZM105.604 96.6419L105.512 92.7088L105.604 92.8001C103.943 92.8212 102.285 92.8563 100.624 92.8598L95.6446 92.8844L95.8166 92.7088L95.7991 96.6384L95.6446 96.4803C97.2845 96.4803 98.9245 96.512 100.582 96.5401L105.604 96.6419Z" fill="#EBEBEB"/>
<path d="M94.3771 96.6419L89.4361 96.7402C87.7751 96.7683 86.0965 96.7964 84.4144 96.7999H84.2774V96.6419L84.2388 92.7088V92.5332H84.4144L89.3975 92.5543C91.0585 92.5543 92.716 92.5964 94.3771 92.614H94.4614V92.7088L94.3771 96.6419ZM94.3771 96.6419L94.2858 92.7088L94.3771 92.8001C92.716 92.8212 91.0585 92.8563 89.3975 92.8598L84.4144 92.8844L84.5899 92.7088L84.5724 96.6384L84.4144 96.4803C86.0578 96.4803 87.6978 96.512 89.3553 96.5401L94.3771 96.6419Z" fill="#EBEBEB"/>
<path d="M100.003 101.597L95.0617 101.695C93.3972 101.723 91.7221 101.751 90.04 101.755H89.896V101.597V97.6673V97.4917H90.0716L95.0547 97.5128C96.7122 97.5128 98.3733 97.5549 100.034 97.5725H100.129V97.6638L100.003 101.597ZM100.003 101.597L99.9079 97.6673L100.003 97.7586C98.3417 97.7797 96.6806 97.8148 95.0231 97.8183L90.04 97.8429L90.2156 97.6673L90.198 101.597L90.04 101.439C91.6835 101.439 93.3234 101.47 94.981 101.499L100.003 101.597Z" fill="#EBEBEB"/>
<path d="M139.446 128.219L134.505 128.321C132.841 128.349 131.162 128.377 129.484 128.377H129.326V128.219V124.289V124.114H129.501L134.481 124.135C136.142 124.135 137.803 124.177 139.464 124.195H139.559V124.286L139.446 128.219ZM139.446 128.219L139.352 124.289L139.446 124.384C137.785 124.402 136.124 124.44 134.463 124.444L129.484 124.465L129.659 124.289L129.642 128.219L129.484 128.064C131.124 128.064 132.767 128.093 134.425 128.121L139.446 128.219Z" fill="#EBEBEB"/>
<path d="M133.887 28.5467L128.95 28.645C127.285 28.6731 125.607 28.7012 123.928 28.7012H123.77V28.5432V24.6171V24.438H123.949L128.929 24.4591C130.59 24.4591 132.247 24.5012 133.908 24.5188H134.003V24.6136L133.887 28.5467ZM133.887 28.5467L133.792 24.6171L133.884 24.7084C132.223 24.7084 130.565 24.7646 128.904 24.7681L123.925 24.7892L124.097 24.6171V28.5432L123.942 28.3886C125.582 28.3886 127.222 28.4167 128.88 28.4448L133.887 28.5467Z" fill="#EBEBEB"/>
<path d="M139.446 33.4978L134.495 33.5996C132.83 33.6277 131.152 33.6558 129.473 33.6558H129.315V33.4978V29.5717V29.3926H129.491L134.47 29.4137C136.131 29.4137 137.792 29.4558 139.453 29.4733H139.548V29.5682L139.446 33.4978ZM139.446 33.4978L139.351 29.5717L139.446 29.663C137.785 29.663 136.124 29.7192 134.463 29.7227L129.484 29.7437L129.659 29.5717L129.642 33.4978L129.484 33.3432C131.123 33.3432 132.767 33.3713 134.424 33.3994L139.446 33.4978Z" fill="#EBEBEB"/>
<path d="M18.0008 28.5467L13.0598 28.645C11.3987 28.6731 9.72015 28.7012 8.03804 28.7012H7.88353V28.5432L7.86597 24.6171V24.438H8.04155L13.0247 24.4591C14.6857 24.4591 16.3432 24.5012 18.0043 24.5188H18.0991V24.6136L18.0008 28.5467ZM18.0008 28.5467L17.9059 24.6171L17.9972 24.7084C16.3362 24.7084 14.6787 24.7646 13.0176 24.7681L8.03453 24.7892L8.21011 24.6171V28.5432L8.05209 28.3886C9.69557 28.3886 11.3355 28.4167 12.9931 28.4448L18.0008 28.5467Z" fill="#EBEBEB"/>
<path d="M68.6187 61.9494L63.6812 62.0477C62.0167 62.0758 60.3381 62.1039 58.6595 62.1074H58.5015V61.9494V58.0198V57.8442H58.6771L63.6567 57.8653C65.3177 57.8653 66.9787 57.9074 68.6363 57.925H68.7311V58.0163L68.6187 61.9494ZM68.6187 61.9494L68.5274 58.0198L68.6187 58.1111C66.9612 58.1322 65.3001 58.1673 63.6391 58.1708L58.6595 58.1954L58.8351 58.0198L58.8175 61.9494L58.6595 61.7914C60.2995 61.7914 61.9429 61.8195 63.597 61.8476L68.6187 61.9494Z" fill="#EBEBEB"/>
<path d="M23.1036 0H22.7524V48.6756H23.1036V0Z" fill="#C7C7C7"/>
<path d="M39.9912 65.1243L38.6181 68.1409H7.23397L5.86792 65.1243L19.2265 55.8745H26.6291L39.9912 65.1243Z" fill="#EBEBEB"/>
<path d="M27.5562 46.9653L26.6291 55.8745H19.2264L18.2993 46.9653H27.5562Z" fill="#DBDBDB"/>
<path d="M39.9875 65.1245L38.6145 68.1411H7.23383L5.86426 65.1245H39.9875Z" fill="#DBDBDB"/>
<path d="M59.7481 0H59.397V29.2068H59.7481V0Z" fill="#C7C7C7"/>
<path d="M76.6322 45.6556L75.2627 48.6721H43.8785L42.5125 45.6556L55.871 36.4058H63.2737L76.6322 45.6556Z" fill="#EBEBEB"/>
<path d="M64.201 27.4966L63.2739 36.4058H55.8712L54.9441 27.4966H64.201Z" fill="#DBDBDB"/>
<path d="M76.6323 45.6558L75.2592 48.6723H43.8786L42.509 45.6558H76.6323Z" fill="#DBDBDB"/>
<path d="M141.62 159.828L124.648 159.912L107.679 159.944L73.7421 160L39.8049 159.944L22.8328 159.912L5.86426 159.828L22.8328 159.74L39.8049 159.709L73.7421 159.652L107.679 159.709L124.648 159.74L141.62 159.828Z" fill="#263238"/>
<path d="M68.5449 159.824H34.7412C34.4637 158.735 34.1933 157.664 33.9229 156.611C33.6139 155.399 33.3084 154.216 33.0169 153.064C32.9537 152.808 32.887 152.548 32.8203 152.295C32.6002 151.415 32.3825 150.556 32.1671 149.717L31.7843 148.211C31.6509 147.705 31.5279 147.207 31.405 146.722C31.3699 146.595 31.3383 146.466 31.3067 146.343L31.2014 145.925L31.0749 145.426C31.0258 145.251 30.9836 145.075 30.9415 144.906C30.8537 144.58 30.7729 144.26 30.6957 143.948C30.5763 143.484 30.4604 143.031 30.3445 142.589C30.2953 142.396 30.2427 142.202 30.197 142.016C30.1174 141.707 30.0401 141.405 29.9652 141.11C29.9161 140.914 29.8669 140.72 29.8213 140.531C29.6176 139.758 29.435 139.028 29.2629 138.347L29.1259 137.82C29.0522 137.525 28.982 137.244 28.9117 136.97C28.8661 136.798 28.8204 136.619 28.7818 136.468C28.6343 135.885 28.4973 135.355 28.3814 134.887C28.3463 134.761 28.3147 134.642 28.2866 134.536C28.2094 134.227 28.1356 133.953 28.0759 133.711C28.0513 133.613 28.0303 133.518 28.0022 133.43C27.9741 133.342 27.9565 133.244 27.9355 133.163C27.9144 133.082 27.9039 133.04 27.8933 132.991C27.8828 132.942 27.8512 132.826 27.8336 132.759C27.8161 132.693 27.8161 132.686 27.8055 132.658C27.7564 132.454 27.7283 132.352 27.7283 132.352H60.633C60.633 132.352 61.7181 136.088 63.4424 142.111C63.7935 143.337 64.1728 144.661 64.5802 146.065C65.7496 150.065 67.0945 154.75 68.5449 159.824Z" fill="#37474F"/>
<path d="M40.2757 159.824H39.4329C38.1804 154.646 36.9677 149.458 35.7948 144.261C35.5092 142.996 35.2294 141.731 34.9555 140.464C34.9309 140.345 34.9028 140.229 34.8782 140.113C34.875 140.1 34.877 140.086 34.8839 140.075C34.8908 140.063 34.9021 140.055 34.9151 140.052C34.9281 140.049 34.9419 140.051 34.9535 140.058C34.965 140.064 34.9733 140.076 34.9766 140.089C34.9766 140.127 34.9976 140.166 35.0117 140.205C35.3909 141.56 35.7737 142.923 36.146 144.285C37.5647 149.447 38.9413 154.627 40.2757 159.824Z" fill="#263238"/>
<path d="M59.5723 132.338L58.122 139.608L56.9315 145.577L54.9052 155.74L54.6945 156.794L54.3434 158.529L54.0835 159.846H34.734C34.4601 158.753 34.1826 157.682 33.9193 156.632C33.6102 155.421 33.3047 154.237 33.0132 153.085C32.95 152.829 32.8833 152.569 32.8166 152.316C32.5965 151.436 32.3788 150.577 32.1634 149.739L31.7806 148.232C31.6472 147.727 31.5243 147.228 31.4014 146.743C31.3663 146.617 31.3346 146.487 31.303 146.364L31.1977 145.946L31.0713 145.448C31.0221 145.272 30.98 145.096 30.9378 144.928C30.85 144.601 30.7693 144.282 30.692 143.969C30.5726 143.506 30.4567 143.053 30.3408 142.61C30.2882 142.413 30.239 142.224 30.1933 142.038C30.1137 141.729 30.0365 141.427 29.9616 141.132C29.9124 140.935 29.8632 140.742 29.8176 140.552C29.6139 139.78 29.4313 139.049 29.2592 138.368L29.1223 137.841C29.0485 137.546 28.9783 137.265 28.9081 136.991C28.8624 136.819 28.8168 136.64 28.7781 136.489C28.6306 135.906 28.4937 135.376 28.3778 134.909C28.3427 134.783 28.3111 134.663 28.283 134.558C28.2057 134.249 28.132 133.975 28.0723 133.733C28.0477 133.634 28.0266 133.539 27.9985 133.452C27.9704 133.364 27.9529 133.265 27.9318 133.185C27.9107 133.104 27.9002 133.062 27.8897 133.013C27.8791 132.963 27.8475 132.848 27.83 132.781C27.8124 132.714 27.8124 132.707 27.8019 132.679C27.7527 132.475 27.7246 132.373 27.7246 132.373L59.5723 132.338Z" fill="#263238"/>
<path d="M59.5794 132.324C59.5794 132.503 59.4424 134.466 59.1228 137.462C59.0351 138.336 58.9262 139.295 58.8033 140.324C58.6101 141.946 58.3713 143.737 58.0728 145.63C57.5672 148.931 56.9105 152.534 56.0536 156.056C55.7481 157.324 55.4145 158.581 55.0598 159.81H12.5681C13.0668 153.338 13.5268 147.484 13.892 142.87C14.4188 136.405 14.7454 132.338 14.7454 132.338H53.2723L59.5794 132.324Z" fill="#37474F"/>
<path d="M59.4883 136.229C59.4427 137.75 59.3759 139.267 59.2776 140.777C59.1758 142.417 59.0248 144.053 58.8106 145.693C58.807 145.755 58.8 145.816 58.7895 145.876C58.5905 147.407 58.3564 148.936 58.0871 150.462C57.8413 151.884 57.6622 153.419 57.0336 154.732C56.7957 155.242 56.4577 155.698 56.0398 156.074C55.6572 156.425 55.1881 156.667 54.6808 156.776C54.5978 156.797 54.5133 156.811 54.4279 156.818C54.4069 156.818 54.3823 156.818 54.3542 156.818C54.3701 156.827 54.3832 156.839 54.392 156.855C54.4007 156.871 54.4047 156.888 54.4034 156.906C54.3858 157.415 54.4034 157.935 54.3437 158.441C54.342 158.462 54.342 158.483 54.3437 158.504C54.2945 158.946 54.2102 159.382 54.1294 159.821H53.4025C53.4025 159.821 53.4025 159.803 53.4025 159.793C53.5325 159.315 53.6378 158.831 53.7537 158.346C53.8696 157.861 54.0452 157.37 54.1611 156.868C54.1677 156.849 54.18 156.833 54.1962 156.822C53.7341 156.843 53.2766 156.723 52.885 156.477C52.4933 156.231 52.1862 155.871 52.0049 155.445C51.7591 154.796 51.8714 154.118 51.9698 153.451C52.1032 152.58 52.2296 151.695 52.3631 150.841C52.6124 149.244 52.932 147.663 53.2164 146.073L53.3428 145.349C53.9152 142.115 54.5087 138.881 55.2251 135.678C55.2497 135.545 55.2813 135.411 55.3094 135.278C55.3375 135.144 55.4744 135.214 55.4639 135.299C55.4428 135.513 55.4218 135.731 55.3972 135.945C55.2708 137.177 55.1268 138.403 54.9547 139.622C54.7475 141.058 54.6035 142.501 54.4069 143.934C54.3366 144.426 54.2699 144.914 54.1962 145.402C53.8661 147.762 53.5254 150.122 53.1216 152.474C52.932 153.567 52.2507 155.523 53.8239 155.863C54.1801 155.939 54.5513 155.892 54.8774 155.73C55.5719 155.311 56.091 154.655 56.3383 153.883C56.7843 152.632 56.9423 151.252 57.1741 149.95C57.4305 148.51 57.6552 147.07 57.8589 145.627C58.1164 143.826 58.3845 142.026 58.6631 140.226C58.8035 139.309 58.951 138.393 59.095 137.476C59.1652 137.051 59.232 136.626 59.3022 136.201C59.3443 136.113 59.4883 136.138 59.4883 136.229Z" fill="#263238"/>
<path d="M21.9023 147.519C23.6712 147.504 25.4312 147.268 27.1418 146.817C27.9319 146.617 28.7115 146.364 29.4841 146.115C30.2492 145.906 30.9654 145.548 31.5911 145.061C32.7851 144.036 33.347 142.417 33.8562 140.981C34.4222 139.361 34.8808 137.706 35.2293 136.026C35.2468 135.941 35.3697 135.969 35.3697 136.047C35.4153 137.944 35.1786 139.838 34.6674 141.665C34.2425 143.221 33.6666 144.952 32.4129 146.041C31.0925 147.186 29.298 147.59 27.6089 147.797C25.7113 148.017 23.7932 147.991 21.9023 147.719C21.8758 147.719 21.8503 147.709 21.8316 147.69C21.8128 147.671 21.8022 147.646 21.8022 147.619C21.8022 147.593 21.8128 147.567 21.8316 147.549C21.8503 147.53 21.8758 147.519 21.9023 147.519Z" fill="#263238"/>
<path d="M18.9594 136.057C18.8634 138.434 18.7628 140.812 18.6574 143.193C18.4233 148.739 18.1564 154.283 17.8567 159.824H17.0596C17.4248 154.269 17.8099 148.717 18.2149 143.168C18.3905 140.795 18.5661 138.428 18.7522 136.054C18.7571 136.03 18.7703 136.008 18.7895 135.992C18.8086 135.977 18.8326 135.969 18.8573 135.969C18.8819 135.97 18.9056 135.979 18.9243 135.995C18.9429 136.011 18.9554 136.033 18.9594 136.057Z" fill="#263238"/>
<path d="M49.8628 90.4191C56.5737 100.543 73.0015 119.166 81.2856 121.859C86.0615 123.415 106.219 119.956 110.886 118.625C113.365 117.923 103.922 97.6778 101.253 98.359C98.5175 99.0614 85.8965 101.671 83.8421 101.765C81.7878 101.86 65.7111 89.9204 57.3357 84.4948C46.7725 77.6541 44.3705 82.128 49.8628 90.4191Z" fill="#D3766A"/>
<path d="M107.665 119.212C110.261 118.889 122.176 116.402 125.287 114.966C128.399 113.53 137.058 108.747 136.198 106.25C135.338 103.753 132.686 104.954 132.686 104.954C132.686 104.954 136.022 102.356 134.93 99.922C133.838 97.4884 129.782 99.4865 129.782 99.4865C129.782 99.4865 133.013 96.5683 131.749 94.219C130.484 91.8696 126.741 94.5701 126.741 94.5701C126.741 94.5701 129.821 92.0382 127.967 90.5422C125.733 88.7407 120.592 94.0539 117.031 95.3743C116.223 95.6763 100.235 100.326 100.235 100.326L107.665 119.212Z" fill="#D3766A"/>
<path d="M127.074 94.3417C123.278 98.2326 120.947 99.2826 115.742 100.529C115.64 100.554 115.651 100.708 115.742 100.694C120.954 99.9358 124.068 99.0439 127.257 94.5138C127.429 94.2925 127.257 94.1556 127.074 94.3417Z" fill="#263238"/>
<path d="M130.084 99.1736C125.789 102.893 123.257 104.03 117.912 105.741C117.835 105.762 117.87 105.895 117.948 105.877C123.342 104.641 126.432 103.679 130.239 99.4194C130.407 99.2263 130.281 99.0051 130.084 99.1736Z" fill="#263238"/>
<path d="M132.419 105.031C128.002 108.314 125.291 109.701 119.879 110.692C119.855 110.698 119.835 110.713 119.821 110.733C119.807 110.754 119.801 110.778 119.804 110.803C119.807 110.827 119.819 110.849 119.837 110.866C119.856 110.882 119.879 110.891 119.904 110.892C125.522 110.421 128.915 108.711 132.504 105.175C132.739 104.936 132.697 104.824 132.419 105.031Z" fill="#263238"/>
<path d="M96.9197 101.059C96.9197 101.059 100.691 95.3845 102.89 93.2564C105.088 91.1283 116.234 86.233 117.432 88.5753C118.977 91.6024 113.102 95.7005 109.962 97.33C109.962 97.33 113.537 104.332 109.962 108.185C106.387 112.037 96.9197 101.059 96.9197 101.059Z" fill="#D3766A"/>
<path d="M117.572 89.548C116.989 93.3266 112.729 95.2018 109.8 97.0103C109.756 97.0349 109.718 97.07 109.691 97.1124C109.663 97.1548 109.646 97.2033 109.641 97.2538C109.636 97.3042 109.644 97.3551 109.663 97.402C109.682 97.4489 109.712 97.4905 109.751 97.523C111.054 100.561 112.006 105.221 110.162 108.181C110.152 108.198 110.148 108.219 110.152 108.239C110.156 108.258 110.168 108.276 110.184 108.288C110.2 108.3 110.22 108.305 110.24 108.303C110.26 108.301 110.279 108.291 110.292 108.276C112.698 105.372 112.136 100.715 110.496 97.4809C113.526 95.6724 117.716 93.618 117.611 89.5515C117.611 89.5269 117.575 89.5199 117.572 89.548Z" fill="#263238"/>
<path d="M71.0909 91.8868L63.186 111.18C63.186 111.18 50.2805 94.1729 46.235 86.1241C42.021 77.7382 43.7979 74.7146 54.4805 81.0708C65.2299 87.4656 71.0909 91.8868 71.0909 91.8868Z" fill="#113025"/>
<path d="M71.0908 91.8873L67.3368 101.049L63.186 111.181C63.186 111.181 50.284 94.1734 46.235 86.1246C44.0928 81.8719 43.4993 78.9994 44.8303 78.0301C46.1612 77.0609 49.2269 77.9388 54.491 81.0713C65.2298 87.4696 71.0908 91.8873 71.0908 91.8873Z" fill="#113025"/>
<path d="M47.5307 77.8511C47.6536 77.8792 47.7801 77.9108 47.91 77.9494L47.5799 78.1812C46.4386 78.9994 45.3183 79.8492 44.2051 80.7166C44.2051 80.6183 44.1735 80.5235 44.1665 80.4322C45.2657 79.5542 46.3683 78.6623 47.5307 77.8511ZM58.8771 83.7437C58.4563 84.7839 57.9078 85.7677 57.2441 86.6725C55.934 88.4641 54.291 89.9866 52.405 91.1569C51.6201 91.6493 50.7982 92.0802 49.9468 92.4457C50.01 92.5475 50.0802 92.6494 50.1434 92.7547C51.022 92.3647 51.8706 91.9105 52.6824 91.3957C54.4986 90.2439 56.0897 88.7706 57.3776 87.0482C58.1046 86.0871 58.701 85.0338 59.151 83.9158L58.8771 83.7437ZM60.5205 107.623L60.8717 108.115C60.9314 108.139 60.9946 108.175 61.0543 108.203C61.9901 108.664 62.8894 109.196 63.7443 109.793L63.8742 109.481C63.5687 109.27 63.2597 109.067 62.9401 108.87C62.1665 108.389 61.3577 107.968 60.5205 107.609V107.623ZM67.9583 97.5236C65.0928 96.8774 62.4695 95.4482 59.5724 94.9074C57.2125 94.4649 54.6911 94.7283 52.8229 96.3577C52.7632 96.4139 52.7 96.4666 52.6438 96.5298C52.7035 96.6176 52.7702 96.7124 52.8299 96.8072C53.7118 95.9682 54.814 95.397 56.008 95.1602C58.9368 94.5808 61.8655 95.8099 64.5625 96.8072C65.8678 97.3194 67.2172 97.7108 68.594 97.9766L68.7274 97.65C68.4746 97.6254 68.2112 97.5658 67.9583 97.5096V97.5236Z" fill="white"/>
<path d="M67.2384 91.827C66.9961 92.2625 66.817 92.7365 66.6168 93.1931C66.4166 93.6496 66.2059 94.1307 65.9987 94.5977C65.5809 95.5459 65.1805 96.5046 64.7837 97.4633C63.9901 99.3807 63.1894 101.295 62.4309 103.226C62.2201 103.756 62.013 104.279 61.8198 104.824C61.6267 105.368 61.4476 105.969 61.2439 106.527C61.2439 106.562 61.2825 106.58 61.2966 106.545C61.5073 106.077 61.7566 105.624 61.9708 105.14C62.185 104.655 62.3992 104.178 62.6064 103.69C63.0103 102.734 63.4106 101.776 63.8004 100.817C64.566 98.9206 65.3385 97.0313 66.0655 95.121C66.2692 94.5872 66.4658 94.0675 66.6695 93.5196C66.8732 92.9718 67.1295 92.4029 67.2875 91.8305C67.2981 91.82 67.2524 91.7989 67.2384 91.827Z" fill="#263238"/>
<path opacity="0.1" d="M67.3368 101.049L63.186 111.18C63.186 111.18 50.284 94.1731 46.235 86.1243C44.0928 81.8716 43.4993 78.999 44.8303 78.0298C46.9689 78.0895 48.4509 78.1246 48.4509 78.1246L67.3368 101.049Z" fill="black"/>
<path d="M65.7073 145.528L11.2336 145.686C11.2336 145.686 15.985 104.694 35.9912 80.4775C40.6196 74.8588 48.075 77.921 51.218 80.8954C59.1895 88.4491 65.8618 145.332 65.7073 145.528Z" fill="#113025"/>
<path d="M47.2953 78.3847C44.967 80.0668 42.73 81.8964 40.465 83.6523C39.2956 84.5548 38.1578 85.5134 36.9357 86.3387C35.9559 86.9989 34.8287 87.5467 33.6277 87.48C32.832 87.4212 32.0745 87.1155 31.461 86.6056C31.4996 86.5424 31.5452 86.4757 31.5874 86.4124C31.8394 86.6162 32.1153 86.7884 32.4091 86.9252C33.6136 87.4765 34.9235 87.2026 36.0437 86.574C37.2834 85.8927 38.3755 84.927 39.4922 84.0631L43.1479 81.2257C44.4086 80.2494 45.6588 79.1959 46.9687 78.2407L47.2953 78.3847ZM39.2183 106.457C40.4228 104.733 41.0093 102.419 40.2718 100.396C39.5941 98.5875 37.9752 97.397 36.1385 96.9546C34.2247 96.5018 32.2124 96.7394 30.4566 97.6253C28.1635 98.7877 26.4954 100.853 24.434 102.345C23.8527 102.763 23.2274 103.116 22.5693 103.399C22.5096 103.543 22.4534 103.683 22.3937 103.823C24.6131 102.984 26.2566 101.214 28.037 99.7042C28.9645 98.8613 30.0178 98.1682 31.1589 97.6499C32.1229 97.2586 33.1527 97.0548 34.1931 97.0494C36.1877 97.0283 38.3158 97.7728 39.4606 99.5076C40.7529 101.457 40.3737 103.985 39.1973 105.892C36.2158 110.724 29.6173 110.415 24.6869 110.506C22.9941 110.515 21.3054 110.674 19.6405 110.98C19.5879 111.11 19.5422 111.237 19.5001 111.367C21.3951 111.018 23.3185 110.848 25.2452 110.857C30.0457 110.801 36.1421 110.878 39.2324 106.457H39.2183ZM40.4228 94.2435C44.7118 94.7317 49.038 93.7259 52.6717 91.3955C53.6408 90.7802 54.5497 90.0747 55.3862 89.2885C55.3476 89.1656 55.309 89.0462 55.2633 88.9374C54.3868 89.7816 53.424 90.5313 52.3907 91.1743C48.6284 93.544 44.1323 94.4639 39.7416 93.7624C36.121 93.1444 32.8727 90.918 29.3574 89.9347C29.2872 90.0435 29.224 90.1524 29.1538 90.2613C30.6775 90.7345 32.1637 91.3214 33.5996 92.0171C35.8155 93.0215 38.0173 93.9415 40.4369 94.2435H40.4228ZM36.3809 127.303C37.8411 125.845 38.7158 123.902 38.8391 121.842C38.9444 119.956 38.3439 117.979 36.8444 116.732C35.1237 115.328 32.7849 115.265 30.7481 115.925C28.3987 116.687 26.5762 118.313 24.9818 120.139C23.2471 122.137 21.7265 124.413 19.616 126.045C18.1797 127.155 16.3711 128.065 14.5205 128.184C14.4924 128.293 14.4678 128.402 14.4397 128.511C15.3907 128.46 16.3257 128.245 17.2034 127.875C19.5211 126.899 21.277 125.154 22.8643 123.254C24.5359 121.263 26.0951 119.04 28.2758 117.537C30.1792 116.234 32.7181 115.384 35.0008 116.107C37.1288 116.778 38.3579 118.748 38.5125 120.908C38.5757 121.977 38.4216 123.048 38.0595 124.056C37.6973 125.064 37.1347 125.988 36.4054 126.772C34.7093 128.62 32.4161 129.768 30.0844 130.635C27.3857 131.6 24.631 132.4 21.8354 133.03C18.8609 133.733 15.2825 134.33 12.7892 136.229C12.7541 136.416 12.7154 136.581 12.6838 136.77C15.1807 134.681 19.0049 134.059 22.0952 133.332C24.8816 132.706 27.6261 131.906 30.3126 130.937C32.525 130.098 34.7128 129.006 36.3949 127.303H36.3809ZM32.8691 136.317C30.4706 136.156 28.4268 137.655 27.0713 139.502C25.6666 141.42 24.8308 143.674 23.5315 145.651H23.9248C24.4551 144.819 24.9116 143.934 25.3541 143.081C26.5059 140.851 27.7701 138.35 30.137 137.195C31.2532 136.62 32.5416 136.475 33.7576 136.788C34.3013 136.965 34.7998 137.259 35.2188 137.648C35.6378 138.037 35.9672 138.513 36.1842 139.042C37.0972 141.111 36.7531 143.418 36.8865 145.606H37.2377C37.1324 143.818 37.3185 142.01 36.9287 140.24C36.4827 138.196 35.1131 136.465 32.8972 136.317H32.8691ZM57.5881 144.162C56.7734 141.946 56.7628 139.537 56.8857 137.213C57.1596 131.376 58.308 125.487 57.3914 119.654C56.6891 115.187 54.7717 110.657 50.9896 107.957C49.0652 106.587 46.4244 105.706 44.2401 107.005C42.3859 108.101 41.4131 110.32 41.3886 112.413C41.3569 115.124 42.6212 117.663 43.9486 119.953C45.276 122.242 46.758 124.363 48.0924 126.625C49.4269 128.886 50.5506 131.215 51.0387 133.768C51.4885 136.139 51.4106 138.58 50.8105 140.918C50.3982 142.56 49.7425 144.132 48.865 145.581H49.2618C49.4409 145.279 49.613 144.97 49.771 144.661C50.8379 142.579 51.4657 140.301 51.6155 137.967C51.7653 135.633 51.4339 133.293 50.6419 131.092C48.8509 126.175 45.2479 122.204 43.025 117.491C41.8872 115.082 41.1533 112.223 42.3437 109.681C42.8083 108.628 43.6019 107.754 44.6053 107.191C45.2007 106.905 45.8479 106.741 46.5079 106.71C47.168 106.68 47.8276 106.782 48.4471 107.012C50.7929 107.781 52.7489 109.674 54.0974 111.69C55.3801 113.679 56.2826 115.889 56.7593 118.207C58.0095 123.872 57.0227 129.694 56.6188 135.394C56.4433 137.852 56.2923 140.37 56.819 142.8C57.015 143.767 57.3623 144.697 57.8479 145.556H58.2904C58.0056 145.119 57.7701 144.652 57.5881 144.162ZM51.6884 102.152C52.8262 104.463 55.1334 105.72 57.423 106.657C58.2729 107.009 59.1297 107.328 59.969 107.686C59.9479 107.567 59.9234 107.451 59.9023 107.335C58.5713 106.77 57.2158 106.282 55.9165 105.614C53.7076 104.505 51.4215 102.503 51.4531 99.8131C51.4812 97.3549 53.7568 95.599 56.0183 95.1425C56.3778 95.0739 56.7415 95.0293 57.107 95.0091C57.0789 94.9143 57.0508 94.8124 57.0262 94.7141C55.4865 94.7743 54.0109 95.3464 52.8332 96.34C52.0098 97.0341 51.4476 97.9881 51.2394 99.0448C51.0313 100.101 51.1897 101.197 51.6884 102.152Z" fill="white"/>
<path d="M33.8774 94.96C33.8774 108.329 38.1231 136.44 45.8173 142.565C55.9169 150.603 76.9767 152.092 83.6454 152.253C86.5531 152.324 88.165 133.03 85.8999 130.899C83.6349 128.767 59.39 124.381 57.2935 123.377C55.197 122.372 48.4054 102.759 42.9763 92.8881C36.1284 80.4356 33.8774 83.7261 33.8774 94.96Z" fill="#D3766A"/>
<path d="M94.9845 134.736C93.7133 133.974 94.1031 133.304 96.7193 132.98C99.3356 132.657 109.965 133.549 109.965 129.82C109.965 126.091 94.9494 125.026 90.6511 125.915C86.3528 126.803 79.677 129.746 79.677 129.746C82.5426 130.526 89.3518 133.11 94.9845 134.736Z" fill="#D3766A"/>
<path d="M76.2004 151.463C84.4003 153.398 94.4859 156.302 103.564 153.489C104.579 153.204 105.47 152.586 106.092 151.734C110.183 150.543 110.85 148.257 110.85 148.257C114.324 145.981 114.685 143.548 114.685 143.548C114.685 143.548 119.472 142.101 119.078 139.06C118.646 135.65 112.006 138.358 107.448 137.603C97.0003 135.889 82.6339 130.53 79.67 129.736L76.2004 151.463Z" fill="#D3766A"/>
<path d="M95.2304 143.498C98.3137 143.941 101.334 144.457 104.463 144.478C107.894 144.502 111.198 143.951 114.58 143.477C114.599 143.477 114.618 143.483 114.634 143.495C114.649 143.507 114.66 143.524 114.664 143.543C114.668 143.562 114.665 143.582 114.656 143.6C114.647 143.617 114.633 143.631 114.615 143.639C108.645 145.468 101.211 145.359 95.2093 143.639C95.0618 143.596 95.0759 143.474 95.2304 143.498Z" fill="#263238"/>
<path d="M93.2811 149.651C96.3047 149.915 101.625 150.354 110.822 148.152C110.85 148.152 110.875 148.194 110.843 148.208C105.059 150.427 99.3178 150.842 93.2846 149.795C93.081 149.764 93.0775 149.634 93.2811 149.651Z" fill="#263238"/>
<path d="M92.2947 152.977C97.4534 153.233 100.74 152.738 106.061 151.712C106.092 151.712 106.11 151.755 106.078 151.765C100.154 153.57 97.7976 153.553 92.2596 153.17C92.07 153.142 92.091 152.97 92.2947 152.977Z" fill="#263238"/>
<path d="M50.7653 108.041L33.8142 120.181C33.8142 120.181 31.9249 98.9173 32.7607 89.9484C33.6457 80.6038 36.7606 78.9884 42.4285 90.0503C48.149 101.182 50.7653 108.041 50.7653 108.041Z" fill="#113025"/>
<path d="M37.5959 117.477L37.2974 117.688C36.7079 116.942 35.9076 116.392 35.0008 116.107C34.5034 115.952 33.9871 115.864 33.4662 115.848L33.4451 115.525C34.6881 115.534 35.8923 115.959 36.8655 116.733C37.1349 116.954 37.3798 117.203 37.5959 117.477ZM36.9357 86.3353C37.7013 85.8156 38.4388 85.2467 39.1657 84.6672C39.1165 84.5935 39.0568 84.5268 39.0041 84.4565C38.079 85.2469 37.0887 85.9576 36.0438 86.5811C35.1755 87.1069 34.1496 87.3096 33.1466 87.1535C33.1466 87.2343 33.115 87.3186 33.101 87.4029C33.2746 87.4397 33.4506 87.4643 33.6277 87.4766C34.8322 87.5433 35.956 86.9955 36.9357 86.3353ZM36.1351 96.9547C34.9603 96.6774 33.7391 96.6594 32.5566 96.902C32.5566 97.0179 32.5566 97.1303 32.5566 97.2532C33.0935 97.1387 33.6407 97.0799 34.1896 97.0776C36.1842 97.0565 38.3123 97.801 39.4571 99.5358C40.7495 101.485 40.3702 104.013 39.1938 105.92C37.7891 108.213 35.5451 109.347 33.0658 109.92L33.0869 110.271C35.5205 109.716 37.7329 108.631 39.2359 106.482C40.4404 104.758 41.0269 102.443 40.2894 100.421C39.5906 98.5876 37.9717 97.3972 36.1351 96.9547ZM44.3876 93.9135C42.8394 94.0753 41.2764 94.0257 39.7416 93.7661C37.2834 93.3447 34.9938 92.1823 32.676 91.1744L32.655 91.5993L33.5996 92.0242C35.8015 93.0216 38.0174 93.9416 40.4369 94.2436C41.8058 94.4093 43.1894 94.4151 44.5597 94.2612L44.3876 93.9135ZM50.6455 107.729C48.7632 106.496 46.3015 105.787 44.2436 107.026C42.3894 108.122 41.4167 110.341 41.3921 112.434C41.387 113.162 41.466 113.888 41.6274 114.597L41.9434 114.376C41.5572 112.812 41.6992 111.163 42.3473 109.688C42.8118 108.635 43.6054 107.762 44.6088 107.198C45.2043 106.912 45.8514 106.748 46.5115 106.718C47.1716 106.687 47.8311 106.789 48.4506 107.019C49.2363 107.281 49.9802 107.655 50.6595 108.129L50.7649 108.055C50.7649 108.055 50.7262 107.936 50.6455 107.729Z" fill="white"/>
<path d="M47.5343 105.941C47.0988 106.183 46.6915 106.489 46.2806 106.77L45.0093 107.633C44.149 108.216 43.3027 108.813 42.4563 109.417C40.7637 110.618 39.071 111.816 37.3995 113.045C36.9394 113.396 36.4829 113.723 36.0334 114.074C35.5839 114.425 35.1133 114.847 34.6287 115.212C34.5971 115.233 34.6287 115.275 34.6638 115.254C35.0923 114.969 35.5453 114.72 35.9737 114.436C36.4021 114.151 36.8516 113.849 37.2836 113.547C38.1334 112.953 38.9797 112.352 39.8225 111.746C41.4766 110.548 43.1376 109.358 44.767 108.129L46.1296 107.075C46.6072 106.724 47.1129 106.373 47.5343 105.972C47.5869 105.969 47.5624 105.927 47.5343 105.941Z" fill="#263238"/>
<path d="M45.7926 94.8155C45.7926 94.7734 45.7154 94.7944 45.7224 94.8366C45.8449 95.6374 46.0292 96.4276 46.2737 97.2C46.1122 96.8663 45.9577 96.5292 45.7926 96.1956C45.2624 95.121 44.7145 94.0535 44.1878 92.9789C44.1832 92.972 44.1763 92.967 44.1684 92.9648C44.1604 92.9625 44.1519 92.963 44.1444 92.9664C44.1368 92.9698 44.1307 92.9757 44.1271 92.9831C44.1235 92.9905 44.1226 92.999 44.1246 93.007C44.9147 94.9419 45.6276 96.9155 46.4774 98.8294C47.3273 100.743 48.1736 102.654 49.0515 104.553C49.5361 105.607 50.2139 106.857 50.702 107.904C50.263 108.325 49.6169 108.75 49.1358 109.196C49.0936 109.235 49.1604 109.298 49.2095 109.266C49.7679 108.869 50.5124 108.497 51.0602 108.023C51.1304 107.963 48.1385 101.123 46.6144 97.9163C46.3686 96.8593 46.1017 95.8199 45.7926 94.8155Z" fill="#263238"/>
<path d="M36.4477 118.456C35.9653 118.669 35.4962 118.91 35.043 119.18C34.6672 119.401 34.3161 119.654 33.9579 119.882C33.9579 119.278 33.8841 118.67 33.8455 118.07C33.7963 117.354 33.7483 116.637 33.7015 115.921C33.6067 114.488 33.5084 113.055 33.4206 111.622C33.3328 110.19 33.231 108.757 33.1467 107.321C33.0624 105.884 32.9992 104.452 32.8833 103.019C32.7534 101.407 32.634 99.7916 32.5111 98.1797C32.5111 98.1648 32.5051 98.1505 32.4946 98.14C32.4841 98.1294 32.4698 98.1235 32.4549 98.1235C32.44 98.1235 32.4257 98.1294 32.4151 98.14C32.4046 98.1505 32.3987 98.1648 32.3987 98.1797C32.38 99.6687 32.38 101.158 32.3987 102.647C32.181 101.793 31.893 100.954 31.7174 100.09C31.7151 100.076 31.7073 100.064 31.6958 100.055C31.6842 100.047 31.6699 100.044 31.656 100.046C31.642 100.049 31.6295 100.056 31.6213 100.068C31.613 100.079 31.6097 100.094 31.6121 100.108C31.6858 101.221 31.8509 102.411 32.4162 103.391C32.4443 104.553 32.4794 105.719 32.5391 106.885C32.6831 109.754 32.8587 112.62 33.1045 115.485C33.1748 116.29 33.245 117.094 33.3223 117.901C33.3995 118.709 33.4417 119.496 33.5927 120.272C33.602 120.302 33.619 120.33 33.6421 120.351C33.6652 120.373 33.6936 120.388 33.7244 120.396C33.7552 120.403 33.7875 120.403 33.8179 120.394C33.8484 120.385 33.8761 120.368 33.8982 120.346C34.297 119.993 34.7194 119.668 35.1624 119.373C35.5838 119.071 36.0157 118.783 36.4512 118.502C36.5179 118.498 36.4828 118.442 36.4477 118.456Z" fill="#263238"/>
<path d="M52.9037 82.5917C52.9353 83.4593 52.9212 84.3278 52.8615 85.1939C52.8319 85.9756 52.7284 86.7528 52.5525 87.5151C52.2014 88.8952 51.362 90.2332 49.8766 90.781C49.1862 91.006 48.4578 91.0908 47.7341 91.0305C47.0105 90.9702 46.3062 90.766 45.6625 90.4298C44.2895 89.7556 43.1517 88.6951 42.1017 87.6591C41.452 87.0165 40.8269 86.3492 40.237 85.6574C39.9385 85.3063 39.64 84.9551 39.359 84.6039C39.0781 84.2528 38.8147 83.863 38.5127 83.5153C38.4881 83.4872 38.4284 83.5153 38.4495 83.5504C39.0535 84.3827 40.9077 87.027 41.4801 87.6661C42.5336 88.8285 43.6925 90.0084 45.1253 90.788C46.5052 91.5889 48.1437 91.8183 49.6905 91.4272C50.4269 91.2157 51.0971 90.8195 51.6373 90.2762C52.1776 89.7328 52.57 89.0604 52.7773 88.3228C53.017 87.441 53.1258 86.5288 53.1003 85.6153C53.1003 84.6109 53.0406 83.6066 52.9564 82.6128C52.9248 82.5777 52.9037 82.5812 52.9037 82.5917Z" fill="#263238"/>
<path d="M48.3315 88.4594C44.9848 88.7895 40.0895 83.0936 38.432 78.7917C38.3196 78.4967 40.9393 67.6561 41.2413 65.4473C41.2975 64.9978 54.6174 70.6622 54.6174 70.6622C54.6174 70.6622 52.6368 75.0939 52.1593 78.9357C52.1031 79.2658 51.5623 88.1434 48.3315 88.4594Z" fill="#D3766A"/>
<path d="M54.6138 70.6693C54.6138 70.6693 52.6332 75.101 52.138 78.9428C52.138 79.0201 52.0924 79.575 52.0011 80.3791C45.5115 78.8902 41.8733 74.2969 40.0613 71.1012C40.6091 68.643 41.1148 66.3499 41.2272 65.4579C41.2974 65.0049 54.6138 70.6693 54.6138 70.6693Z" fill="#263238"/>
<path d="M54.1046 43.9174C54.9088 43.819 59.337 49.1568 59.7725 51.9486C60.2079 54.7404 60.0253 60.4539 59.2176 60.6717C58.41 60.8894 53.483 43.9946 54.1046 43.9174Z" fill="#263238"/>
<path d="M36.4163 51.857C35.0362 56.8331 38.0247 71.0309 41.6242 74.1212C46.8461 78.5951 55.204 78.8163 58.9685 72.5901C62.6137 66.557 58.3961 48.1206 54.4033 45.3358C48.4931 41.2306 38.4531 44.5 36.4163 51.857Z" fill="#D3766A"/>
<path d="M48.5597 57.2191C48.1795 57.4204 47.7892 57.6021 47.3903 57.7634C46.9373 57.9706 46.6002 58.1813 46.091 58.097C45.9491 58.0581 45.8242 57.9732 45.7359 57.8556C45.6475 57.738 45.6007 57.5944 45.6029 57.4474C45.6485 56.8188 46.1366 56.429 46.6564 56.1586C47.1848 55.8693 47.8023 55.7879 48.3876 55.9303C48.5226 55.9655 48.644 56.0401 48.7364 56.1446C48.8288 56.2491 48.888 56.3787 48.9064 56.5169C48.9249 56.6552 48.9018 56.7958 48.84 56.9208C48.7783 57.0459 48.6807 57.1497 48.5597 57.2191Z" fill="#263238"/>
<path d="M49.1042 60.3769C49.1042 60.3453 49.041 60.4402 49.055 60.4788C49.3219 61.4234 49.4729 62.5437 48.7039 63.0774C48.6793 63.0774 48.7039 63.1407 48.7249 63.1266C49.7223 62.7157 49.5116 61.2268 49.1042 60.3769Z" fill="#263238"/>
<path d="M48.0084 59.6001C46.4527 59.8669 47.1023 62.9572 48.5457 62.7114C49.989 62.4656 49.3112 59.3753 48.0084 59.6001Z" fill="#263238"/>
<path d="M54.5894 59.0844C54.5894 59.0458 54.6736 59.1125 54.6807 59.1511C54.8527 60.1168 55.2109 61.1914 56.145 61.3284C56.1731 61.3284 56.1802 61.381 56.145 61.381C55.0599 61.4548 54.5964 60.0255 54.5894 59.0844Z" fill="#263238"/>
<path d="M55.2357 57.9044C56.7492 57.4619 57.5218 60.5276 56.1171 60.935C54.7124 61.3423 53.9644 58.2731 55.2357 57.9044Z" fill="#263238"/>
<path d="M56.0081 55.8361C55.5754 55.8391 55.1428 55.8192 54.7122 55.7764C54.2136 55.7448 53.8168 55.7764 53.4024 55.4604C53.2949 55.3595 53.2239 55.2259 53.2004 55.0804C53.1769 54.935 53.2022 54.7858 53.2724 54.6562C53.6061 54.1189 54.2206 54.003 54.8211 54.0101C55.4262 54.003 56.0126 54.2193 56.4681 54.6176C56.571 54.7125 56.6432 54.8359 56.6755 54.9721C56.7078 55.1083 56.6986 55.2511 56.6491 55.382C56.5997 55.513 56.5123 55.6262 56.398 55.7071C56.2838 55.788 56.148 55.833 56.0081 55.8361Z" fill="#263238"/>
<path d="M50.1681 69.1806C50.442 69.3561 50.737 69.616 51.0917 69.5704C51.4455 69.4883 51.7781 69.3327 52.068 69.1138C52.0742 69.1095 52.0817 69.1072 52.0893 69.1074C52.0969 69.1077 52.1042 69.1104 52.1101 69.1151C52.1161 69.1199 52.1203 69.1264 52.1222 69.1338C52.1241 69.1412 52.1235 69.1489 52.1206 69.156C52.0226 69.3725 51.8683 69.5588 51.6737 69.6953C51.4791 69.8318 51.2514 69.9136 51.0144 69.9321C50.8074 69.9196 50.6087 69.8463 50.4431 69.7214C50.2776 69.5964 50.1526 69.4254 50.0838 69.2297C50.0558 69.2051 50.126 69.1806 50.1681 69.1806Z" fill="#263238"/>
<path d="M50.5647 66.1146C50.8879 66.4422 51.2752 66.6996 51.7024 66.8706C52.1296 67.0416 52.5876 67.1225 53.0475 67.1084C53.4491 67.1002 53.8476 67.0352 54.231 66.9153C54.3071 66.8986 54.3813 66.8739 54.4522 66.8415L54.6524 66.7643C54.7015 66.7444 54.7427 66.7089 54.7694 66.6631C54.7961 66.6173 54.8068 66.5639 54.7999 66.5114C54.7925 66.4777 54.7819 66.4448 54.7683 66.4131L54.7472 66.3288C54.6137 65.5878 54.3047 64.4817 54.3047 64.4817C54.6032 64.5624 56.1062 64.889 56.0044 64.5097C55.144 61.3492 54.1853 57.8586 52.6647 54.9088C52.6556 54.8876 52.6388 54.8706 52.6177 54.8613C52.5966 54.852 52.5727 54.851 52.5509 54.8586C52.5291 54.8661 52.511 54.8817 52.5002 54.9021C52.4894 54.9224 52.4867 54.9462 52.4927 54.9685C53.195 58.0272 54.4417 60.9383 55.2037 64.0041C54.7296 63.9268 53.95 63.7723 53.5672 63.8601C53.4689 63.9128 54.1994 65.9882 54.231 66.3183C54.2323 66.3299 54.2323 66.3417 54.231 66.3534C53.0229 66.7748 52.0116 66.5957 50.635 66.0022C50.5647 65.9706 50.4945 66.0514 50.5647 66.1146Z" fill="#263238"/>
<path d="M53.7253 66.6307C53.4323 67.2432 52.9859 67.7694 52.4295 68.1583C52.1169 68.3617 51.7486 68.4623 51.376 68.4463C50.5683 68.4077 50.4033 67.7088 50.4173 67.0802C50.426 66.7442 50.4756 66.4105 50.5648 66.0864C51.5328 66.6019 52.6407 66.7927 53.7253 66.6307Z" fill="#263238"/>
<path d="M52.4263 68.1581C52.1137 68.3615 51.7454 68.4621 51.3728 68.4461C50.5651 68.4075 50.4001 67.7087 50.4141 67.0801C51.2675 66.9888 52.1875 67.375 52.4263 68.1581Z" fill="#FF97B8"/>
<path d="M38.3829 64.2223C40.9605 64.0362 41.7506 61.0126 41.9824 56.918C42.1194 54.5265 40.7638 50.028 40.7638 50.028C40.7638 50.028 47.7451 52.0191 51.3727 51.0815C55.0003 50.1439 57.6306 46.4847 56.9914 43.6262C56.4471 41.168 51.752 38.6255 46.2175 39.2822C42.3546 39.7387 36.3847 43.8474 34.1934 48.4442C34.1934 48.4442 29.7441 51.5275 31.0504 55.0568C32.3568 58.586 35.4647 64.433 38.3829 64.2223Z" fill="#263238"/>
<path d="M38.516 63.9129C41.975 64.0815 42.9302 58.7577 42.5896 56.1204C42.2384 53.3813 40.7389 50.7932 39.8364 48.2086C39.8364 48.2086 39.8364 48.1875 39.8575 48.2086C41.5115 51.2532 43.3938 55.1407 42.8424 58.6945C42.4913 60.9315 41.501 64.6995 38.5055 64.1131C38.4036 64.0709 38.4071 63.9129 38.516 63.9129Z" fill="#263238"/>
<path d="M30.1444 54.0801C30.2532 51.7624 32.4516 49.1356 34.5129 48.2612C34.5305 48.2612 34.5445 48.2858 34.5129 48.2963C32.1004 49.6484 29.5965 53.0898 30.8678 55.836C31.8792 58.0308 33.4735 60.8823 35.3382 62.452C35.3874 62.4941 35.3382 62.5609 35.275 62.5258C33.8422 61.4933 33.0415 59.9727 32.139 58.4873C31.3664 57.2055 30.0706 55.6955 30.1444 54.0801Z" fill="#263238"/>
<path d="M33.7647 48.8757C36.0824 44.0471 41.8171 38.0596 47.6114 38.4881V38.5161C41.5467 38.5723 37.0201 44.486 33.993 49.0267C33.9017 49.1636 33.7085 49.0126 33.7647 48.8757Z" fill="#263238"/>
<path d="M40.03 64.1135C40.03 64.1135 36.6271 59.6221 34.5728 60.8512C32.5184 62.0803 35.2014 68.6752 37.6947 69.497C38.0071 69.6245 38.3421 69.6875 38.6795 69.6823C39.0169 69.677 39.3497 69.6037 39.658 69.4666C39.9663 69.3295 40.2438 69.1314 40.4736 68.8844C40.7035 68.6374 40.8811 68.3465 40.9957 68.0291L40.03 64.1135Z" fill="#D3766A"/>
<path d="M35.3838 62.7227C35.3452 62.7227 35.3417 62.7753 35.3838 62.7894C37.1397 63.4215 38.1054 64.9842 38.8007 66.6171C38.2669 65.9991 37.5541 65.676 36.7218 66.3186C36.6761 66.3538 36.7218 66.4205 36.7709 66.4099C37.0701 66.3009 37.3958 66.2876 37.7028 66.3719C38.0099 66.4562 38.2831 66.634 38.4847 66.8805C38.8197 67.2943 39.1093 67.7429 39.3485 68.2185C39.4328 68.3695 39.6997 68.2782 39.6435 68.1026C39.6435 68.1026 39.6435 68.0745 39.6435 68.064C39.5803 65.8656 37.7542 62.8596 35.3838 62.7227Z" fill="#263238"/>
<path d="M144.328 125.849C139.685 132.138 134.846 139.436 133.663 147.323C133.663 147.442 133.842 147.481 133.87 147.365C134.402 145.212 135.088 143.1 135.921 141.044C138.976 140.205 141.971 139.516 143.576 136.479C145.209 133.364 145.002 129.301 144.693 125.909C144.654 125.737 144.405 125.719 144.328 125.849Z" fill="#113025"/>
<path d="M135.952 140.991C138.038 136.306 140.714 131.608 144.121 127.759C144.142 127.731 144.177 127.759 144.156 127.794C141.929 130.537 140.233 133.522 138.579 136.573C140.117 135.014 141.803 133.617 143.26 131.959C143.288 131.927 143.334 131.959 143.306 132.008C141.859 133.743 140.279 135.629 138.389 136.925C137.884 137.861 137.373 138.797 136.858 139.734C136.985 139.664 137.115 139.6 137.245 139.534C137.269 139.534 137.287 139.558 137.266 139.569C137.122 139.643 136.978 139.72 136.83 139.78C136.588 140.222 136.346 140.668 136.093 141.107C136.044 141.17 135.9 141.089 135.952 140.991Z" fill="#263238"/>
<path d="M137.504 139.355C138.752 138.657 139.944 137.862 141.069 136.978C141.097 136.953 141.142 136.995 141.111 137.02C140.022 137.962 138.828 138.775 137.553 139.443C137.542 139.449 137.528 139.451 137.515 139.447C137.502 139.444 137.491 139.435 137.485 139.424C137.478 139.412 137.477 139.398 137.48 139.385C137.484 139.372 137.493 139.362 137.504 139.355Z" fill="#263238"/>
<path d="M133.107 146.153C133.112 146.173 133.122 146.191 133.138 146.204C133.154 146.217 133.173 146.224 133.194 146.224C133.214 146.224 133.233 146.217 133.249 146.204C133.265 146.191 133.276 146.173 133.28 146.153C133.304 143.558 133.28 140.949 133.318 138.34C133.985 136.995 135.425 136.254 136.405 135.179C137.12 134.395 137.743 133.53 138.259 132.602C139.455 130.384 140.187 127.945 140.408 125.434C140.682 122.657 139.629 113.495 138.456 113.807C137.848 113.972 135.885 118.513 135.362 120.016C134.517 122.491 133.899 125.038 133.515 127.626C132.567 133.725 132.644 140.001 133.107 146.153Z" fill="#113025"/>
<path d="M133.09 134.947C133.234 131.661 133.975 128.342 134.667 125.153C135.415 121.719 136.286 118.481 138.052 115.422C138.06 115.414 138.071 115.409 138.083 115.407C138.095 115.406 138.107 115.408 138.117 115.414C138.127 115.42 138.135 115.43 138.139 115.441C138.143 115.452 138.143 115.464 138.14 115.475C136.962 117.857 136.05 120.362 135.422 122.944C135.538 122.758 135.682 122.593 135.805 122.407C135.854 122.34 135.97 122.407 135.921 122.474C135.764 122.752 135.579 123.013 135.369 123.254C135.361 123.256 135.353 123.256 135.345 123.254C134.737 125.712 134.291 128.219 133.94 130.723L134.024 130.628C134.028 130.625 134.034 130.622 134.039 130.622C134.045 130.622 134.05 130.624 134.055 130.627C134.059 130.63 134.062 130.635 134.064 130.64C134.065 130.645 134.065 130.651 134.063 130.656C134.017 130.74 133.965 130.821 133.912 130.906C133.726 132.177 133.561 133.444 133.375 134.702C135.64 132.767 137.571 130.488 138.663 127.678C138.663 127.678 138.688 127.678 138.684 127.678C137.613 130.593 135.931 133.181 133.339 134.951C133.29 135.302 133.245 135.629 133.195 135.966C133.195 136.036 133.076 136.015 133.076 135.948C133.076 135.65 133.076 135.348 133.101 135.049C133.093 135.043 133.087 135.036 133.082 135.028C133.077 135.019 133.074 135.01 133.073 135.001C133.072 134.991 133.073 134.981 133.076 134.972C133.079 134.963 133.084 134.955 133.09 134.947Z" fill="#263238"/>
<path d="M134.144 130.186C135.871 127.605 137.487 125.097 138.754 122.242C138.754 122.211 138.821 122.242 138.811 122.267C137.757 125.101 136.251 127.973 134.228 130.252C134.203 130.284 134.123 130.238 134.144 130.186Z" fill="#263238"/>
<path d="M136.454 121.606C137.156 120.338 137.926 119.102 138.6 117.81C138.621 117.775 138.67 117.81 138.656 117.842C138.095 119.191 137.389 120.474 136.549 121.669C136.517 121.736 136.412 121.68 136.454 121.606Z" fill="#263238"/>
<path d="M131.352 138.638C131.315 140.361 131.112 142.075 130.744 143.758C130.772 143.941 130.797 144.127 130.825 144.317C131.354 142.459 131.66 140.544 131.738 138.614C131.754 138.587 131.762 138.557 131.762 138.526C131.762 138.495 131.754 138.465 131.738 138.438C131.813 135.85 131.62 133.261 131.162 130.712C130.358 125.94 128.602 121.357 125.273 117.782C125.246 117.761 125.215 117.747 125.181 117.739C125.148 117.731 125.114 117.731 125.08 117.738C125.047 117.745 125.015 117.759 124.988 117.78C124.961 117.8 124.938 117.826 124.922 117.856C123.58 121.273 124.047 125.35 125.192 128.742C125.809 130.589 126.696 132.334 127.822 133.922C128.967 135.527 130.425 136.886 131.352 138.638Z" fill="#113025"/>
<path d="M125.677 119.37C128.837 124.49 131.029 130.562 131.296 136.609C131.296 136.718 131.12 136.746 131.106 136.637C131.029 136.093 130.948 135.552 130.86 135.018C129.554 133.768 128.212 132.451 127.278 130.888C127.261 130.86 127.303 130.829 127.324 130.853C128.407 132.182 129.568 133.445 130.8 134.635C130.576 133.301 130.309 131.984 129.989 130.688L129.74 130.393C129.687 130.33 129.779 130.235 129.835 130.298L129.908 130.383C129.465 128.606 128.915 126.857 128.261 125.147C127.457 124.188 126.558 123.359 125.975 122.208C125.975 122.179 125.996 122.158 126.017 122.183C126.488 122.843 126.941 123.507 127.475 124.118C127.689 124.364 127.921 124.592 128.142 124.82C127.414 122.965 126.55 121.165 125.557 119.437C125.553 119.422 125.554 119.405 125.56 119.391C125.566 119.376 125.577 119.364 125.591 119.356C125.604 119.348 125.621 119.346 125.636 119.348C125.652 119.351 125.666 119.358 125.677 119.37Z" fill="#263238"/>
<path d="M126.316 125.687C127.334 127.057 128.497 128.367 129.445 129.785C129.473 129.827 129.413 129.87 129.378 129.838C128.174 128.693 127.12 127.123 126.246 125.719C126.218 125.68 126.284 125.645 126.316 125.687Z" fill="#263238"/>
<path d="M129.579 130.105L129.621 130.147C129.652 130.179 129.621 130.224 129.575 130.193L129.529 130.15C129.526 130.144 129.525 130.136 129.526 130.129C129.528 130.121 129.532 130.115 129.537 130.109C129.543 130.104 129.55 130.101 129.557 130.1C129.564 130.099 129.572 130.101 129.579 130.105Z" fill="#263238"/>
<path d="M120.732 129.23C120.989 131.864 122.372 135.011 124.061 137.04C124.805 137.923 125.725 138.641 126.762 139.147C127.931 139.727 129.157 140.394 130.365 140.868C130.94 142.332 131.369 143.849 131.643 145.398C131.682 145.268 131.721 145.131 131.759 144.998C130.983 138.326 126.667 132.626 121.147 128.967C121.103 128.939 121.053 128.924 121.001 128.924C120.95 128.924 120.899 128.938 120.855 128.966C120.812 128.994 120.777 129.033 120.755 129.08C120.733 129.127 120.726 129.179 120.732 129.23Z" fill="#113025"/>
<path d="M122.643 131.183C122.604 131.148 122.643 131.078 122.699 131.11C125.727 133.368 128.142 136.349 129.723 139.78C129.761 139.871 129.638 139.952 129.586 139.861C129.329 139.411 129.066 138.972 128.799 138.544C127.538 138.309 126.341 137.42 125.41 136.577C125.386 136.556 125.41 136.518 125.449 136.542C125.934 136.979 126.472 137.354 127.05 137.659C127.563 137.919 128.104 138.084 128.652 138.291C128.185 137.55 127.696 136.841 127.191 136.149C125.828 135.633 124.551 134.915 123.402 134.021C123.366 133.996 123.402 133.936 123.437 133.961C124.574 134.649 125.746 135.277 126.948 135.843C126.18 134.828 125.349 133.86 124.462 132.946C124.034 132.718 123.598 132.49 123.184 132.244C123.152 132.223 123.184 132.167 123.212 132.177C123.556 132.299 123.885 132.461 124.192 132.658C123.704 132.167 123.191 131.668 122.643 131.183Z" fill="#263238"/>
<path d="M122.759 133.486C122.833 133.531 122.904 133.581 122.969 133.637C122.99 133.655 122.969 133.683 122.945 133.672C122.867 133.637 122.793 133.595 122.724 133.546C122.685 133.521 122.72 133.462 122.759 133.486Z" fill="#263238"/>
<path d="M140.373 159.828H125.249L126.467 146.048L126.737 143.01H138.884L139.155 146.048L140.373 159.828Z" fill="#455A64"/>
<path d="M139.155 146.048H126.467L126.737 143.01H138.884L139.155 146.048Z" fill="#263238"/>
<path d="M139.611 140.886H126.014V143.892H139.611V140.886Z" fill="#455A64"/>
<path d="M109.337 30.6573C109.192 29.5473 109.113 28.4298 109.098 27.3106C109.07 26.1926 109.109 25.0739 109.214 23.9604C109.359 25.0703 109.437 26.1879 109.449 27.3071C109.476 28.4251 109.439 29.5436 109.337 30.6573Z" fill="#A6A6A6"/>
<path d="M94.0504 34.9202C93.3698 34.0321 92.7425 33.1046 92.1716 32.1424C91.5901 31.1883 91.0648 30.201 90.5984 29.1855C91.2787 30.0705 91.9049 30.9958 92.4736 31.9563C93.058 32.9118 93.5845 33.9016 94.0504 34.9202Z" fill="#A6A6A6"/>
<path d="M82.9462 46.2564C81.9128 45.8281 80.9055 45.3391 79.9297 44.7921C78.9467 44.2574 77.9968 43.664 77.0852 43.0151C78.1184 43.4455 79.1256 43.9356 80.1018 44.483C81.084 45.0177 82.0338 45.6099 82.9462 46.2564Z" fill="#A6A6A6"/>
<path d="M79.0097 61.6271C77.9009 61.7714 76.7846 61.8511 75.6666 61.8659C74.5485 61.894 73.4298 61.8553 72.3164 61.75C74.5372 61.4774 76.7804 61.4362 79.0097 61.6271Z" fill="#A6A6A6"/>
<path d="M83.2625 76.9062C82.3739 77.5849 81.4464 78.211 80.4848 78.7815C79.5307 79.3663 78.5421 79.8929 77.5244 80.3582C78.4122 79.6784 79.3398 79.0523 80.3022 78.483C81.2563 77.8982 82.2449 77.3716 83.2625 76.9062Z" fill="#A6A6A6"/>
<path d="M136.356 76.3652C138.42 77.2342 140.386 78.3208 142.221 79.6065C140.16 78.7316 138.196 77.6453 136.359 76.3652H136.356Z" fill="#A6A6A6"/>
<path d="M140.307 60.9943C141.415 60.8496 142.532 60.771 143.65 60.759C144.768 60.7281 145.887 60.7656 147 60.8714C145.891 61.0163 144.775 61.0949 143.657 61.1067C142.539 61.1377 141.42 61.1001 140.307 60.9943Z" fill="#A6A6A6"/>
<path d="M136.043 45.7083C136.93 45.029 137.857 44.4028 138.818 43.8331C139.772 43.2483 140.76 42.7217 141.778 42.2563C140.891 42.9369 139.963 43.5632 139 44.1316C138.047 44.7157 137.06 45.2422 136.043 45.7083Z" fill="#A6A6A6"/>
<path d="M124.704 34.6047C125.136 33.5778 125.626 32.5765 126.172 31.6057C126.706 30.623 127.298 29.6732 127.945 28.7612C127.517 29.7935 127.028 30.7996 126.481 31.7743C125.945 32.7517 125.351 33.6968 124.704 34.6047Z" fill="#A6A6A6"/>
<path d="M79.0588 40.9007L81.9911 40.3564L82.6478 37.2661L83.3045 40.3564L86.2368 40.9007L83.315 41.6171L82.6478 44.5353L81.9806 41.6171L79.0588 40.9007Z" fill="#113025"/>
<path d="M126.327 92.3119L129.259 91.771L129.916 88.6772L130.569 91.771L133.505 92.3154L130.583 93.0282L129.916 95.95L129.248 93.0282L126.327 92.3119Z" fill="#113025"/>
<path d="M87.4692 85.8261L89.1092 85.5241L89.4744 83.7964L89.8432 85.5241L91.4831 85.8261L89.8502 86.2265L89.4744 87.8594L89.1022 86.2265L87.4692 85.8261Z" fill="#113025"/>
<path d="M96.3928 32.9156L98.0293 32.6101L98.398 30.8823L98.7632 32.6101L100.403 32.9156L98.7702 33.3124L98.398 34.9454L98.0223 33.3124L96.3928 32.9156Z" fill="#113025"/>
<path d="M89.4748 93.9063C89.5939 93.896 89.7049 93.8414 89.7857 93.7533C89.8666 93.6652 89.9114 93.55 89.9114 93.4304C89.9114 93.3108 89.8666 93.1956 89.7857 93.1075C89.7049 93.0194 89.5939 92.9648 89.4748 92.9546C89.3556 92.9648 89.2446 93.0194 89.1638 93.1075C89.0829 93.1956 89.0381 93.3108 89.0381 93.4304C89.0381 93.55 89.0829 93.6652 89.1638 93.7533C89.2446 93.8414 89.3556 93.896 89.4748 93.9063Z" fill="#113025"/>
<path d="M135.734 87.8593C135.807 87.838 135.871 87.7937 135.917 87.7329C135.962 87.6721 135.987 87.5982 135.987 87.5222C135.987 87.4462 135.962 87.3723 135.917 87.3115C135.871 87.2507 135.807 87.2063 135.734 87.1851C135.661 87.2063 135.597 87.2507 135.552 87.3115C135.506 87.3723 135.481 87.4462 135.481 87.5222C135.481 87.5982 135.506 87.6721 135.552 87.7329C135.597 87.7937 135.661 87.838 135.734 87.8593Z" fill="#113025"/>
<path d="M87.6943 43.9593C87.7658 43.9371 87.8284 43.8925 87.8729 43.8322C87.9173 43.7719 87.9413 43.6989 87.9413 43.6239C87.9413 43.549 87.9173 43.476 87.8729 43.4157C87.8284 43.3553 87.7658 43.3108 87.6943 43.2886C87.6227 43.3108 87.5601 43.3553 87.5157 43.4157C87.4712 43.476 87.4473 43.549 87.4473 43.6239C87.4473 43.6989 87.4712 43.7719 87.5157 43.8322C87.5601 43.8925 87.6227 43.9371 87.6943 43.9593Z" fill="#113025"/>
<path d="M142.547 49.0727C142.62 49.0514 142.684 49.007 142.73 48.9463C142.775 48.8855 142.8 48.8115 142.8 48.7356C142.8 48.6596 142.775 48.5856 142.73 48.5249C142.684 48.4641 142.62 48.4197 142.547 48.3984C142.474 48.4197 142.41 48.4641 142.365 48.5249C142.319 48.5856 142.294 48.6596 142.294 48.7356C142.294 48.8115 142.319 48.8855 142.365 48.9463C142.41 49.007 142.474 49.0514 142.547 49.0727Z" fill="#113025"/>
<path d="M138.242 52.1629C139.415 52.1629 139.415 50.3403 138.242 50.3403C137.069 50.3403 137.065 52.1629 138.242 52.1629Z" fill="#113025"/>
<g opacity="0.5">
<path d="M135.668 62.8594C134.375 79.0132 120.919 83.8839 120.919 83.8839C119.928 86.3421 118.639 92.5894 118.639 92.5894H100.667C100.667 92.5894 99.3777 86.3421 98.3874 83.8839C98.3874 83.8839 84.927 79.0132 83.6382 62.8594C82.7427 51.622 90.7354 35.0362 109.555 35.0327H109.748C128.567 35.0503 136.563 51.6466 135.668 62.8594Z" fill="#FFD500"/>
</g>
<g opacity="0.7">
<path d="M133.441 62.9546C132.265 77.7319 119.953 82.1742 119.953 82.1742C119.047 84.4217 117.87 92.5934 117.87 92.5934H101.436C101.436 92.5934 100.256 84.4217 99.3497 82.1742C99.3497 82.1742 87.0376 77.7213 85.8577 62.9441C85.0394 52.6759 92.3543 37.5089 109.562 37.5054H109.741C126.952 37.5089 134.267 52.6759 133.441 62.9546Z" fill="#FFD500"/>
</g>
<path d="M100.523 65.7343L99.4873 65.9277L104.771 94.2169L105.807 94.0234L100.523 65.7343Z" fill="white"/>
<path d="M118.775 65.735L113.511 94.0278L114.546 94.2205L119.811 65.9277L118.775 65.735Z" fill="white"/>
<path d="M109.653 75.1926C108.045 75.1926 106.57 73.6896 105.534 71.7687C105.357 72.0136 105.129 72.2175 104.866 72.3665C104.603 72.5156 104.311 72.6063 104.01 72.6326C101.386 72.6326 100.326 67.1824 100.28 66.9506L100.631 66.8874C100.631 66.9401 101.685 72.2814 104.013 72.2814C104.477 72.2814 104.944 71.9583 105.369 71.4386C104.562 69.8752 104.109 68.1537 104.041 66.3958C104.041 64.8893 104.6 64.0254 105.579 64.0254C106.721 64.0254 107.374 64.9455 107.374 66.5468C107.317 68.3027 106.766 70.007 105.783 71.4632C106.763 73.3454 108.161 74.8449 109.646 74.8449C110.77 74.8449 111.893 73.967 112.807 72.3867C112.887 72.2428 112.968 72.0953 113.045 71.9443C111.992 70.8135 111.405 68.9593 111.405 67.1929C111.405 65.251 112.129 64.0324 113.291 64.0324C113.515 64.0321 113.734 64.094 113.924 64.2112C114.115 64.3284 114.269 64.4963 114.369 64.6961C115.156 66.0551 114.72 69.321 113.467 71.8775C113.956 72.3704 114.62 72.6495 115.314 72.6536C117.316 72.6536 118.826 67.2807 118.847 67.2281L119.198 67.3229C119.131 67.5546 117.593 73.0048 115.335 73.0048C114.587 72.9978 113.87 72.7065 113.33 72.1901L113.13 72.5413C112.427 73.7458 111.261 75.1926 109.653 75.1926ZM113.309 64.3766C112.174 64.3766 111.774 65.8831 111.774 67.1859C111.774 68.5906 112.245 70.4658 113.224 71.6071C114.366 69.1876 114.794 66.1043 114.085 64.8752C114.017 64.7265 113.908 64.6004 113.77 64.512C113.632 64.4236 113.472 64.3766 113.309 64.3766ZM105.583 64.3766C104.551 64.3766 104.396 65.6408 104.396 66.3958C104.464 68.0374 104.88 69.646 105.615 71.1155C106.49 69.7503 106.976 68.1716 107.019 66.5503C107.019 65.7356 106.83 64.3766 105.576 64.3766H105.583Z" fill="white"/>
<path d="M120.908 92.6245H98.3977V105.014H120.908V92.6245Z" fill="#455A64"/>
<path d="M118.341 105C117.017 107.349 114.478 109.449 109.639 109.449C104.8 109.449 102.264 107.342 100.933 105H118.341Z" fill="#455A64"/>
<path d="M118.341 105C117.947 105.702 117.456 106.344 116.88 106.907L101.386 105.716C101.223 105.49 101.072 105.256 100.933 105.014L118.341 105Z" fill="#37474F"/>
<path d="M121.565 94.9878L97.7375 97.1897V96.1081L121.565 93.9062V94.9878Z" fill="#37474F"/>
<path d="M121.565 98.2574L97.7375 100.459V99.3811L121.565 97.1758V98.2574Z" fill="#37474F"/>
<path d="M121.565 101.527L97.7375 103.729V102.651L121.565 100.445V101.527Z" fill="#37474F"/>
<g opacity="0.5">
<path d="M89.3062 59.0985C90.1315 59.2354 91.2025 54.9757 95.7818 50.0453C97.8151 47.8575 105.534 45.1289 104.979 42.59C104.424 40.051 97.5377 42.6602 94.0716 46.6741C88.4915 53.1321 88.5477 58.9685 89.3062 59.0985Z" fill="white"/>
<path d="M129.93 59.9834C131.447 59.9834 131.45 57.6235 129.93 57.6235C128.409 57.6235 128.395 59.9834 129.93 59.9834Z" fill="white"/>
<path d="M122.488 77.7243C123.317 78.3599 127.345 74.641 129.161 70.2057C130.671 66.5255 130.916 61.8725 129.916 61.6021C128.915 61.3317 128.244 67.7159 127.025 70.0688C125.487 73.0432 121.6 77.05 122.488 77.7243Z" fill="white"/>
</g>
</svg>
