<svg width="56" height="56" viewBox="0 0 56 56" fill="none" xmlns="http://www.w3.org/2000/svg">
<rect width="56" height="56" rx="8" fill="white"/>
<path d="M17.3335 35.9747V24.9437C17.3335 20.0992 17.3335 17.677 18.8956 16.172C20.4577 14.667 22.9718 14.667 28.0002 14.667C33.0284 14.667 35.5427 14.667 37.1047 16.172C38.6668 17.677 38.6668 20.0992 38.6668 24.9437V35.9747C38.6668 39.0493 38.6668 40.5865 37.6364 41.1367C35.6408 42.2022 31.8978 38.6473 30.1202 37.5769C29.0892 36.9561 28.5738 36.6457 28.0002 36.6457C27.4266 36.6457 26.9111 36.9561 25.8802 37.5769C24.1026 38.6473 20.3595 42.2022 18.364 41.1367C17.3335 40.5865 17.3335 39.0493 17.3335 35.9747Z" stroke="#16B364" stroke-width="2" stroke-linecap="round" stroke-linejoin="round"/>
<path d="M25.3335 30.2861C25.3335 30.2861 26.6668 30.9813 27.3335 32.0003C27.3335 32.0003 29.3335 28.0003 32.0002 26.667" stroke="#16B364" stroke-width="2" stroke-linecap="round" stroke-linejoin="round"/>
<path d="M17.3335 21.333H38.6668" stroke="#16B364" stroke-width="2"/>
</svg>
