<svg width="56" height="56" viewBox="0 0 56 56" fill="none" xmlns="http://www.w3.org/2000/svg">
<rect width="56" height="56" rx="8" fill="white"/>
<path d="M32.6667 21.333H23.3333M28.6653 26.6663H23.332" stroke="#EF6820" stroke-width="2" stroke-linecap="round" stroke-linejoin="round"/>
<path d="M38.6668 41.3337H20.0002C18.5274 41.3337 17.3335 40.1398 17.3335 38.667M17.3335 38.667C17.3335 37.1942 18.5274 36.0003 20.0002 36.0003H38.6668V20.0003C38.6668 17.4862 38.6668 16.2291 37.8858 15.448C37.1047 14.667 35.8476 14.667 33.3335 14.667H25.3335C21.5623 14.667 19.6766 14.667 18.5051 15.8386C17.3335 17.0101 17.3335 18.8958 17.3335 22.667V38.667Z" stroke="#EF6820" stroke-width="2" stroke-linecap="round" stroke-linejoin="round"/>
<path d="M38.0001 36C38.0001 36 36.6667 37.0171 36.6667 38.6667C36.6667 40.3163 38.0001 41.3333 38.0001 41.3333" stroke="#EF6820" stroke-width="2" stroke-linecap="round" stroke-linejoin="round"/>
</svg>
