<svg width="56" height="56" viewBox="0 0 56 56" fill="none" xmlns="http://www.w3.org/2000/svg">
<rect width="56" height="56" rx="8" fill="white"/>
<path d="M35.3407 14.692C29.1052 15.7797 28 22.0003 28 22.0003V41.3337C28 41.3337 29.1823 34.8366 36.0005 34.0787C36.7324 33.9974 37.3333 33.4105 37.3333 32.6747V16.5244C37.3333 15.4209 36.4288 14.5022 35.3407 14.692Z" stroke="#1095FF" stroke-width="2" stroke-linecap="round" stroke-linejoin="round"/>
<path d="M19.1109 18.667C22.3916 18.6624 25.5578 19.8498 27.9998 22.0003V41.3337C25.5578 39.1831 22.3916 37.9958 19.1109 38.0003C17.0283 38.0003 15.9869 38.0003 15.5269 37.7059C15.2506 37.5291 15.1378 37.4162 14.961 37.1399C14.6665 36.6799 14.6665 35.8591 14.6665 34.2175V23.2046C14.6665 21.3009 14.6665 20.349 15.3982 19.5775C16.1298 18.8059 16.8788 18.7661 18.3768 18.6865C18.6198 18.6735 18.8646 18.667 19.1109 18.667Z" stroke="#1095FF" stroke-width="2" stroke-linecap="round" stroke-linejoin="round"/>
<path d="M28 41.335C30.442 39.1845 33.6083 37.9971 36.8889 38.0017C38.9716 38.0017 40.0129 38.0017 40.4729 37.7073C40.7492 37.5305 40.862 37.4175 41.0388 37.1414C41.3333 36.6813 41.3333 35.8605 41.3333 34.2189V23.206C41.3333 21.3023 41.3333 20.3504 40.6017 19.5788C39.87 18.8073 38.8313 18.7466 37.3333 18.667" stroke="#1095FF" stroke-width="2" stroke-linecap="round" stroke-linejoin="round"/>
</svg>
