<svg width="31" height="35" viewBox="0 0 31 35" fill="none" xmlns="http://www.w3.org/2000/svg">
<path d="M27.6238 34.0325H2.43089C1.08835 34.0325 0 32.9442 0 31.6016V2.43089C0 1.08835 1.08835 0 2.43089 0H18.7842L30.0547 11.2705V31.6016C30.0547 32.9442 28.9663 34.0325 27.6238 34.0325Z" fill="url(#paint0_linear_2294_7851)"/>
<mask id="path-2-outside-1_2294_7851" maskUnits="userSpaceOnUse" x="6.83057" y="18.3438" width="17" height="7" fill="black">
<rect fill="white" x="6.83057" y="18.3438" width="17" height="7"/>
<path d="M7.9272 22.2826V21.6422H9.56014C9.97371 21.6422 10.2939 21.5355 10.5207 21.322C10.7475 21.1059 10.8609 20.8084 10.8609 20.4295V20.4215C10.8609 20.0399 10.7475 19.7424 10.5207 19.529C10.2939 19.3155 9.97371 19.2088 9.56014 19.2088H7.9272V18.5684H9.74425C10.1071 18.5684 10.4273 18.6458 10.7048 18.8005C10.9823 18.9553 11.1998 19.1714 11.3572 19.4489C11.5173 19.7264 11.5973 20.0479 11.5973 20.4135V20.4215C11.5973 20.787 11.5173 21.1099 11.3572 21.39C11.1998 21.6702 10.9823 21.889 10.7048 22.0464C10.4273 22.2038 10.1071 22.2826 9.74425 22.2826H7.9272ZM7.56699 24.3438V18.5684H8.28741V24.3438H7.56699ZM13.3518 24.3438V18.5684H15.3329C15.9039 18.5684 16.3922 18.6831 16.7978 18.9126C17.206 19.1394 17.5182 19.4676 17.7343 19.8972C17.9504 20.3268 18.0585 20.8444 18.0585 21.4501V21.4581C18.0585 22.0638 17.9504 22.5827 17.7343 23.015C17.5182 23.4446 17.2073 23.7741 16.8018 24.0036C16.3962 24.2304 15.9066 24.3438 15.3329 24.3438H13.3518ZM14.0722 23.6954H15.2849C15.7145 23.6954 16.0813 23.6073 16.3855 23.4312C16.6897 23.2551 16.9218 23.0003 17.0819 22.6668C17.242 22.3333 17.3221 21.933 17.3221 21.4661V21.4581C17.3221 20.9885 17.2407 20.5869 17.0779 20.2534C16.9178 19.9172 16.6857 19.661 16.3815 19.4849C16.0773 19.3062 15.7118 19.2168 15.2849 19.2168H14.0722V23.6954ZM19.881 24.3438V18.5684H23.387V19.2168H20.6014V21.2019H23.1589V21.8423H20.6014V24.3438H19.881Z"/>
</mask>
<path d="M7.9272 22.2826V21.6422H9.56014C9.97371 21.6422 10.2939 21.5355 10.5207 21.322C10.7475 21.1059 10.8609 20.8084 10.8609 20.4295V20.4215C10.8609 20.0399 10.7475 19.7424 10.5207 19.529C10.2939 19.3155 9.97371 19.2088 9.56014 19.2088H7.9272V18.5684H9.74425C10.1071 18.5684 10.4273 18.6458 10.7048 18.8005C10.9823 18.9553 11.1998 19.1714 11.3572 19.4489C11.5173 19.7264 11.5973 20.0479 11.5973 20.4135V20.4215C11.5973 20.787 11.5173 21.1099 11.3572 21.39C11.1998 21.6702 10.9823 21.889 10.7048 22.0464C10.4273 22.2038 10.1071 22.2826 9.74425 22.2826H7.9272ZM7.56699 24.3438V18.5684H8.28741V24.3438H7.56699ZM13.3518 24.3438V18.5684H15.3329C15.9039 18.5684 16.3922 18.6831 16.7978 18.9126C17.206 19.1394 17.5182 19.4676 17.7343 19.8972C17.9504 20.3268 18.0585 20.8444 18.0585 21.4501V21.4581C18.0585 22.0638 17.9504 22.5827 17.7343 23.015C17.5182 23.4446 17.2073 23.7741 16.8018 24.0036C16.3962 24.2304 15.9066 24.3438 15.3329 24.3438H13.3518ZM14.0722 23.6954H15.2849C15.7145 23.6954 16.0813 23.6073 16.3855 23.4312C16.6897 23.2551 16.9218 23.0003 17.0819 22.6668C17.242 22.3333 17.3221 21.933 17.3221 21.4661V21.4581C17.3221 20.9885 17.2407 20.5869 17.0779 20.2534C16.9178 19.9172 16.6857 19.661 16.3815 19.4849C16.0773 19.3062 15.7118 19.2168 15.2849 19.2168H14.0722V23.6954ZM19.881 24.3438V18.5684H23.387V19.2168H20.6014V21.2019H23.1589V21.8423H20.6014V24.3438H19.881Z" fill="white"/>
<path d="M7.9272 22.2826H7.70621V22.5036H7.9272V22.2826ZM7.9272 21.6422V21.4212H7.70621V21.6422H7.9272ZM10.5207 21.322L10.6722 21.4829L10.6732 21.482L10.5207 21.322ZM7.9272 19.2088H7.70621V19.4298H7.9272V19.2088ZM7.9272 18.5684V18.3474H7.70621V18.5684H7.9272ZM11.3572 19.4489L11.165 19.558L11.1658 19.5594L11.3572 19.4489ZM11.3572 21.39L11.1653 21.2804L11.1645 21.2818L11.3572 21.39ZM10.7048 22.0464L10.8138 22.2386L10.7048 22.0464ZM7.56699 24.3438H7.346V24.5647H7.56699V24.3438ZM7.56699 18.5684V18.3474H7.346V18.5684H7.56699ZM8.28741 18.5684H8.5084V18.3474H8.28741V18.5684ZM8.28741 24.3438V24.5647H8.5084V24.3438H8.28741ZM7.9272 22.2826H8.14819V21.6422H7.9272H7.70621V22.2826H7.9272ZM7.9272 21.6422V21.8632H9.56014V21.6422V21.4212H7.9272V21.6422ZM9.56014 21.6422V21.8632C10.0111 21.8632 10.3924 21.7462 10.6722 21.4829L10.5207 21.322L10.3692 21.1611C10.1954 21.3247 9.93634 21.4212 9.56014 21.4212V21.6422ZM10.5207 21.322L10.6732 21.482C10.9527 21.2156 11.0819 20.8552 11.0819 20.4295H10.8609H10.6399C10.6399 20.7615 10.5423 20.9962 10.3682 21.162L10.5207 21.322ZM10.8609 20.4295H11.0819V20.4215H10.8609H10.6399V20.4295H10.8609ZM10.8609 20.4215H11.0819C11.0819 19.9937 10.953 19.6324 10.6722 19.368L10.5207 19.529L10.3692 19.6899C10.542 19.8525 10.6399 20.0861 10.6399 20.4215H10.8609ZM10.5207 19.529L10.6722 19.368C10.3924 19.1047 10.0111 18.9878 9.56014 18.9878V19.2088V19.4298C9.93634 19.4298 10.1954 19.5263 10.3692 19.6899L10.5207 19.529ZM9.56014 19.2088V18.9878H7.9272V19.2088V19.4298H9.56014V19.2088ZM7.9272 19.2088H8.14819V18.5684H7.9272H7.70621V19.2088H7.9272ZM7.9272 18.5684V18.7894H9.74425V18.5684V18.3474H7.9272V18.5684ZM9.74425 18.5684V18.7894C10.0749 18.7894 10.357 18.8596 10.5972 18.9936L10.7048 18.8005L10.8124 18.6075C10.4976 18.432 10.1394 18.3474 9.74425 18.3474V18.5684ZM10.7048 18.8005L10.5972 18.9936C10.8392 19.1285 11.0274 19.3155 11.165 19.558L11.3572 19.4489L11.5494 19.3399C11.3721 19.0273 11.1254 18.7821 10.8124 18.6075L10.7048 18.8005ZM11.3572 19.4489L11.1658 19.5594C11.3039 19.7988 11.3763 20.0811 11.3763 20.4135H11.5973H11.8183C11.8183 20.0147 11.7307 19.6541 11.5486 19.3385L11.3572 19.4489ZM11.5973 20.4135H11.3763V20.4215H11.5973H11.8183V20.4135H11.5973ZM11.5973 20.4215H11.3763C11.3763 20.7538 11.3039 21.0379 11.1653 21.2804L11.3572 21.39L11.5491 21.4997C11.7306 21.1819 11.8183 20.8203 11.8183 20.4215H11.5973ZM11.3572 21.39L11.1645 21.2818C11.0267 21.5271 10.838 21.7168 10.5958 21.8542L10.7048 22.0464L10.8138 22.2386C11.1266 22.0612 11.3729 21.8133 11.5498 21.4983L11.3572 21.39ZM10.7048 22.0464L10.5958 21.8542C10.3559 21.9903 10.0742 22.0616 9.74425 22.0616V22.2826V22.5036C10.14 22.5036 10.4988 22.4174 10.8138 22.2386L10.7048 22.0464ZM9.74425 22.2826V22.0616H7.9272V22.2826V22.5036H9.74425V22.2826ZM7.56699 24.3438H7.78798V18.5684H7.56699H7.346V24.3438H7.56699ZM7.56699 18.5684V18.7894H8.28741V18.5684V18.3474H7.56699V18.5684ZM8.28741 18.5684H8.06642V24.3438H8.28741H8.5084V18.5684H8.28741ZM8.28741 24.3438V24.1228H7.56699V24.3438V24.5647H8.28741V24.3438ZM13.3518 24.3438H13.1308V24.5647H13.3518V24.3438ZM13.3518 18.5684V18.3474H13.1308V18.5684H13.3518ZM16.7978 18.9126L16.6889 19.105L16.6904 19.1058L16.7978 18.9126ZM17.7343 19.8972L17.9317 19.7979L17.7343 19.8972ZM17.7343 23.015L17.9317 23.1143L17.932 23.1138L17.7343 23.015ZM16.8018 24.0036L16.9096 24.1964L16.9106 24.1959L16.8018 24.0036ZM14.0722 23.6954H13.8512V23.9164H14.0722V23.6954ZM17.0819 22.6668L16.8827 22.5712L17.0819 22.6668ZM17.0779 20.2534L16.8784 20.3484L16.8793 20.3503L17.0779 20.2534ZM16.3815 19.4849L16.2695 19.6755L16.2708 19.6762L16.3815 19.4849ZM14.0722 19.2168V18.9958H13.8512V19.2168H14.0722ZM13.3518 24.3438H13.5728V18.5684H13.3518H13.1308V24.3438H13.3518ZM13.3518 18.5684V18.7894H15.3329V18.5684V18.3474H13.3518V18.5684ZM15.3329 18.5684V18.7894C15.8743 18.7894 16.3233 18.8981 16.6889 19.105L16.7978 18.9126L16.9066 18.7203C16.4611 18.4682 15.9335 18.3474 15.3329 18.3474V18.5684ZM16.7978 18.9126L16.6904 19.1058C17.0587 19.3104 17.3401 19.6053 17.5369 19.9965L17.7343 19.8972L17.9317 19.7979C17.6963 19.3299 17.3533 18.9684 16.9051 18.7194L16.7978 18.9126ZM17.7343 19.8972L17.5369 19.9965C17.734 20.3883 17.8375 20.8702 17.8375 21.4501H18.0585H18.2795C18.2795 20.8186 18.1668 20.2652 17.9317 19.7979L17.7343 19.8972ZM18.0585 21.4501H17.8375V21.4581H18.0585H18.2795V21.4501H18.0585ZM18.0585 21.4581H17.8375C17.8375 22.0379 17.734 22.5214 17.5366 22.9162L17.7343 23.015L17.932 23.1138C18.1668 22.6441 18.2795 22.0896 18.2795 21.4581H18.0585ZM17.7343 23.015L17.5369 22.9157C17.3398 23.3075 17.0591 23.604 16.6929 23.8112L16.8018 24.0036L16.9106 24.1959C17.3555 23.9442 17.6966 23.5817 17.9317 23.1143L17.7343 23.015ZM16.8018 24.0036L16.6939 23.8107C16.3282 24.0152 15.8776 24.1228 15.3329 24.1228V24.3438V24.5647C15.9356 24.5647 16.4642 24.4455 16.9096 24.1964L16.8018 24.0036ZM15.3329 24.3438V24.1228H13.3518V24.3438V24.5647H15.3329V24.3438ZM14.0722 23.6954V23.9164H15.2849V23.6954V23.4744H14.0722V23.6954ZM15.2849 23.6954V23.9164C15.7447 23.9164 16.1517 23.822 16.4962 23.6225L16.3855 23.4312L16.2748 23.24C16.011 23.3927 15.6842 23.4744 15.2849 23.4744V23.6954ZM16.3855 23.4312L16.4962 23.6225C16.8409 23.4229 17.1029 23.1338 17.2812 22.7624L17.0819 22.6668L16.8827 22.5712C16.7408 22.8669 16.5385 23.0873 16.2748 23.24L16.3855 23.4312ZM17.0819 22.6668L17.2812 22.7624C17.4588 22.3923 17.5431 21.9577 17.5431 21.4661H17.3221H17.1011C17.1011 21.9083 17.0252 22.2742 16.8827 22.5712L17.0819 22.6668ZM17.3221 21.4661H17.5431V21.4581H17.3221H17.1011V21.4661H17.3221ZM17.3221 21.4581H17.5431C17.5431 20.9636 17.4574 20.5271 17.2765 20.1565L17.0779 20.2534L16.8793 20.3503C17.024 20.6467 17.1011 21.0134 17.1011 21.4581H17.3221ZM17.0779 20.2534L17.2774 20.1584C17.0994 19.7844 16.8374 19.4935 16.4922 19.2937L16.3815 19.4849L16.2708 19.6762C16.534 19.8286 16.7363 20.05 16.8784 20.3484L17.0779 20.2534ZM16.3815 19.4849L16.4935 19.2944C16.1489 19.0919 15.7429 18.9958 15.2849 18.9958V19.2168V19.4378C15.6807 19.4378 16.0058 19.5205 16.2695 19.6755L16.3815 19.4849ZM15.2849 19.2168V18.9958H14.0722V19.2168V19.4378H15.2849V19.2168ZM14.0722 19.2168H13.8512V23.6954H14.0722H14.2932V19.2168H14.0722ZM19.881 24.3438H19.66V24.5647H19.881V24.3438ZM19.881 18.5684V18.3474H19.66V18.5684H19.881ZM23.387 18.5684H23.608V18.3474H23.387V18.5684ZM23.387 19.2168V19.4378H23.608V19.2168H23.387ZM20.6014 19.2168V18.9958H20.3804V19.2168H20.6014ZM20.6014 21.2019H20.3804V21.4229H20.6014V21.2019ZM23.1589 21.2019H23.3799V20.9809H23.1589V21.2019ZM23.1589 21.8423V22.0633H23.3799V21.8423H23.1589ZM20.6014 21.8423V21.6213H20.3804V21.8423H20.6014ZM20.6014 24.3438V24.5647H20.8224V24.3438H20.6014ZM19.881 24.3438H20.102V18.5684H19.881H19.66V24.3438H19.881ZM19.881 18.5684V18.7894H23.387V18.5684V18.3474H19.881V18.5684ZM23.387 18.5684H23.166V19.2168H23.387H23.608V18.5684H23.387ZM23.387 19.2168V18.9958H20.6014V19.2168V19.4378H23.387V19.2168ZM20.6014 19.2168H20.3804V21.2019H20.6014H20.8224V19.2168H20.6014ZM20.6014 21.2019V21.4229H23.1589V21.2019V20.9809H20.6014V21.2019ZM23.1589 21.2019H22.9379V21.8423H23.1589H23.3799V21.2019H23.1589ZM23.1589 21.8423V21.6213H20.6014V21.8423V22.0633H23.1589V21.8423ZM20.6014 21.8423H20.3804V24.3438H20.6014H20.8224V21.8423H20.6014ZM20.6014 24.3438V24.1228H19.881V24.3438V24.5647H20.6014V24.3438Z" fill="white" mask="url(#path-2-outside-1_2294_7851)"/>
<g filter="url(#filter0_d_2294_7851)">
<path d="M30.0547 11.2705H21.2151C19.8725 11.2705 18.7842 10.1822 18.7842 8.83961V0L30.0547 11.2705Z" fill="url(#paint1_linear_2294_7851)"/>
</g>
<defs>
<filter id="filter0_d_2294_7851" x="16.2428" y="-2.65188" width="16.7953" height="16.7943" filterUnits="userSpaceOnUse" color-interpolation-filters="sRGB">
<feFlood flood-opacity="0" result="BackgroundImageFix"/>
<feColorMatrix in="SourceAlpha" type="matrix" values="0 0 0 0 0 0 0 0 0 0 0 0 0 0 0 0 0 0 127 0" result="hardAlpha"/>
<feOffset dx="0.22099" dy="0.110495"/>
<feGaussianBlur stdDeviation="1.38119"/>
<feColorMatrix type="matrix" values="0 0 0 0 0 0 0 0 0 0 0 0 0 0 0 0 0 0 0.33 0"/>
<feBlend mode="normal" in2="BackgroundImageFix" result="effect1_dropShadow_2294_7851"/>
<feBlend mode="normal" in="SourceGraphic" in2="effect1_dropShadow_2294_7851" result="shape"/>
</filter>
<linearGradient id="paint0_linear_2294_7851" x1="15.0273" y1="0" x2="15.0273" y2="34.0325" gradientUnits="userSpaceOnUse">
<stop stop-color="#FF7981"/>
<stop offset="1" stop-color="#E85567"/>
</linearGradient>
<linearGradient id="paint1_linear_2294_7851" x1="24.4194" y1="0" x2="24.4194" y2="11.2705" gradientUnits="userSpaceOnUse">
<stop stop-color="#D03954"/>
<stop offset="1" stop-color="#C02A3C"/>
</linearGradient>
</defs>
</svg>
