<svg width="23" height="33" viewBox="0 0 23 33" fill="none" xmlns="http://www.w3.org/2000/svg">
<path d="M13.4971 32.7538L16.5557 27.9094C16.6419 27.7729 16.8053 27.7062 16.9624 27.7434L22.537 29.0655C22.836 29.1364 23.0902 28.8397 22.9741 28.5551L18.2421 16.957L8.0957 21.0966L12.8277 32.6947C12.9438 32.9796 13.333 33.0139 13.4971 32.7538Z" fill="url(#paint0_linear_2156_15293)"/>
<path d="M14.9068 21.0969L14.3558 22.4476L12.3182 27.4415L12.234 27.6473L11.5014 29.4439L10.1747 32.6949C10.0587 32.9794 9.66965 33.0137 9.50515 32.7541L6.44659 27.9098C6.36091 27.7734 6.19722 27.7065 6.03971 27.7438L0.465184 29.0658C0.166712 29.1367 -0.0873715 28.8397 0.0287084 28.5552L4.76068 16.957L14.9068 21.0969Z" fill="url(#paint1_linear_2156_15293)"/>
<path d="M11.5014 22.4477C17.7002 22.4477 22.7253 17.4226 22.7253 11.2238C22.7253 5.02508 17.7002 0 11.5014 0C5.30267 0 0.277588 5.02508 0.277588 11.2238C0.277588 17.4226 5.30267 22.4477 11.5014 22.4477Z" fill="url(#paint2_linear_2156_15293)"/>
<path d="M11.5014 21.4496C17.149 21.4496 21.7272 16.8714 21.7272 11.2238C21.7272 5.57629 17.149 0.998047 11.5014 0.998047C5.85387 0.998047 1.27563 5.57629 1.27563 11.2238C1.27563 16.8714 5.85387 21.4496 11.5014 21.4496Z" fill="url(#paint3_linear_2156_15293)"/>
<path d="M11.5013 20.8239C16.8032 20.8239 21.1012 16.5258 21.1012 11.2239C21.1012 5.92206 16.8032 1.62402 11.5013 1.62402C6.1994 1.62402 1.90137 5.92206 1.90137 11.2239C1.90137 16.5258 6.1994 20.8239 11.5013 20.8239Z" fill="url(#paint4_linear_2156_15293)"/>
<defs>
<linearGradient id="paint0_linear_2156_15293" x1="8.67602" y1="27.8509" x2="22.4419" y2="22.1896" gradientUnits="userSpaceOnUse">
<stop offset="0.0012" stop-color="#FF0000"/>
<stop offset="0.0444" stop-color="#E10000"/>
<stop offset="0.0825" stop-color="#960000"/>
<stop offset="0.2948" stop-color="#F80003"/>
<stop offset="0.4449" stop-color="#DC0004"/>
<stop offset="0.5583" stop-color="#F80003"/>
<stop offset="0.6944" stop-color="#CD0001"/>
<stop offset="0.8484" stop-color="#980001"/>
<stop offset="0.9621" stop-color="#E30002"/>
<stop offset="1" stop-color="#FF0002"/>
</linearGradient>
<linearGradient id="paint1_linear_2156_15293" x1="0.237356" y1="22.2383" x2="15.493" y2="28.1181" gradientUnits="userSpaceOnUse">
<stop offset="0.0012" stop-color="#FF0000"/>
<stop offset="0.0444" stop-color="#E10000"/>
<stop offset="0.0825" stop-color="#960000"/>
<stop offset="0.2948" stop-color="#F80003"/>
<stop offset="0.4449" stop-color="#DC0004"/>
<stop offset="0.5583" stop-color="#F80003"/>
<stop offset="0.6944" stop-color="#CD0001"/>
<stop offset="0.8484" stop-color="#980001"/>
<stop offset="0.9621" stop-color="#E30002"/>
<stop offset="1" stop-color="#FF0002"/>
</linearGradient>
<linearGradient id="paint2_linear_2156_15293" x1="2.87244" y1="3.76184" x2="22.2598" y2="20.5272" gradientUnits="userSpaceOnUse">
<stop offset="0.0012" stop-color="#EF832B"/>
<stop offset="0.134" stop-color="#F79C51"/>
<stop offset="0.2948" stop-color="#FF9539"/>
<stop offset="0.446" stop-color="#FFAE7B"/>
<stop offset="0.5583" stop-color="#FF8F39"/>
<stop offset="0.6956" stop-color="#FF9239"/>
<stop offset="0.8472" stop-color="#FFB27B"/>
<stop offset="1" stop-color="#E07426"/>
</linearGradient>
<linearGradient id="paint3_linear_2156_15293" x1="1.2757" y1="11.2238" x2="21.7272" y2="11.2238" gradientUnits="userSpaceOnUse">
<stop offset="0.0035" stop-color="#AB501F"/>
<stop offset="0.1351" stop-color="#A65B25"/>
<stop offset="0.2948" stop-color="#DB6C12"/>
<stop offset="0.446" stop-color="#DB824A"/>
<stop offset="0.5583" stop-color="#D16B1D"/>
<stop offset="0.6956" stop-color="#C45A21"/>
<stop offset="0.8472" stop-color="#F78C3E"/>
<stop offset="1" stop-color="#D16C24"/>
</linearGradient>
<linearGradient id="paint4_linear_2156_15293" x1="4.33584" y1="5.04301" x2="25.1535" y2="23.0002" gradientUnits="userSpaceOnUse">
<stop offset="0.0012" stop-color="#EF832B"/>
<stop offset="0.134" stop-color="#F79C51"/>
<stop offset="0.2948" stop-color="#FF9539"/>
<stop offset="0.446" stop-color="#FFAE7B"/>
<stop offset="0.5583" stop-color="#FF8F39"/>
<stop offset="0.6956" stop-color="#FF9239"/>
<stop offset="0.8472" stop-color="#FFB27B"/>
<stop offset="1" stop-color="#E07426"/>
</linearGradient>
</defs>
</svg>
