<svg width="14" height="14" viewBox="0 0 14 14" fill="none" xmlns="http://www.w3.org/2000/svg">
<path d="M6.38742 7.40807L5.57075 6.59141C5.45409 6.47474 5.31797 6.41641 5.16242 6.41641C5.00686 6.41641 4.87075 6.47474 4.75409 6.59141C4.63742 6.70807 4.57909 6.84671 4.57909 7.00732C4.57909 7.16793 4.63742 7.30638 4.75409 7.42266L5.97909 8.66224C6.09575 8.77891 6.23186 8.83724 6.38742 8.83724C6.54297 8.83724 6.67908 8.77891 6.79575 8.66224L9.27492 6.18307C9.39158 6.06641 9.44992 5.92796 9.44992 5.76774C9.44992 5.60752 9.39158 5.46888 9.27492 5.35182C9.15825 5.23477 9.01981 5.17643 8.85958 5.17682C8.69936 5.17721 8.56072 5.23555 8.44367 5.35182L6.38742 7.40807ZM6.99992 12.7747C6.93186 12.7747 6.86867 12.7699 6.81034 12.7602C6.752 12.7504 6.69367 12.7359 6.63533 12.7164C5.32284 12.2789 4.2777 11.4696 3.49992 10.2886C2.72214 9.10752 2.33325 7.83624 2.33325 6.47474V3.71849C2.33325 3.47543 2.40384 3.25668 2.545 3.06224C2.68617 2.8678 2.86836 2.72682 3.09159 2.63932L6.59159 1.32682C6.7277 1.27821 6.86381 1.25391 6.99992 1.25391C7.13603 1.25391 7.27214 1.27821 7.40825 1.32682L10.9083 2.63932C11.1319 2.72682 11.3143 2.8678 11.4554 3.06224C11.5966 3.25668 11.667 3.47543 11.6666 3.71849V6.47474C11.6666 7.83585 11.2777 9.10713 10.4999 10.2886C9.72214 11.47 8.677 12.2793 7.3645 12.7164C7.30617 12.7359 7.24784 12.7504 7.1895 12.7602C7.13117 12.7699 7.06797 12.7747 6.99992 12.7747Z" fill="#113025"/>
</svg>
