<svg width="871" height="1526" viewBox="0 0 871 1526" fill="none" xmlns="http://www.w3.org/2000/svg">
<path d="M7.35351 25.2893L0.999935 37.1436M7.35351 25.2893L7.35351 60.4185M7.35351 25.2893L13.9169 13.041M7.35351 25.2893L7.35351 0.410621M0.999935 37.1436L1.00241 32.8301L1.01617 28.5612L1.05485 24.3813L1.13103 20.3324L1.25465 16.4591L1.44074 12.8026L1.69923 9.40666L2.02887 6.2547L2.48468 3.54987L3.01291 1.08736L3.19792 0.410621L7.35351 0.410621M0.999935 37.1436L0.999936 71.7079M0.999936 71.7079L0.999938 106.272M0.999936 71.7079L7.35351 60.4185M0.999938 106.272L0.999939 140.837M0.999938 106.272L7.35352 95.5476M0.999939 140.837L0.999941 175.402M0.999939 140.837L7.35352 130.676M0.999941 175.402L0.999942 209.966M0.999941 175.402L7.35352 165.805M0.999942 209.966L0.999944 244.531M0.999942 209.966L7.35352 200.934M0.999944 244.531L0.999945 279.096M0.999944 244.531L7.35352 236.063M0.999945 279.096L0.999947 313.66M0.999945 279.096L7.35352 271.193M0.999947 313.66L0.999949 348.225M0.999947 313.66L7.35353 306.322M0.999949 348.225L0.99995 382.79M0.999949 348.225L7.35353 341.451M0.99995 382.79L0.999952 417.354M0.99995 382.79L7.35353 376.58M0.999952 417.354L0.999953 451.918M0.999952 417.354L7.35353 411.709M0.999953 451.918L0.999955 486.483M0.999953 451.918L2.56961 450.664L4.94598 448.762L7.35353 446.838M0.999955 486.483L0.999956 521.048M0.999955 486.483L2.56961 485.368L7.35353 481.968M0.999956 521.048L0.999958 555.612M0.999956 521.048L7.35353 517.097M0.999958 555.612L0.999959 590.177M0.999958 555.612L3.3588 554.356L5.74516 553.082L6.54811 552.655L7.35354 552.225M0.999959 590.177L0.999961 624.742M0.999959 590.177L3.3588 589.13L4.15051 588.777L4.94599 588.423L7.35354 587.354M0.999961 624.742L0.999962 659.306M0.999961 624.742L7.35354 622.483M0.999962 659.306L1.7829 659.097L2.56962 658.888L6.54812 657.828L7.35354 657.613M0.999962 659.306L0.999964 693.87M0.999964 693.87L0.999965 728.436M0.999964 693.87L7.35354 692.742M0.999965 728.436L0.999967 763M0.999965 728.436L3.35881 728.226L7.35354 727.871M0.999967 763L0.999968 797.564M0.999967 763L7.35355 763M0.999968 797.564L0.99997 832.13M0.999968 797.564L3.35881 797.774L7.35355 798.129M0.99997 832.13L0.999971 866.694M0.99997 832.13L7.35355 833.258M0.999971 866.694L1.78291 866.903L2.56963 867.112L6.54812 868.172L7.35355 868.387M0.999971 866.694L0.999973 901.258M0.999973 901.258L0.999974 935.823M0.999973 901.258L6.54813 903.23L7.35355 903.517M0.999974 935.823L0.999976 970.388M0.999974 935.823L3.35882 936.87L4.15053 937.223L5.74518 937.932L6.54813 938.287L7.35355 938.646M0.999976 970.388L0.999977 1004.95M0.999976 970.388L3.35882 971.644L5.74518 972.918L6.54813 973.345L7.35355 973.775M0.999977 1004.95L0.999979 1039.52M0.999977 1004.95L7.35356 1008.9M0.999979 1039.52L0.99998 1074.08M0.999979 1039.52L2.56963 1040.63L7.35356 1044.03M0.99998 1074.08L0.999982 1108.65M0.99998 1074.08L7.35356 1079.16M0.999982 1108.65L0.999983 1143.21M0.999982 1108.65L7.35356 1114.29M0.999983 1143.21L0.999985 1177.78M0.999983 1143.21L7.35356 1149.42M0.999985 1177.78L0.999986 1212.34M0.999985 1177.78L7.35356 1184.55M0.999986 1212.34L0.999988 1246.9M0.999986 1212.34L7.35357 1219.68M0.999988 1246.9L0.999989 1281.47M0.999988 1246.9L7.35357 1254.81M0.999989 1281.47L0.999991 1316.03M0.999989 1281.47L7.35357 1289.94M0.999991 1316.03L0.999992 1350.6M0.999991 1316.03L7.35357 1325.07M0.999992 1350.6L0.999994 1385.16M0.999992 1350.6L7.35357 1360.19M0.999994 1385.16L0.999995 1419.73M0.999994 1385.16L7.35357 1395.32M0.999995 1419.73L0.999997 1454.29M0.999995 1419.73L7.35357 1430.45M0.999997 1454.29L0.999998 1488.86M0.999997 1454.29L7.35358 1465.58M0.999998 1488.86L1.00248 1493.17L1.01623 1497.44L1.05491 1501.62L1.13109 1505.67L1.25472 1509.54L1.4408 1513.2L1.69929 1516.59L2.02893 1519.75L2.48475 1522.45L3.01297 1524.91L3.19803 1525.59L7.35358 1525.59M0.999998 1488.86L7.35358 1500.71M7.35357 1430.45L7.35357 1395.32M7.35357 1430.45L7.35358 1465.58M7.35357 1430.45L13.917 1441.53M7.35357 1395.32L13.917 1405.82M7.35357 1395.32L7.35357 1360.19M7.35357 1289.94L7.35357 1254.81M7.35357 1289.94L7.35357 1325.07M7.35357 1289.94L8.97444 1292.1L13.917 1298.68M7.35357 1254.81L13.917 1262.97M7.35357 1254.81L7.35357 1219.68M7.35356 1149.42L7.35356 1114.29M7.35356 1149.42L7.35356 1184.55M7.35356 1149.42L8.97444 1151L9.78863 1151.8L13.917 1155.84M7.35356 1114.29L8.1615 1115.01L8.97443 1115.73L13.917 1120.12M7.35356 1114.29L7.35356 1079.16M7.35356 1008.9L8.1615 1009.41L13.917 1012.99M7.35356 1008.9L7.35355 973.775M7.35356 1008.9L7.35356 1044.03M7.35355 973.775L8.97443 974.638L9.78862 975.074L10.6078 975.51L13.917 977.274M7.35355 973.775L7.35355 938.646M7.35355 868.387L7.35355 833.258M7.35355 868.387L7.35355 903.517M7.35355 868.387L13.917 870.137M7.35355 833.258L8.16149 833.402L8.97442 833.546L9.78861 833.691L12.2549 834.13L13.917 834.424M7.35355 833.258L7.35355 798.129M7.35354 727.871L7.35354 692.742M7.35354 727.871L7.35355 763M7.35354 727.871L13.9169 727.288M7.35354 692.742L8.16148 692.598L8.97442 692.454L9.78861 692.309L13.9169 691.576M7.35354 692.742L7.35354 657.613M7.35354 587.354L7.35354 552.225M7.35354 587.354L7.35354 622.483M7.35354 587.354L8.97441 586.635L12.2549 585.176L13.084 584.808L13.9169 584.438M7.35354 552.225L8.97441 551.362L9.7886 550.926L10.6078 550.49L13.9169 548.726M7.35354 552.225L7.35353 517.097M7.35353 446.838L7.35353 411.709M7.35353 446.838L7.35353 481.968M7.35353 446.838L8.9744 445.542L9.78859 444.89L13.9169 441.589M7.35353 411.709L8.16147 410.99L8.9744 410.269L13.9169 405.877M7.35353 411.709L7.35353 376.58M7.35353 306.322L7.35352 271.193M7.35353 306.322L7.35353 341.451M7.35353 306.322L8.9744 304.449L9.78859 303.507L13.9169 298.74M7.35352 271.193L13.9169 263.027M7.35352 271.193L7.35352 236.063M7.35352 165.805L7.35352 130.676M7.35352 165.805L7.35352 200.934M7.35352 165.805L13.9169 155.891M7.35352 130.676L13.9169 120.178M7.35352 130.676L7.35352 95.5476M66.7688 1525.71L66.7688 1525.59M66.7688 1490.35L58.3835 1476.94M66.7688 1490.35L75.475 1504.28M66.7688 1490.35L66.7688 1449.95M66.7688 1490.35L66.7688 1525.59M58.3835 1476.94L58.3835 1516.61M58.3835 1476.94L50.3016 1464.02M58.3835 1476.94L58.3835 1437.28M58.3835 1516.61L50.3016 1502.96M58.3835 1516.61L58.3835 1525.59M58.3835 1516.61L63.7032 1525.59M34.9845 1477.1L34.9845 1439.52M34.9845 1477.1L27.7206 1464.84M34.9845 1477.1L34.9845 1514.69M34.9845 1477.1L42.5069 1489.8M34.9845 1439.52L27.7206 1427.9M34.9845 1439.52L42.5069 1451.55M34.9845 1439.52L34.9845 1401.93M27.7206 1464.84L27.7206 1427.9M27.7206 1464.84L20.7026 1452.99M27.7206 1464.84L27.7206 1501.78M27.7206 1427.9L27.7206 1390.96M27.7206 1427.9L20.7026 1416.67M199.123 1525.98L199.123 1525.59M199.123 1493.37L185.221 1476.08M199.123 1493.37L213.717 1511.53M199.123 1493.37L199.123 1441.2M199.123 1493.37L199.123 1525.59M185.221 1476.08L171.962 1459.58M185.221 1476.08L185.221 1425.14M185.221 1476.08L185.221 1525.59M171.962 1509.34L171.962 1459.58M171.962 1509.34L159.302 1492.46M171.962 1509.34L171.962 1525.59M171.962 1509.34L184.155 1525.59M147.201 1476.34L147.201 1428.78M147.201 1476.34L135.626 1460.91M147.201 1476.34L147.201 1523.89M147.201 1476.34L159.302 1492.46M147.201 1428.78L135.626 1414.38M147.201 1428.78L159.302 1443.83M147.201 1428.78L147.201 1381.22M135.626 1460.91L135.626 1414.38M135.626 1460.91L135.626 1507.43M135.626 1460.91L124.539 1446.13M135.626 1414.38L124.539 1400.59M135.626 1414.38L135.626 1367.85M103.718 1418.38L103.718 1374.69M103.718 1418.38L93.9289 1405.33M103.718 1418.38L103.718 1462.07M103.718 1418.38L113.913 1431.97M103.718 1374.69L93.9289 1362.51M103.718 1374.69L113.913 1387.37M103.718 1374.69L103.718 1330.99M93.9289 1405.33L93.9289 1362.51M93.9289 1405.33L93.9289 1448.15M93.9289 1405.33L84.5221 1392.79M93.9289 1362.51L84.5221 1350.81M93.9289 1362.51L93.9289 1319.69M66.7688 1369.13L66.7688 1328.72M66.7688 1369.13L58.3835 1357.95M66.7688 1369.13L66.7688 1409.54M66.7688 1369.13L75.475 1380.73M66.7688 1328.72L58.3835 1318.29M66.7688 1328.72L75.475 1339.55M66.7688 1328.72L66.7688 1288.31M58.3835 1357.95L58.3835 1318.29M58.3835 1357.95L58.3835 1397.62M58.3835 1357.95L50.3016 1347.18M58.3835 1318.29L50.3016 1308.23M58.3835 1318.29L58.3834 1278.63M34.9845 1326.77L34.9845 1289.18M34.9845 1326.77L27.7206 1317.08M34.9845 1326.77L34.9845 1364.35M34.9845 1326.77L42.5069 1336.79M34.9845 1289.18L27.7206 1280.15M34.9845 1289.18L42.5069 1298.54M34.9845 1289.18L34.9845 1251.6M27.7206 1317.08L27.7206 1280.15M27.7206 1317.08L20.7026 1307.73M27.7206 1317.08L27.7206 1354.02M27.7206 1280.15L27.7206 1243.21M27.7206 1280.15L20.7026 1271.41M440.148 1498.86L412.754 1474.52M440.148 1498.86L469.482 1524.93M440.148 1498.86L440.148 1425.28M440.148 1498.86L440.148 1525.59M412.754 1474.52L387.115 1451.74M412.754 1474.52L412.754 1403.37M412.754 1474.52L412.754 1525.59M340.464 1475.01L340.464 1410.29M340.464 1475.01L319.185 1454.21M340.464 1475.01L363.067 1497.11M340.464 1475.01L340.464 1525.59M340.464 1410.29L319.185 1391.38M340.464 1410.29L363.067 1430.37M340.464 1410.29L340.464 1345.56M319.185 1454.21L319.185 1391.38M319.185 1454.21L319.185 1517.05M319.185 1454.21L299.111 1434.59M319.185 1391.38L299.111 1373.54M319.185 1391.38L319.185 1328.54M262.201 1398.52L262.201 1340.74M262.201 1398.52L245.194 1381.89M262.201 1398.52L262.201 1456.29M262.201 1398.52L280.148 1416.06M262.201 1340.74L245.194 1325.63M262.201 1340.74L280.148 1356.69M262.201 1340.74L262.201 1282.97M245.194 1381.89L245.194 1325.63M245.194 1381.89L245.194 1438.16M245.194 1381.89L229.054 1366.12M245.194 1325.63L229.054 1311.29M245.194 1325.63L245.194 1269.37M199.123 1336.86L199.123 1284.69M199.123 1336.86L185.221 1323.27M199.123 1336.86L199.123 1389.03M199.123 1336.86L213.717 1351.13M199.123 1284.69L185.221 1272.34M199.123 1284.69L213.717 1297.66M199.123 1284.69L199.123 1232.52M185.221 1323.27L185.221 1272.34M185.221 1323.27L185.221 1374.21M185.221 1323.27L171.962 1310.31M185.221 1272.34L171.962 1260.56M185.221 1272.34L185.221 1221.41M147.201 1286.11L147.201 1238.56M147.201 1286.11L135.626 1274.8M147.201 1286.11L147.201 1333.67M147.201 1286.11L159.302 1297.94M147.201 1238.56L135.626 1228.27M147.201 1238.56L159.302 1249.31M147.201 1238.56L147.201 1191M135.626 1274.8L135.626 1228.27M135.626 1274.8L135.626 1321.32M135.626 1274.8L124.539 1263.96M135.626 1228.27L124.539 1218.42M135.626 1228.27L135.626 1181.74M103.718 1243.61L103.718 1199.92M103.718 1243.61L93.9289 1234.04M103.718 1243.61L103.718 1287.3M103.718 1243.61L113.913 1253.57M103.718 1199.92L102.473 1198.81L93.9289 1191.22M103.718 1199.92L113.913 1208.98M103.718 1199.92L103.718 1156.23M93.9289 1234.04L93.9289 1191.22M93.9289 1234.04L93.9289 1276.86M93.9289 1234.04L84.5221 1224.85M93.9289 1191.22L84.5221 1182.86M93.9289 1191.22L93.9289 1148.4M66.7687 1207.5L66.7687 1167.09M66.7687 1207.5L58.3834 1199.3M66.7687 1207.5L66.7687 1247.9M66.7687 1207.5L75.475 1216.01M66.7687 1167.09L58.3834 1159.63M66.7687 1167.09L69.9955 1169.95L75.475 1174.82M66.7687 1167.09L66.7687 1126.68M58.3834 1199.3L58.3834 1159.63M58.3834 1199.3L58.3834 1238.96M58.3834 1199.3L50.3016 1191.4M58.3834 1159.63L50.3016 1152.45M58.3834 1159.63L58.3834 1119.97M34.9845 1176.43L34.9845 1138.84M34.9845 1176.43L27.7205 1169.33M34.9845 1176.43L34.9845 1214.01M34.9845 1176.43L42.5069 1183.78M34.9845 1138.84L29.5137 1133.98L28.6146 1133.18L27.7205 1132.39M34.9845 1138.84L42.5069 1145.53M34.9845 1138.84L34.9845 1101.26M27.7205 1169.33L27.7205 1132.39M27.7205 1169.33L20.7026 1162.47M27.7205 1169.33L27.7205 1206.27M27.7205 1132.39L27.7205 1095.45M27.7205 1132.39L20.7026 1126.15M752.198 1472.2L752.198 1370.89M752.198 1472.2L700.91 1440.3M752.198 1472.2L808.558 1507.26M752.198 1472.2L752.199 1525.59M752.198 1370.89L700.91 1343.54M752.198 1370.89L808.558 1400.93M752.198 1370.89L752.198 1269.57M700.91 1440.3L700.91 1343.54M700.91 1440.3L654.037 1411.14M700.91 1440.3L700.91 1525.59M700.91 1343.54L654.037 1318.55M700.91 1343.54L700.91 1246.78M571.438 1359.77L571.438 1274.51M571.438 1359.77L534.861 1337.02M571.438 1359.77L571.438 1445.02M571.438 1359.77L611.033 1384.39M571.438 1274.51L534.861 1255.01M571.438 1274.51L611.033 1295.62M571.438 1274.51L571.438 1189.26M534.861 1337.02L534.861 1255.01M534.861 1337.02L534.861 1419.02M534.861 1337.02L500.971 1315.94M534.861 1255.01L500.971 1236.94M534.861 1255.01L534.861 1173.01M440.148 1278.1L440.148 1204.52M440.148 1278.1L412.754 1261.06M440.148 1278.1L440.148 1351.69M440.148 1278.1L469.482 1296.35M440.148 1204.52L412.754 1189.91M440.148 1204.52L469.482 1220.16M440.148 1204.52L440.148 1130.93M412.754 1261.06L412.754 1189.91M412.754 1261.06L412.754 1332.22M412.754 1261.06L387.115 1245.12M412.754 1189.91L387.115 1176.24M412.754 1189.91L412.754 1118.76M340.464 1216.1L340.464 1151.37M340.464 1216.1L319.185 1202.86M340.464 1216.1L340.464 1280.83M340.464 1216.1L363.067 1230.16M340.464 1151.37L319.185 1140.03M340.464 1151.37L363.067 1163.42M340.464 1151.37L340.464 1086.64M319.185 1202.86L319.185 1140.03M319.185 1202.86L319.185 1265.7M319.185 1202.86L299.111 1190.38M319.185 1140.03L299.111 1129.32M319.185 1140.03L319.185 1077.19M262.201 1167.42L262.201 1109.65M262.201 1167.42L245.194 1156.84M262.201 1167.42L262.201 1225.19M262.201 1167.42L280.148 1178.58M262.201 1109.65L245.194 1100.58M262.201 1109.65L280.148 1119.21M262.201 1109.65L262.201 1051.87M245.194 1156.84L245.194 1100.58M245.194 1156.84L245.194 1213.1M245.194 1156.84L229.054 1146.8M245.194 1100.58L229.054 1091.97M245.194 1100.58L245.194 1044.32M199.123 1128.18L199.123 1076.02M199.123 1128.18L185.221 1119.54M199.123 1128.18L199.123 1180.35M199.123 1128.18L213.717 1137.26M199.123 1076.02L185.221 1068.6M199.123 1076.02L213.717 1083.8M199.123 1076.02L199.123 1023.85M185.221 1119.54L185.221 1068.6M185.221 1119.54L185.221 1170.47M185.221 1119.54L171.962 1111.29M185.221 1068.6L171.962 1061.53M185.221 1068.6L185.221 1017.67M147.201 1095.89L147.201 1048.33M147.201 1095.89L135.626 1088.69M147.201 1095.89L147.201 1143.45M147.201 1095.89L159.302 1103.42M147.201 1048.33L135.626 1042.16M147.201 1048.33L159.302 1054.78M147.201 1048.33L147.201 1000.78M135.626 1088.69L135.626 1042.16M135.626 1088.69L135.626 1135.22M135.626 1088.69L124.539 1081.79M135.626 1042.16L124.539 1036.25M135.626 1042.16L135.626 995.635M103.718 1068.84L103.718 1025.15M103.718 1068.84L93.9289 1062.75M103.718 1068.84L103.718 1112.53M103.718 1068.84L113.912 1075.18M103.718 1025.15L104.969 1025.82L113.912 1030.59M103.718 1025.15L93.9289 1019.93M103.718 1025.15L103.718 981.459M93.9289 1062.75L93.9289 1019.93M93.9289 1062.75L93.9289 1105.58M93.9289 1062.75L84.5221 1056.9M93.9289 1019.93L84.5221 1014.92M93.9289 1019.93L93.9289 977.11M66.7687 1045.86L66.7687 1005.45M66.7687 1045.86L58.3834 1040.64M66.7687 1045.86L66.7687 1086.27M66.7687 1045.86L75.475 1051.28M66.7687 1005.45L58.3834 1000.98M66.7687 1005.45L69.9955 1007.17L72.172 1008.33L75.475 1010.09M66.7687 1005.45L66.7687 965.043M58.3834 1040.64L58.3834 1000.98M58.3834 1040.64L58.3834 1080.31M58.3834 1040.64L50.3016 1035.62M58.3834 1000.98L55.3178 999.346L53.2973 998.269L50.3016 996.672M58.3834 1000.98L58.3834 961.318M34.9845 1026.09L34.9845 988.506M34.9845 1026.09L29.5137 1022.69L27.7205 1021.57M34.9845 1026.09L34.9845 1063.67M34.9845 1026.09L41.5516 1030.18L42.5069 1030.77M34.9845 988.506L29.5137 985.589L28.6146 985.11L27.7205 984.633M34.9845 988.506L38.712 990.494L42.5069 992.516M34.9845 988.506L34.9845 950.922M27.7205 1021.57L27.7205 984.633M27.7205 1021.57L20.7026 1017.21M27.7205 1021.57L27.7205 1058.51M27.7205 984.633L27.7205 947.694M27.7205 984.633L20.7026 980.892M752.198 1066.94L752.198 965.629M752.198 1066.94L700.91 1053.27M752.198 1066.94L752.198 1168.26M752.198 1066.94L808.558 1081.97M752.198 965.629L700.91 956.513M752.198 965.629L808.558 975.644M752.198 965.629L752.198 864.314M700.91 1053.27L700.91 956.513M700.91 1053.27L700.91 1150.03M700.91 1053.27L654.037 1040.78M700.91 956.513L654.037 948.184M700.91 956.513L700.91 859.757M571.438 1018.76L571.438 933.505M571.438 1018.76L534.861 1009.01M571.438 1018.76L571.438 1104.01M571.438 1018.76L611.033 1029.31M571.438 933.505L534.861 927.004M571.438 933.505L611.033 940.541M571.438 933.505L571.438 848.252M534.861 1009.01L534.861 927.004M534.861 1009.01L534.861 1091.01M534.861 1009.01L500.971 999.972M534.861 927.004L500.971 920.981M534.861 927.004L534.861 845.002M440.148 983.758L440.148 910.173M440.148 983.758L412.754 976.456M440.148 983.758L440.148 1057.34M440.148 983.758L469.482 991.578M440.148 910.173L412.754 905.304M440.148 910.173L469.482 915.385M440.148 910.173L440.148 836.586M412.754 976.456L412.754 905.304M412.754 976.456L412.754 1047.61M412.754 976.456L387.115 969.621M412.754 905.304L387.115 900.747M412.754 905.304L412.754 834.152M340.464 957.185L340.464 892.457M340.464 957.185L319.185 951.513M340.464 957.185L340.464 1021.91M340.464 957.185L363.067 963.211M340.464 892.457L319.185 888.675M340.464 892.457L363.067 896.474M340.464 892.457L340.464 827.729M319.185 951.513L319.185 888.675M319.185 951.513L319.185 1014.35M319.185 951.513L299.111 946.162M319.185 888.675L299.111 885.108M319.185 888.675L319.185 825.837M262.201 936.323L262.201 878.548M262.201 936.323L245.194 931.79M262.201 936.323L262.201 994.097M262.201 936.323L280.148 941.107M262.201 878.548L245.194 875.526M262.201 878.548L280.148 881.737M262.201 878.548L262.201 820.774M245.194 931.79L245.194 875.526M245.194 931.79L245.194 988.052M245.194 931.79L229.054 927.486M245.194 875.526L229.054 872.658M245.194 875.526L245.194 819.263M199.123 919.508L199.123 867.339M199.123 919.508L185.221 915.802M199.123 919.508L199.123 971.677M199.123 919.508L213.717 923.398M199.123 867.339L185.221 864.868M199.123 867.339L213.717 869.932M199.123 867.339L199.123 815.169M185.221 915.802L185.221 864.868M185.221 915.802L185.221 966.736M185.221 915.802L180.176 914.457L171.962 912.267M185.221 864.868L171.962 862.511M185.221 864.868L185.221 813.934M147.201 905.667L147.201 858.111M147.201 905.667L135.626 902.581M147.201 905.667L147.201 953.223M147.201 905.667L156.226 908.072L159.302 908.893M147.201 858.111L142.801 857.329L135.626 856.054M147.201 858.111L159.302 860.262M147.201 858.111L147.201 810.555M135.626 902.581L134.213 902.205L124.539 899.626M135.626 902.581L135.626 856.054M135.626 902.581L135.626 949.108M135.626 856.054L131.412 855.305L130.023 855.059L128.641 854.813L124.539 854.084M135.626 856.054L135.626 809.527M103.718 894.076L103.718 850.384M103.718 894.076L98.774 892.758L97.554 892.432L96.3389 892.109L95.1314 891.786L93.9289 891.466M103.718 894.076L103.718 937.767M103.718 894.076L113.912 896.793M103.718 850.384L96.3389 849.072L95.1314 848.857L93.9289 848.644M103.718 850.384L113.912 852.195M103.718 850.384L103.718 806.692M93.9289 891.466L93.9289 848.644M93.9289 891.466L93.9289 934.288M93.9289 891.466L88.0061 889.887L86.8385 889.576L84.5221 888.958M93.9289 848.644L88.0061 847.592L86.8385 847.384L85.6772 847.178L84.5221 846.972M93.9289 848.644L93.9289 805.822M66.7687 884.225L66.7687 843.817M66.7687 884.225L58.3834 881.99M66.7687 884.225L66.7687 924.635M66.7687 884.225L68.9141 884.798L72.172 885.666L75.4749 886.547M66.7687 843.817L67.8389 844.008L74.3686 845.168L75.4749 845.364M66.7687 843.817L58.3834 842.327M66.7687 843.817L66.7687 803.408M58.3834 881.99L58.3834 842.327M58.3834 881.99L58.3834 921.653M58.3834 881.99L50.3016 879.836M58.3834 842.327L55.3177 841.782L54.305 841.602L53.2973 841.423L50.3016 840.891M58.3834 842.327L58.3834 802.663M34.9845 875.753L34.9845 838.169M34.9845 875.753L29.5137 874.294L27.7205 873.817M34.9845 875.753L34.9845 913.337M34.9845 875.753L37.7742 876.497L38.712 876.747L39.6548 876.998L42.5069 877.759M34.9845 838.169L34.0629 838.005L32.231 837.68L30.4153 837.356L27.7205 836.878M34.9845 838.169L38.712 838.831L39.6548 838.998L41.5516 839.336L42.5069 839.505M34.9845 838.169L34.9845 800.584M27.7205 873.817L27.7205 836.878M27.7205 873.817L21.5668 872.177L20.7026 871.945M27.7205 873.817L27.7205 910.756M27.7205 836.878L26.8302 836.719L25.9436 836.562L25.0607 836.405L24.1816 836.249L21.5668 835.784L20.7026 835.63M27.7205 836.878L27.7205 799.939M752.198 661.686L752.198 560.371M752.198 661.686L700.91 666.243M752.198 661.686L752.198 763M752.198 661.686L808.558 656.678M752.198 560.371L700.91 569.486M752.198 560.371L808.558 550.356M752.198 560.371L752.198 459.057M700.91 666.243L700.91 569.486M700.91 666.243L700.91 763M700.91 666.243L654.037 670.408M700.91 569.486L654.037 577.816M700.91 569.486L700.91 472.729M571.438 677.748L571.438 592.495M571.438 677.748L534.861 680.998M571.438 677.748L571.438 763M571.438 677.748L611.033 674.229M571.438 592.495L534.861 598.996M571.438 592.495L611.033 585.459M571.438 592.495L571.438 507.243M534.861 680.998L534.861 598.996M534.861 680.998L534.861 763M534.861 680.998L500.971 684.009M534.861 598.996L500.971 605.018M534.861 598.996L534.861 516.993M440.148 689.414L440.148 615.827M440.148 689.414L412.754 691.848M440.148 689.414L440.148 763M440.148 689.414L469.482 686.807M440.148 615.827L412.754 620.696M440.148 615.827L469.482 610.615M440.148 615.827L440.148 542.241M412.754 691.848L412.754 620.696M412.754 691.848L412.754 763M412.754 691.848L387.115 694.126M412.754 620.696L387.115 625.252M412.754 620.696L412.754 549.544M340.464 698.271L340.464 633.543M340.464 698.271L319.185 700.163M340.464 698.271L340.464 763M340.464 698.271L363.067 696.263M340.464 633.543L319.185 637.324M340.464 633.543L363.067 629.526M340.464 633.543L340.464 568.815M319.185 700.163L319.185 637.324M319.185 700.163L319.185 763M319.185 700.163L299.111 701.946M319.185 637.324L299.111 640.892M319.185 637.324L319.185 574.487M262.201 705.226L262.201 647.452M262.201 705.226L245.194 706.737M262.201 705.226L262.201 763M262.201 705.226L280.148 703.631M262.201 647.452L245.194 650.474M262.201 647.452L280.148 644.262M262.201 647.452L262.201 589.677M245.194 706.737L245.194 650.474M245.194 706.737L245.194 763M245.194 706.737L229.054 708.171M245.194 650.474L229.054 653.342M245.194 650.474L245.194 594.21M199.123 710.831L199.123 658.661M199.123 710.831L185.221 712.066M199.123 710.831L199.123 763M199.123 710.831L213.717 709.534M199.123 658.661L185.221 661.132M199.123 658.661L213.717 656.067M199.123 658.661L199.123 606.492M185.221 712.066L185.221 661.132M185.221 712.066L185.221 763M185.221 712.066L171.962 713.244M185.221 661.132L171.962 663.488M185.221 661.132L185.221 610.198M147.201 715.444L147.201 667.888M147.201 715.444L135.626 716.473M147.201 715.444L147.201 763M147.201 715.444L159.302 714.369M147.201 667.888L137.045 669.694L135.626 669.946M147.201 667.888L159.302 665.738M147.201 667.888L147.201 620.333M135.626 716.473L134.213 716.598L124.539 717.458M135.626 716.473L135.626 669.946M135.626 716.473L135.626 763M135.626 669.946L131.412 670.695L130.023 670.941L128.641 671.187L124.539 671.916M135.626 669.946L135.626 623.419M103.718 719.308L103.718 675.616M103.718 719.308L93.9289 720.178M103.718 719.308L103.718 763M103.718 719.308L107.491 718.973L108.763 718.859L110.04 718.747L112.615 718.518L113.912 718.402M103.718 675.616L96.3389 676.927L93.9289 677.356M103.718 675.616L113.912 673.805M103.718 675.616L103.718 631.924M93.9289 720.178L93.9289 677.356M93.9289 720.178L93.9289 763M93.9289 720.178L84.5221 721.014M93.9289 677.356L88.0061 678.408L86.8385 678.616L85.6772 678.822L84.5221 679.028M93.9289 677.356L93.9289 634.534M66.7687 722.591L66.7687 682.183M66.7687 722.591L58.3834 723.337M66.7687 722.591L66.7687 763M66.7687 722.591L75.4749 721.818M66.7687 682.183L67.8389 681.992L74.3686 680.832L75.4749 680.636M66.7687 682.183L58.3834 683.673M66.7687 682.183L66.7687 641.774M58.3834 723.337L58.3834 683.673M58.3834 723.337L58.3834 763M58.3834 723.337L50.3015 724.055M58.3834 683.673L55.3177 684.218L54.305 684.398L53.2973 684.577L50.3015 685.109M58.3834 683.673L58.3834 644.01M34.9845 725.415L34.9845 687.831M34.9845 725.415L27.7205 726.061M34.9845 725.415L34.9845 763M34.9845 725.415L42.5069 724.747M34.9845 687.831L34.0629 687.995L32.231 688.321L31.3206 688.482L29.5137 688.804L28.6146 688.963L27.7205 689.123M34.9845 687.831L38.712 687.168L39.6548 687.002L41.5516 686.664L42.5069 686.495M34.9845 687.831L34.9845 650.247M27.7205 726.061L26.8302 726.14L25.9436 726.219L25.0607 726.297L20.7026 726.685M27.7205 726.061L27.7205 689.123M27.7205 726.061L27.7205 763M27.7205 689.123L27.7205 652.183M27.7205 689.123L25.9436 689.438L25.0607 689.595L24.1816 689.751L21.5668 690.216L20.7026 690.37M752.198 256.428L752.198 155.115M752.198 256.428L700.91 279.216M752.198 256.428L752.198 357.742M752.198 256.428L808.558 231.389M752.198 155.115L700.91 182.459M752.198 155.115L808.558 125.067M752.198 155.115L752.198 53.7998M700.91 279.216L700.91 182.459M700.91 279.216L700.91 375.972M700.91 279.216L654.037 300.041M700.91 182.459L654.037 207.449M700.91 182.459L700.91 85.7014M571.438 336.739L571.438 251.486M571.438 336.739L534.861 352.989M571.438 336.739L571.438 421.991M571.438 336.739L611.033 319.147M571.438 251.486L534.861 270.987M571.438 251.486L611.033 230.377M571.438 251.486L571.438 166.234M534.861 352.989L534.861 270.987M534.861 352.989L534.861 434.991M534.861 352.989L500.971 368.046M534.861 270.987L500.971 289.055M534.861 270.987L534.861 188.985M440.148 395.069L440.148 321.483M440.148 395.069L412.754 407.24M440.148 395.069L440.148 468.656M440.148 395.069L469.482 382.036M440.148 321.483L412.754 336.087M440.148 321.483L469.482 305.844M440.148 321.483L440.148 247.897M412.754 407.24L412.754 336.087M412.754 407.24L412.754 478.392M412.754 407.24L387.115 418.631M412.754 336.087L387.115 349.758M412.754 336.087L412.754 264.936M340.464 439.357L340.464 374.628M340.464 439.357L319.185 448.812M340.464 439.357L340.464 504.086M340.464 439.357L363.067 429.316M340.464 374.628L319.185 385.974M340.464 374.628L363.067 362.579M340.464 374.628L340.464 309.9M319.185 448.812L319.185 385.974M319.185 448.812L319.185 511.65M319.185 448.812L299.111 457.73M319.185 385.974L299.111 396.676M319.185 385.974L319.185 323.137M262.201 474.129L262.201 416.355M262.201 474.129L245.194 481.685M262.201 474.129L262.201 531.903M262.201 474.129L280.148 466.156M262.201 416.355L245.194 425.421M262.201 416.355L280.148 406.787M262.201 416.355L262.201 358.58M245.194 481.685L245.194 425.421M245.194 481.685L245.194 537.948M245.194 481.685L229.054 488.855M245.194 425.421L229.054 434.026M245.194 425.421L245.194 369.158M199.123 502.153L199.123 449.984M199.123 502.153L185.221 508.33M199.123 502.153L199.123 554.323M199.123 502.153L213.717 495.669M199.123 449.984L185.221 457.396M199.123 449.984L213.717 442.203M199.123 449.984L199.123 397.815M185.221 508.33L185.221 457.396M185.221 508.33L185.221 559.264M185.221 508.33L171.962 514.221M185.221 457.396L171.961 464.465M185.221 457.396L185.221 406.462M147.201 525.221L148.685 524.563L150.176 523.9L159.302 519.846M147.201 525.221L147.201 477.666M147.201 525.221L135.626 530.365M147.201 525.221L147.201 572.777M147.201 477.666L135.626 483.837M147.201 477.666L159.302 471.215M147.201 477.666L147.201 430.11M135.626 530.365L135.626 483.837M135.626 530.365L135.626 576.892M135.626 530.365L124.539 535.29M135.626 483.837L124.539 489.748M135.626 483.837L135.626 437.311M103.718 544.541L103.718 500.849M103.718 544.541L93.9289 548.89M103.718 544.541L103.718 588.233M103.718 544.541L113.912 540.012M103.718 500.849L97.5539 504.136L93.9289 506.068M103.718 500.849L113.912 495.414M103.718 500.849L103.718 457.157M93.9289 548.89L93.9289 506.068M93.9289 548.89L93.9289 591.712M93.9289 548.89L85.6772 552.556L84.5221 553.069M93.9289 506.068L84.5221 511.083M93.9289 506.068L93.9289 463.246M66.7687 560.957L66.7687 520.548M66.7687 560.957L64.6421 561.901L58.3834 564.682M66.7687 560.957L66.7687 601.365M66.7687 560.957L68.914 560.003L73.2671 558.069L75.4749 557.089M66.7687 520.548L58.3834 525.019M66.7687 520.548L69.9954 518.828L72.172 517.668L75.4749 515.907M66.7687 520.548L66.7687 480.14M58.3834 564.682L58.3834 525.019M58.3834 564.682L58.3834 604.346M58.3834 564.682L52.2933 567.388L50.3015 568.274M58.3834 525.019L55.3177 526.654L53.2973 527.731L50.3015 529.328M58.3834 525.019L58.3834 485.356M34.9845 575.078L34.9845 537.494M34.9845 575.078L30.4153 577.109L27.7205 578.306M34.9845 575.078L34.9845 612.663M34.9845 575.078L42.5069 571.736M34.9845 537.494L29.5137 540.411L28.6146 540.889L27.7205 541.367M34.9845 537.494L38.712 535.506L42.5069 533.484M34.9845 537.494L34.9845 499.91M27.7205 578.306L27.7205 541.367M27.7205 578.306L24.1816 579.878L22.4346 580.654L21.5667 581.04L20.7026 581.423M27.7205 578.306L27.7205 615.244M27.7205 541.367L27.7205 504.427M27.7205 541.367L20.7026 545.108M534.861 24.9803L534.861 106.982M534.861 24.9803L500.971 52.0824M534.861 24.9803L534.861 0.410598M534.861 24.9803L565.584 0.410596M440.148 100.724L440.148 27.1385M440.148 100.724L412.754 122.631M440.148 100.724L440.148 174.31M440.148 100.724L469.482 77.2653M440.148 27.1385L412.754 51.4794M440.148 27.1385L469.482 1.07231M440.148 27.1385L440.148 0.410602M412.754 122.631L412.754 51.4794M412.754 122.631L412.754 193.783M412.754 122.631L387.115 143.136M412.754 51.4794L387.115 74.2626M412.754 51.4794L412.754 0.410603M340.464 180.443L340.464 115.714M340.464 180.443L319.185 197.461M340.464 180.443L340.464 245.172M340.464 180.443L363.067 162.368M340.464 115.714L319.185 134.623M340.464 115.714L363.067 95.631M340.464 115.714L340.464 50.9854M319.185 197.461L319.185 134.623M319.185 197.461L319.185 260.299M319.185 197.461L299.111 213.514M319.185 134.623L299.111 152.46M319.185 134.623L319.185 71.7858M262.201 243.032L262.201 185.258M262.201 243.032L245.194 256.632M262.201 243.032L262.201 300.806M262.201 243.032L280.148 228.68M262.201 185.258L245.194 200.37M262.201 185.258L280.148 169.311M262.201 185.258L262.201 127.483M245.194 256.632L245.194 200.37M245.194 256.632L245.194 312.895M245.194 256.632L229.054 269.539M245.194 200.37L229.054 214.711M245.194 200.37L245.194 144.106M199.123 293.476L199.123 241.307M199.123 293.476L185.221 304.594M199.123 293.476L199.123 345.645M199.123 293.476L213.717 281.805M199.123 241.307L185.221 253.66M199.123 241.307L213.717 228.339M199.123 241.307L199.123 189.138M185.221 304.594L185.221 253.66M185.221 304.594L185.221 355.528M185.221 304.594L171.961 315.198M185.221 253.66L171.961 265.442M185.221 253.66L185.221 202.726M147.201 334.998L147.201 287.443M147.201 334.998L135.626 344.257M147.201 334.998L147.201 382.554M147.201 334.998L159.302 325.322M147.201 287.443L135.626 297.73M147.201 287.443L159.302 276.691M147.201 287.443L147.201 239.887M135.626 344.257L135.626 297.73M135.626 344.257L135.626 390.783M135.626 344.257L124.539 353.122M135.626 297.73L124.539 307.581M135.626 297.73L135.626 251.202M103.718 369.774L103.718 326.082M103.718 369.774L93.9289 377.602M103.718 369.774L103.718 413.466M103.718 369.774L113.912 361.621M103.718 326.082L93.9289 334.78M103.718 326.082L113.912 317.023M103.718 326.082L103.718 282.39M93.9289 377.602L93.9289 334.78M93.9289 377.602L93.9289 420.424M93.9289 377.602L84.5221 385.125M93.9289 334.78L84.5221 343.139M93.9289 334.78L93.9289 291.958M66.7687 399.323L66.7687 358.914M66.7687 399.323L58.3834 406.029M66.7687 399.323L66.7687 439.731M66.7687 399.323L68.914 397.606L69.9954 396.743L75.4749 392.359M66.7687 358.914L58.3834 366.365M66.7687 358.914L75.4749 351.177M66.7687 358.914L66.7687 318.506M58.3834 406.029L58.3834 366.365M58.3834 406.029L58.3834 445.692M58.3834 406.029L50.3015 412.492M58.3834 366.365L50.3015 373.546M58.3834 366.365L58.3834 326.702M34.9845 424.741L34.9845 387.156M34.9845 424.741L27.7205 430.55M34.9845 424.741L34.9845 462.325M34.9845 424.741L42.5069 418.725M34.9845 387.156L29.5137 392.019L28.6146 392.816L27.7205 393.611M34.9845 387.156L42.5069 380.472M34.9845 387.156L34.9845 349.572M27.7205 430.55L27.7205 393.611M27.7205 430.55L21.5667 435.471L20.7026 436.163M27.7205 430.55L27.7205 467.489M27.7205 393.611L27.7205 356.672M27.7205 393.611L20.7026 399.847M262.201 11.9344L245.194 31.5799M262.201 11.9344L262.201 69.7086M262.201 11.9344L272.177 0.410609M262.201 11.9344L262.201 0.410609M245.194 31.5799L245.194 87.8431M245.194 31.5799L229.054 50.2236M245.194 31.5799L245.194 0.41061M199.123 84.7991L199.123 32.6292M199.123 84.7991L185.221 100.859M199.123 84.7991L199.123 136.968M199.123 84.7991L213.717 67.941M199.123 32.6292L185.221 49.9242M199.123 32.6292L213.717 14.4748M199.123 32.6292L199.123 0.410612M185.221 100.859L185.221 49.9242M185.221 100.859L185.221 151.793M185.221 100.859L171.961 116.175M185.221 49.9242L171.961 66.419M185.221 49.9242L185.221 0.410613M147.201 144.776L147.201 97.2197M147.201 144.776L135.626 158.148M147.201 144.776L147.201 192.331M147.201 144.776L159.302 130.798M147.201 97.2197L135.626 111.622M147.201 97.2197L159.302 82.1681M147.201 97.2197L147.201 49.6644M135.626 158.148L135.626 111.622M135.626 158.148L135.626 204.676M135.626 158.148L124.539 170.955M135.626 111.622L124.539 125.412M135.626 111.622L135.626 65.0941M103.718 195.007L103.718 151.315M103.718 195.007L93.9288 206.315M103.718 195.007L103.718 238.698M103.718 195.007L113.912 183.23M103.718 151.315L93.9288 163.492M103.718 151.315L113.912 138.632M103.718 151.315L103.718 107.623M93.9288 206.315L93.9288 163.492M93.9288 206.315L93.9289 249.136M93.9288 206.315L84.522 217.181M93.9288 163.492L84.522 175.195M93.9288 163.492L93.9288 120.67M66.7687 237.688L66.7687 197.279M66.7687 237.688L58.3834 247.374M66.7687 237.688L66.7687 278.096M66.7687 237.688L75.4749 227.631M66.7687 197.279L58.3834 207.711M66.7687 197.279L75.4749 186.448M66.7687 197.279L66.7687 156.871M58.3834 247.374L58.3834 207.711M58.3834 247.374L58.3834 287.039M58.3834 247.374L50.3015 256.711M58.3834 207.711L50.3015 217.765M58.3834 207.711L58.3834 168.048M34.9845 274.403L34.9845 236.819M34.9845 274.403L27.7205 282.794M34.9845 274.403L34.9845 311.988M34.9845 274.403L42.5069 265.715M34.9845 236.819L27.7205 245.856M34.9845 236.819L42.5069 227.461M34.9845 236.819L34.9845 199.234M27.7205 282.794L27.7205 245.856M27.7205 282.794L20.7026 290.902M27.7205 282.794L27.7205 319.733M27.7205 245.856L27.7205 208.916M27.7205 245.856L20.7026 254.586M103.718 20.2396L93.9288 35.0266M103.718 20.2396L103.718 63.9311M103.718 20.2396L113.912 4.83916M103.718 20.2396L103.718 0.410616M93.9288 35.0266L93.9288 77.8484M93.9288 35.0266L84.522 49.2362M93.9288 35.0266L93.9288 0.410617M66.7687 76.0539L66.7687 35.6454M66.7687 76.0539L58.3834 88.7209M66.7687 76.0539L66.7687 116.462M66.7687 76.0539L75.4749 62.9016M66.7687 35.6454L58.3834 49.0575M66.7687 35.6454L75.4749 21.7194M66.7687 35.6454L66.7687 0.410618M58.3834 88.7209L58.3834 49.0575M58.3834 88.7209L58.3834 128.384M58.3834 88.7209L50.3015 100.929M58.3834 49.0575L50.3015 61.9841M58.3834 49.0575L58.3834 9.39405M34.9845 124.066L34.9845 86.4816M34.9845 124.066L27.7205 135.039M34.9845 124.066L34.9845 161.651M34.9845 124.066L42.5069 112.704M34.9845 86.4816L27.7205 98.0999M34.9845 86.4816L42.5069 74.4509M34.9845 86.4816L34.9845 48.897M27.7205 135.039L27.7205 98.0999M27.7205 135.039L20.7026 145.64M27.7205 135.039L27.7205 171.977M27.7205 98.0999L27.7205 61.1604M27.7205 98.0999L20.7026 109.325M42.5069 74.4509L50.3015 61.9841M42.5069 74.4509L42.5069 36.1975M42.5069 74.4509L42.5069 112.704M34.9845 48.897L27.7205 61.1604M34.9845 48.897L42.5069 36.1975M34.9845 48.897L34.9845 11.3132M27.7205 61.1604L27.7205 24.2217M27.7205 61.1604L20.7026 73.0099M20.7026 109.325L20.7026 145.64M20.7026 109.325L20.7026 73.0099M20.7026 109.325L13.9169 120.178M42.5069 36.1975L50.3015 23.0381M42.5069 36.1975L42.5069 0.410619M34.9845 11.3132L27.7205 24.2217M34.9845 11.3132L41.1189 0.410619M34.9845 11.3132L34.9845 0.410619M27.7205 24.2217L20.7026 36.6948M27.7205 24.2217L27.7205 0.41062M20.7026 73.0099L20.7026 36.6948M20.7026 73.0099L13.9169 84.4654M20.7026 36.6948L13.9169 48.7533M20.7026 36.6948L20.7026 0.41062M50.3015 61.9841L50.3015 23.0381M50.3015 61.9841L50.3015 100.929M58.3834 9.39405L50.3015 23.0381M58.3834 9.39405L63.7032 0.410618M58.3834 9.39405L58.3834 0.410618M50.3015 23.0381L50.3015 0.410619M50.3015 100.929L50.3015 139.875M50.3015 100.929L42.5069 112.704M42.5069 112.704L42.5069 150.956M75.4749 21.7194L84.522 7.25008M75.4749 21.7194L75.4749 62.9016M75.4749 21.7194L75.4749 0.410618M66.7687 0.287468L66.7687 0.410618M84.522 7.25008L84.522 49.2362M84.522 7.25008L88.7977 0.410617M84.522 7.25008L84.522 0.410617M84.522 49.2362L84.522 91.2223M84.522 49.2362L75.4749 62.9016M75.4749 62.9016L75.4749 104.084M42.5069 227.461L50.3015 217.765M42.5069 227.461L42.5069 189.209M42.5069 227.461L42.5069 265.715M34.9845 199.234L27.7205 208.916M34.9845 199.234L42.5069 189.209M34.9845 199.234L34.9845 161.651M27.7205 208.916L27.7205 171.977M27.7205 208.916L20.7026 218.271M20.7026 254.586L20.7026 218.271M20.7026 254.586L13.9169 263.027M20.7026 254.586L20.7026 290.902M42.5069 189.209L50.3015 178.82M42.5069 189.209L42.5069 150.956M34.9845 161.651L27.7205 171.977M34.9845 161.651L42.5069 150.956M27.7205 171.977L20.7026 181.955M20.7026 218.271L20.7026 181.955M20.7026 218.271L13.9169 227.315M42.5069 150.956L50.3015 139.875M20.7026 145.64L20.7026 181.955M20.7026 145.64L13.9169 155.891M20.7026 181.955L13.9169 191.603M50.3015 217.765L50.3015 178.82M50.3015 217.765L50.3015 256.711M58.3834 168.048L50.3015 178.82M58.3834 168.048L66.7687 156.871M58.3834 168.048L58.3834 128.384M50.3015 178.82L50.3015 139.875M50.3015 256.711L50.3015 295.656M50.3015 256.711L42.5069 265.715M50.3015 139.875L58.3834 128.384M42.5069 265.715L42.5069 303.967M66.7687 156.871L75.4749 145.266M66.7687 156.871L66.7687 116.462M58.3834 128.384L66.7687 116.462M66.7687 116.462L75.4749 104.084M75.4749 186.448L84.522 175.195M75.4749 186.448L75.4749 145.266M75.4749 186.448L75.4749 227.631M75.4749 145.266L84.522 133.208M75.4749 145.266L75.4749 104.084M75.4749 104.084L84.522 91.2223M84.522 175.195L84.522 133.208M84.522 175.195L84.522 217.181M93.9288 120.67L84.522 133.208M93.9288 120.67L103.718 107.623M93.9288 120.67L93.9288 77.8484M84.522 133.208L84.522 91.2223M84.522 217.181L84.5221 259.167M84.522 217.181L75.4749 227.631M84.522 91.2223L93.9288 77.8484M75.4749 227.631L75.4749 268.813M103.718 107.623L113.912 94.0343M103.718 107.623L103.718 63.9311M93.9288 77.8484L103.718 63.9311M103.718 63.9311L113.912 49.4372M113.912 138.632L124.539 125.412M113.912 138.632L113.912 94.0343M113.912 138.632L113.912 183.23M113.912 94.0343L124.539 79.8709M113.912 94.0343L113.912 49.4372M113.912 49.4372L124.539 34.3291M113.912 49.4372L113.912 4.83916M113.912 4.83916L113.912 0.410616M113.912 4.83916L116.844 0.410616M124.539 125.412L124.539 79.8709M124.539 125.412L124.539 170.955M135.626 65.0941L124.539 79.8709M135.626 65.0941L147.201 49.6644M135.626 65.0941L135.626 18.5674M124.539 79.8709L124.539 34.3291M124.539 170.955L124.539 216.497M124.539 170.955L113.912 183.23M124.539 34.3291L135.626 18.5674M124.539 34.3291L124.539 0.410615M113.912 183.23L113.912 227.827M147.201 49.6644L159.302 33.5372M147.201 49.6644L147.201 2.10892M135.626 18.5674L147.201 2.10892M135.626 18.5674L135.626 0.410615M124.539 0.172268L124.539 0.410615M147.201 2.10892L148.396 0.410614M147.201 2.10892L147.201 0.410614M159.302 82.1681L171.961 66.419M159.302 82.1681L159.302 33.5372M159.302 82.1681L159.302 130.798M159.302 33.5372L171.961 16.6633M159.302 33.5372L159.302 0.410614M148.685 -4.61122e-05L148.396 0.410614M171.961 66.419L171.961 16.6633M171.961 66.419L171.961 116.175M171.961 16.6633L171.961 0.410613M171.961 16.6633L184.155 0.410613M171.961 116.175L171.961 165.931M171.961 116.175L159.302 130.798M159.302 130.798L159.302 179.429M213.717 14.4748L213.717 67.941M213.717 14.4748L225.022 0.410611M213.717 14.4748L213.717 0.410612M199.123 0.0237089L199.123 0.410612M213.717 67.941L213.717 121.407M213.717 67.941L229.054 50.2236M225.147 0.255753L225.022 0.410611M42.5069 380.472L50.3015 373.546M42.5069 380.472L42.5069 342.22M42.5069 380.472L42.5069 418.725M34.9845 349.572L27.7205 356.672M34.9845 349.572L42.5069 342.22M34.9845 349.572L34.9845 311.988M27.7205 356.672L27.7205 319.733M27.7205 356.672L20.7026 363.532M20.7026 399.847L20.7026 363.532M20.7026 399.847L18.1314 402.132L13.9169 405.877M20.7026 399.847L20.7026 436.163M42.5069 342.22L50.3015 334.601M42.5069 342.22L42.5069 303.967M34.9845 311.988L27.7205 319.733M34.9845 311.988L42.5069 303.967M27.7205 319.733L20.7026 327.217M20.7026 363.532L20.7026 327.217M20.7026 363.532L13.9169 370.164M42.5069 303.967L50.3015 295.656M20.7026 290.902L13.9169 298.74M20.7026 290.902L20.7026 327.217M20.7026 327.217L19.8409 328.134L18.1314 329.959L13.9169 334.452M50.3015 373.546L50.3015 334.601M50.3015 373.546L50.3015 412.492M58.3834 326.702L50.3015 334.601M58.3834 326.702L66.7687 318.506M58.3834 326.702L58.3834 287.039M50.3015 334.601L50.3015 295.656M50.3015 412.492L50.3015 451.437M50.3015 412.492L42.5069 418.725M50.3015 295.656L58.3834 287.039M42.5069 418.725L42.5069 456.978M66.7687 318.506L75.4749 309.995M66.7687 318.506L66.7687 278.096M58.3834 287.039L59.4136 285.938L66.7687 278.096M66.7687 278.096L75.4749 268.813M75.4749 351.177L76.5875 350.19L84.5221 343.139M75.4749 351.177L75.4749 309.995M75.4749 351.177L75.4749 392.359M75.4749 309.995L84.5221 301.153M75.4749 309.995L75.4749 268.813M75.4749 268.813L84.5221 259.167M84.5221 343.139L84.5221 301.153M84.5221 343.139L84.5221 385.125M93.9289 291.958L84.5221 301.153M93.9289 291.958L103.718 282.39M93.9289 291.958L93.9289 249.136M84.5221 301.153L84.5221 259.167M84.5221 385.125L84.5221 427.111M84.5221 385.125L75.4749 392.359M84.5221 259.167L93.9289 249.136M75.4749 392.359L75.4749 433.542M103.718 282.39L113.912 272.425M103.718 282.39L103.718 238.698M93.9289 249.136L103.718 238.698M103.718 238.698L113.912 227.827M113.912 317.023L124.539 307.581M113.912 317.023L113.912 272.425M113.912 317.023L113.912 361.621M113.912 272.425L124.539 262.038M113.912 272.425L113.912 227.827M113.912 227.827L124.539 216.497M124.539 307.581L124.539 262.038M124.539 307.581L124.539 353.122M135.626 251.202L124.539 262.038M135.626 251.202L147.201 239.887M135.626 251.202L135.626 204.676M124.539 262.038L124.539 216.497M124.539 353.122L124.539 398.664M124.539 353.122L113.912 361.621M124.539 216.497L135.626 204.676M113.912 361.621L113.912 406.219M147.201 239.887L159.302 228.06M147.201 239.887L147.201 192.331M135.626 204.676L147.201 192.331M147.201 192.331L159.302 179.429M159.302 276.691L171.961 265.442M159.302 276.691L159.302 228.06M159.302 276.691L159.302 325.322M159.302 228.06L171.961 215.686M159.302 228.06L159.302 179.429M159.302 179.429L171.961 165.931M171.961 265.442L171.961 215.686M171.961 265.442L171.961 315.198M185.221 202.726L171.961 215.686M185.221 202.726L199.123 189.138M185.221 202.726L185.221 151.793M171.961 215.686L171.961 165.931M171.961 315.198L171.961 364.954M171.961 315.198L159.302 325.322M171.961 165.931L185.221 151.793M159.302 325.322L159.302 373.953M199.123 189.138L213.717 174.874M199.123 189.138L199.123 136.968M185.221 151.793L199.123 136.968M199.123 136.968L213.717 121.407M213.717 228.339L229.054 214.711M213.717 228.339L213.717 174.874M213.717 228.339L213.717 281.805M213.717 174.874L229.054 159.882M213.717 174.874L213.717 121.407M213.717 121.407L229.054 105.053M229.054 214.711L229.054 159.882M229.054 214.711L229.054 269.539M245.194 144.106L229.054 159.882M245.194 144.106L262.201 127.483M245.194 144.106L245.194 87.8431M229.054 159.882L229.054 105.053M229.054 269.539L229.054 324.369M229.054 269.539L213.717 281.805M229.054 105.053L245.194 87.8431M229.054 105.053L229.054 50.2236M213.717 281.805L213.717 335.272M262.201 127.483L280.148 109.942M262.201 127.483L262.201 69.7086M245.194 87.8431L262.201 69.7086M229.054 50.2236L229.054 0.410611M262.201 69.7086L280.148 50.5731M280.148 169.311L299.111 152.46M280.148 169.311L280.148 109.942M280.148 169.311L280.148 228.68M280.148 109.942L299.111 91.4058M280.148 109.942L280.148 50.5731M280.148 50.5731L299.111 30.3518M280.148 50.5731L280.148 0.410609M299.111 152.46L299.111 91.4058M299.111 152.46L299.111 213.514M319.185 71.7858L299.111 91.4058M319.185 71.7858L340.464 50.9854M319.185 71.7858L319.184 8.94847M299.111 91.4058L299.111 30.3518M299.111 213.514L299.111 274.568M299.111 213.514L280.148 228.68M299.111 30.3518L319.184 8.94847M299.111 30.3518L299.111 0.410608M280.148 228.68L280.148 288.049M340.464 50.9854L363.067 28.8942M340.464 50.9854L340.464 0.410606M319.184 8.94847L319.184 0.410607M319.184 8.94847L327.191 0.410607M363.067 95.631L387.115 74.2626M363.067 95.631L363.067 28.8942M363.067 95.631L363.067 162.368M363.067 28.8942L387.115 5.38886M363.067 28.8942L363.067 0.410605M387.115 74.2626L387.115 5.38886M387.115 74.2626L387.115 143.136M387.115 5.38886L392.208 0.410604M387.115 5.38886L387.115 0.410604M387.115 143.136L387.115 212.01M387.115 143.136L363.067 162.368M363.067 162.368L363.067 229.105M469.482 1.07231L469.482 77.2653M469.482 1.07231L469.482 0.4106M469.482 1.07231L470.226 0.4106M469.482 77.2653L469.482 153.458M469.482 77.2653L500.971 52.0824M42.5069 533.484L45.3965 531.943L46.3693 531.425L50.3015 529.328M42.5069 533.484L42.5069 495.231M42.5069 533.484L42.5069 571.736M34.9845 499.91L29.5137 503.313L27.7205 504.427M34.9845 499.91L41.5516 495.824L42.5069 495.231M34.9845 499.91L34.9845 462.325M27.7205 504.427L27.7205 467.489M27.7205 504.427L20.7026 508.793M20.7026 545.108L20.7026 508.793M20.7026 545.108L18.1314 546.479L13.9169 548.726M20.7026 545.108L20.7026 581.423M42.5069 495.231L44.4287 494.035L50.3015 490.382M42.5069 495.231L42.5069 456.978M34.9845 462.325L27.7205 467.489M34.9845 462.325L42.5069 456.978M27.7205 467.489L22.4346 471.247L20.7026 472.478M20.7026 508.793L20.7026 472.478M20.7026 508.793L13.9169 513.014M42.5069 456.978L50.3015 451.437M20.7026 436.163L19.841 436.851L13.9169 441.589M20.7026 436.163L20.7026 472.478M20.7026 472.478L18.1314 474.306L13.9169 477.301M50.3015 529.328L50.3015 490.382M50.3015 529.328L50.3015 568.274M58.3834 485.356L50.3015 490.382M58.3834 485.356L66.7687 480.14M58.3834 485.356L58.3834 445.692M50.3015 490.382L50.3015 451.437M50.3015 568.274L50.3015 607.219M50.3015 568.274L42.5069 571.736M50.3015 451.437L58.3834 445.692M42.5069 571.736L42.5069 609.989M66.7687 480.14L72.172 476.78L73.2671 476.097L75.4749 474.725M66.7687 480.14L66.7687 439.731M58.3834 445.692L66.7687 439.731M66.7687 439.731L75.4749 433.542M75.4749 515.907L84.5221 511.083M75.4749 515.907L75.4749 474.725M75.4749 515.907L75.4749 557.089M75.4749 474.725L84.5221 469.097M75.4749 474.725L75.4749 433.542M75.4749 433.542L84.5221 427.111M84.5221 511.083L84.5221 469.097M84.5221 511.083L84.5221 553.069M93.9289 463.246L88.0061 466.93L86.8385 467.655L84.5221 469.097M93.9289 463.246L103.718 457.157M93.9289 463.246L93.9289 420.424M84.5221 469.097L84.5221 427.111M84.5221 553.069L84.5221 595.056M84.5221 553.069L75.4749 557.089M84.5221 427.111L93.9289 420.424M75.4749 557.089L75.4749 598.271M103.718 457.157L113.912 450.816M103.718 457.157L103.718 413.466M93.9289 420.424L103.718 413.466M103.718 413.466L113.912 406.219M113.912 495.414L119.17 492.61L120.502 491.901L124.539 489.748M113.912 495.414L113.912 450.816M113.912 495.414L113.912 540.012M113.912 450.816L124.539 444.207M113.912 450.816L113.912 406.219M113.912 406.219L124.539 398.664M124.539 489.748L124.539 444.207M124.539 489.748L124.539 535.29M135.626 437.311L124.539 444.207M135.626 437.311L147.201 430.11M135.626 437.311L135.626 390.783M124.539 444.207L124.539 398.664M124.539 535.29L124.539 580.833M124.539 535.29L121.841 536.49L113.912 540.012M124.539 398.664L135.626 390.783M113.912 540.012L113.912 584.609M147.201 430.11L159.302 422.584M147.201 430.11L147.201 382.554M135.626 390.783L147.201 382.554M147.201 382.554L159.302 373.953M159.302 471.215L171.961 464.465M159.302 471.215L159.302 422.584M159.302 471.215L159.302 519.846M159.302 422.584L171.961 414.71M159.302 422.584L159.302 373.953M159.302 373.953L171.961 364.954M171.961 464.465L171.961 414.71M171.961 464.465L171.962 514.221M185.221 406.462L171.961 414.71M185.221 406.462L199.123 397.815M185.221 406.462L185.221 355.528M171.961 414.71L171.961 364.954M171.962 514.221L171.962 563.977M171.962 514.221L159.302 519.846M171.961 364.954L185.221 355.528M159.302 519.846L159.302 568.476M199.123 397.815L213.717 388.738M199.123 397.815L199.123 345.645M185.221 355.528L199.123 345.645M199.123 345.645L213.717 335.272M213.717 442.203L229.054 434.026M213.717 442.203L213.717 388.738M213.717 442.203L213.717 495.669M213.717 388.738L229.054 379.197M213.717 388.738L213.717 335.272M213.717 335.272L229.054 324.369M229.054 434.026L229.054 379.197M229.054 434.026L229.054 488.855M245.194 369.158L229.054 379.197M245.194 369.158L262.201 358.58M245.194 369.158L245.194 312.895M229.054 379.197L229.054 324.369M229.054 488.855L229.054 543.684M229.054 488.855L213.717 495.669M229.054 324.369L245.194 312.895M213.717 495.669L213.717 549.136M262.201 358.58L280.148 347.417M262.201 358.58L262.201 300.806M245.194 312.895L262.201 300.806M262.201 300.806L280.148 288.049M280.148 406.787L299.111 396.676M280.148 406.787L280.148 347.417M280.148 406.787L280.148 466.156M280.148 347.417L299.111 335.622M280.148 347.417L280.148 288.049M280.148 288.049L299.111 274.568M299.111 396.676L299.111 335.622M299.111 396.676L299.111 457.73M319.185 323.137L299.111 335.622M319.185 323.137L340.464 309.9M319.185 323.137L319.185 260.299M299.111 335.622L299.111 274.568M299.111 457.73L299.111 518.784M299.111 457.73L280.148 466.156M299.111 274.568L319.185 260.299M280.148 466.156L280.148 525.524M340.464 309.9L363.067 295.842M340.464 309.9L340.464 245.172M319.185 260.299L340.464 245.172M340.464 245.172L363.067 229.105M363.067 362.579L387.115 349.758M363.067 362.579L363.067 295.842M363.067 362.579L363.067 429.316M363.067 295.842L387.115 280.884M363.067 295.842L363.067 229.105M363.067 229.105L387.115 212.01M387.115 349.758L387.115 280.884M387.115 349.758L387.115 418.631M412.754 264.936L387.115 280.884M412.754 264.936L440.148 247.897M412.754 264.936L412.754 193.783M387.115 280.884L387.115 212.01M387.115 418.631L387.115 487.505M387.115 418.631L363.067 429.316M387.115 212.01L412.754 193.783M363.067 429.316L363.067 496.052M440.148 247.897L469.482 229.651M440.148 247.897L440.148 174.31M412.754 193.783L440.148 174.31M440.148 174.31L469.482 153.458M469.482 305.844L500.971 289.055M469.482 305.844L469.482 229.651M469.482 305.844L469.482 382.036M469.482 229.651L500.971 210.065M469.482 229.651L469.482 153.458M469.482 153.458L500.971 131.073M500.971 289.055L500.971 210.065M500.971 289.055L500.971 368.046M534.861 188.985L500.971 210.065M534.861 188.985L571.438 166.234M534.861 188.985L534.861 106.982M500.971 210.065L500.971 131.073M500.971 368.046L500.971 447.037M500.971 368.046L469.482 382.036M500.971 131.073L534.861 106.982M500.971 131.073L500.971 52.0824M469.482 382.036L469.482 458.229M571.438 166.234L611.033 141.606M571.438 166.234L571.438 80.9821M534.861 106.982L571.438 80.9821M500.971 52.0824L500.971 0.410599M571.438 80.9821L611.033 52.8346M571.438 80.9821L571.438 0.410596M611.033 230.377L654.037 207.449M611.033 230.377L611.033 141.606M611.033 230.377L611.033 319.147M611.033 141.606L654.037 114.857M611.033 141.606L611.033 52.8346M611.033 52.8346L654.037 22.2651M611.033 52.8346L611.033 0.410594M654.037 207.449L654.037 114.857M654.037 207.449L654.037 300.041M700.91 85.7014L654.037 114.857M700.91 85.7014L752.198 53.7998M700.91 85.7014L700.91 0.41059M654.037 114.857L654.037 22.2651M654.037 300.041L654.037 392.633M654.037 300.041L611.033 319.147M654.037 22.2651L654.037 0.410592M654.037 22.2651L684.781 0.410591M611.033 319.147L611.033 407.918M752.198 53.7998L808.558 18.7445M752.198 53.7998L752.198 0.410588M808.558 125.067L870.779 91.8943M808.558 125.067L808.558 18.7445M808.558 125.067L808.558 231.389M808.558 18.7445L838.034 0.410584M808.558 18.7445L808.558 0.410586M870.779 91.8943L870.779 203.746M870.779 91.8943L870.778 0.410583M870.779 203.746L870.779 315.596M870.779 203.746L808.558 231.389M808.558 231.389L808.558 337.711M42.5069 686.495L43.4659 686.324L44.4287 686.153L45.3965 685.981L46.3693 685.808L49.3113 685.285L50.3015 685.109M42.5069 686.495L42.5069 648.241M42.5069 686.495L42.5069 724.747M34.9845 650.247L29.5137 651.706L27.7205 652.183M34.9845 650.247L39.6548 649.002L42.5069 648.241M34.9845 650.247L34.9845 612.663M27.7205 652.183L27.7205 615.244M27.7205 652.183L22.4346 653.592L20.7026 654.055M20.7026 690.37L19.841 690.522L16.4344 691.127L13.9169 691.576M20.7026 690.37L20.7026 654.055M20.7026 690.37L20.7026 726.685M42.5069 648.241L43.4659 647.986L44.4287 647.729L45.3965 647.472L46.3693 647.212L50.3015 646.164M42.5069 648.241L42.5069 609.989M34.9845 612.663L29.5137 614.607L27.7205 615.244M34.9845 612.663L42.5069 609.989M27.7205 615.244L24.1816 616.503L21.5667 617.432L20.7026 617.739M20.7026 654.055L19.841 654.283L18.1315 654.739L16.4344 655.192L15.5915 655.416L13.9169 655.863M20.7026 654.055L20.7026 617.739M42.5069 609.989L48.326 607.92L50.3015 607.219M20.7026 581.423L15.5915 583.694L13.9169 584.438M20.7026 581.423L20.7026 617.739M20.7026 617.739L14.7524 619.853L13.9169 620.151M50.3015 685.109L50.3015 646.164M50.3015 685.109L50.3015 724.055M58.3834 644.01L50.3015 646.164M58.3834 644.01L66.7687 641.774M58.3834 644.01L58.3834 604.346M50.3015 646.164L50.3015 607.219M50.3015 724.055L50.3015 763M50.3015 724.055L42.5069 724.747M50.3015 607.219L58.3834 604.346M42.5069 724.747L42.5069 763M66.7687 641.774L68.914 641.202L72.172 640.333L75.4749 639.453M66.7687 641.774L66.7687 601.365M58.3834 604.346L59.4136 603.979L66.7687 601.365M66.7687 601.365L67.8389 600.986L68.914 600.603L69.9955 600.219L75.4749 598.271M75.4749 680.636L84.5221 679.028M75.4749 680.636L75.4749 639.453M75.4749 680.636L75.4749 721.818M75.4749 639.453L84.5221 637.042M75.4749 639.453L75.4749 598.271M75.4749 598.271L82.2269 595.871L83.372 595.464L84.5221 595.056M84.5221 679.028L84.5221 637.042M84.5221 679.028L84.5221 721.014M93.9289 634.534L95.1314 634.214L96.3389 633.891L97.5539 633.568L103.718 631.924M93.9289 634.534L89.1786 635.8L88.0061 636.113L86.8385 636.424L84.5221 637.042M93.9289 634.534L93.9289 591.712M84.5221 637.042L84.5221 595.056M84.5221 721.014L84.5221 763M84.5221 721.014L75.4749 721.818M84.5221 595.056L93.9289 591.712M75.4749 721.818L75.4749 763M103.718 631.924L112.615 629.552L113.912 629.207M103.718 631.924L103.718 588.233M93.9289 591.712L96.3389 590.855L103.718 588.233M103.718 588.233L107.491 586.891L113.912 584.609M113.912 673.805L119.17 672.87L120.502 672.634L124.539 671.916M113.912 673.805L113.912 629.207M113.912 673.805L113.912 718.402M113.912 629.207L124.539 626.374M113.912 629.207L113.912 584.609M113.912 584.609L124.539 580.833M124.539 671.916L124.539 626.374M124.539 671.916L124.539 717.458M135.626 623.419L124.539 626.374M135.626 623.419L147.201 620.333M135.626 623.419L135.626 576.892M124.539 626.374L124.539 580.833M124.539 717.458L124.539 763M124.539 717.458L121.841 717.698L116.527 718.17L113.912 718.402M124.539 580.833L135.626 576.892M113.912 718.402L113.912 763M147.201 620.333L156.226 617.928L159.302 617.107M147.201 620.333L147.201 572.777M135.626 576.892L147.201 572.777M147.201 572.777L153.184 570.651L159.302 568.476M159.302 665.738L171.962 663.488M159.302 665.738L159.302 617.107M159.302 665.738L159.302 714.369M159.302 617.107L171.962 613.733M159.302 617.107L159.302 568.476M159.302 568.476L171.962 563.977M171.962 663.488L171.962 613.733M171.962 663.488L171.962 713.244M185.221 610.198L181.848 611.098L171.962 613.733M185.221 610.198L199.123 606.492M185.221 610.198L185.221 559.264M171.962 613.733L171.962 563.977M171.962 713.244L171.962 763M171.962 713.244L159.302 714.369M171.962 563.977L185.221 559.264M159.302 714.369L159.302 763M199.123 606.492L213.717 602.602M199.123 606.492L199.123 554.323M185.221 559.264L199.123 554.323M199.123 554.323L213.717 549.136M213.717 656.067L229.054 653.342M213.717 656.067L213.717 602.602M213.717 656.067L213.717 709.534M213.717 602.602L229.054 598.513M213.717 602.602L213.717 549.136M213.717 549.136L229.054 543.684M229.054 653.342L229.054 598.513M229.054 653.342L229.054 708.171M245.194 594.21L229.054 598.513M245.194 594.21L262.201 589.677M245.194 594.21L245.194 537.948M229.054 598.513L229.054 543.684M229.054 708.171L229.054 763M229.054 708.171L215.593 709.368L213.717 709.534M229.054 543.684L245.194 537.948M213.717 709.534L213.717 763M262.201 589.677L280.148 584.893M262.201 589.677L262.201 531.903M245.194 537.948L257.865 533.445L262.201 531.903M262.201 531.903L280.148 525.524M280.148 644.262L299.111 640.892M280.148 644.262L280.148 584.893M280.148 644.262L280.148 703.631M280.148 584.893L299.111 579.838M280.148 584.893L280.148 525.524M280.148 525.524L299.111 518.784M299.111 640.892L299.111 579.838M299.111 640.892L299.111 701.946M319.185 574.487L299.111 579.838M319.185 574.487L340.464 568.815M319.185 574.487L319.185 511.65M299.111 579.838L299.111 518.784M299.111 701.946L299.111 763M299.111 701.946L280.148 703.631M299.111 518.784L319.185 511.65M280.148 703.631L280.148 763M340.464 568.815L363.067 562.789M340.464 568.815L340.464 504.086M319.185 511.65L340.464 504.086M340.464 504.086L363.067 496.052M363.067 629.526L387.115 625.252M363.067 629.526L363.067 562.789M363.067 629.526L363.067 696.263M363.067 562.789L387.115 556.379M363.067 562.789L363.067 496.052M363.067 496.052L387.115 487.505M387.115 625.252L387.115 556.379M387.115 625.252L387.115 694.126M412.754 549.544L387.115 556.379M412.754 549.544L440.148 542.241M412.754 549.544L412.754 478.392M387.115 556.379L387.115 487.505M387.115 694.126L387.115 763M387.115 694.126L363.067 696.263M387.115 487.505L412.754 478.392M363.067 696.263L363.067 763M440.148 542.241L469.482 534.422M440.148 542.241L440.148 468.656M412.754 478.392L440.148 468.656M440.148 468.656L469.482 458.229M469.482 610.615L500.971 605.018M469.482 610.615L469.482 534.422M469.482 610.615L469.482 686.807M469.482 534.422L500.971 526.028M469.482 534.422L469.482 458.229M469.482 458.229L500.971 447.037M500.971 605.018L500.971 526.028M500.971 605.018L500.971 684.009M534.861 516.993L500.971 526.028M534.861 516.993L571.438 507.243M534.861 516.993L534.861 434.991M500.971 526.028L500.971 447.037M500.971 684.009L500.971 763M500.971 684.009L469.482 686.807M500.971 447.037L534.861 434.991M469.482 686.807L469.482 763M571.438 507.243L611.033 496.688M571.438 507.243L571.438 421.991M534.861 434.991L571.438 421.991M571.438 421.991L611.033 407.918M611.033 585.459L654.037 577.816M611.033 585.459L611.033 496.688M611.033 585.459L611.033 674.229M611.033 496.688L654.037 485.224M611.033 496.688L611.033 407.918M611.033 407.918L654.037 392.633M654.037 577.816L654.037 485.224M654.037 577.816L654.037 670.408M700.91 472.729L654.037 485.224M700.91 472.729L752.198 459.057M700.91 472.729L700.91 375.972M654.037 485.224L654.037 392.633M654.037 670.408L654.037 763M654.037 670.408L611.033 674.229M654.037 392.633L700.91 375.972M611.033 674.229L611.033 763M752.198 459.057L808.558 444.033M752.198 459.057L752.198 357.742M700.91 375.972L752.198 357.742M752.198 357.742L808.558 337.711M808.558 550.356L870.779 539.298M808.558 550.356L808.558 444.033M808.558 550.356L808.558 656.678M808.558 444.033L870.779 427.447M808.558 444.033L808.558 337.711M808.558 337.711L870.779 315.596M870.779 427.447L870.779 539.298M870.779 427.447L870.779 315.596M870.779 539.298L870.779 651.149M870.779 651.149L870.779 763M870.779 651.149L808.558 656.678M808.558 656.678L808.558 763M42.5069 839.505L43.4659 839.676L44.4287 839.847L45.3965 840.019L46.3693 840.191L48.326 840.539L49.3113 840.715L50.3016 840.891M42.5069 839.505L42.5069 801.253M42.5069 839.505L42.5069 877.759M34.9845 800.584L27.7205 799.939M34.9845 800.584L42.5069 801.253M34.9845 800.584L34.9845 763M27.7205 799.939L26.8302 799.86L25.9436 799.781L25.0607 799.703L20.7026 799.315M27.7205 799.939L27.7205 763M20.7026 835.63L19.841 835.478L16.4344 834.872L13.917 834.424M20.7026 835.63L20.7026 799.315M20.7026 835.63L20.7026 871.945M42.5069 801.253L43.4659 801.338L44.4287 801.423L45.3965 801.51L50.3015 801.945M42.5069 801.253L42.5069 763M34.9845 763L27.7205 763M34.9845 763L42.5069 763M27.7205 763L20.7026 763M20.7026 799.315L20.7026 763M20.7026 799.315L18.1315 799.087L17.2811 799.011L13.917 798.712M42.5069 763L50.3015 763M20.7026 726.685L18.1315 726.913L17.2811 726.989L16.4344 727.064L15.5915 727.139L14.7524 727.213L13.9169 727.288M20.7026 726.685L20.7026 763M20.7026 763L13.917 763M50.3016 840.891L50.3015 801.945M50.3016 840.891L50.3016 879.836M58.3834 802.663L59.4136 802.755L60.4501 802.847L66.7687 803.408M58.3834 802.663L50.3015 801.945M58.3834 802.663L58.3834 763M50.3015 801.945L50.3015 763M50.3016 879.836L50.3016 918.781M50.3016 879.836L48.326 879.31L47.3458 879.048L46.3693 878.788L45.3965 878.528L44.4287 878.271L43.4659 878.013L42.5069 877.759M50.3015 763L58.3834 763M42.5069 877.759L42.5069 916.011M66.7687 803.408L75.4749 804.182M66.7687 803.408L66.7687 763M58.3834 763L66.7687 763M66.7687 763L75.4749 763M75.4749 845.364L84.5221 846.972M75.4749 845.364L75.4749 804.182M75.4749 845.364L75.4749 886.547M75.4749 804.182L84.5221 804.986M75.4749 804.182L75.4749 763M75.4749 763L84.5221 763M84.5221 846.972L84.5221 804.986M84.5221 846.972L84.5221 888.958M93.9289 805.822L84.5221 804.986M93.9289 805.822L103.718 806.692M93.9289 805.822L93.9289 763M84.5221 804.986L84.5221 763M84.5221 888.958L84.5221 930.944M84.5221 888.958L75.4749 886.547M84.5221 763L93.9289 763M75.4749 886.547L75.4749 927.729M103.718 806.692L107.491 807.027L111.324 807.368L113.912 807.598M103.718 806.692L103.718 763M93.9289 763L103.718 763M103.718 763L113.912 763M113.912 852.195L119.17 853.13L120.502 853.366L124.539 854.084M113.912 852.195L113.912 807.598M113.912 852.195L113.912 896.793M113.912 807.598L116.527 807.83L121.841 808.302L124.539 808.542M113.912 807.598L113.912 763M113.912 763L124.539 763M124.539 854.084L124.539 808.542M124.539 854.084L124.539 899.626M135.626 809.527L134.213 809.402L124.539 808.542M135.626 809.527L147.201 810.555M135.626 809.527L135.626 763M124.539 808.542L124.539 763M124.539 899.626L124.539 945.167M124.539 899.626L113.912 896.793M124.539 763L135.626 763M113.912 896.793L113.912 941.391M147.201 810.555L159.302 811.631M147.201 810.555L147.201 763M135.626 763L147.201 763M147.201 763L159.302 763M159.302 860.262L171.962 862.511M159.302 860.262L159.302 811.631M159.302 860.262L159.302 908.893M159.302 811.631L171.962 812.756M159.302 811.631L159.302 763M159.302 763L171.962 763M171.962 862.511L171.962 812.756M171.962 862.511L171.962 912.267M185.221 813.934L171.962 812.756M185.221 813.934L199.123 815.169M185.221 813.934L185.221 763M171.962 812.756L171.962 763M171.962 912.267L171.962 962.023M171.962 912.267L159.302 908.893M171.962 763L185.221 763M159.302 908.893L159.302 957.524M199.123 815.169L213.717 816.466M199.123 815.169L199.123 763M185.221 763L199.123 763M199.123 763L213.717 763M213.717 869.932L229.054 872.658M213.717 869.932L213.717 816.466M213.717 869.932L213.717 923.398M213.717 816.466L229.054 817.828M213.717 816.466L213.717 763M213.717 763L229.054 763M229.054 872.658L229.054 817.828M229.054 872.658L229.054 927.486M245.194 819.263L229.054 817.828M245.194 819.263L262.201 820.774M245.194 819.263L245.194 763M229.054 817.828L229.054 763M229.054 927.486L229.054 982.316M229.054 927.486L213.717 923.398M229.054 763L245.194 763M213.717 923.398L213.717 976.864M262.201 820.774L280.148 822.369M262.201 820.774L262.201 763M245.194 763L262.201 763M262.201 763L280.148 763M280.148 881.737L299.111 885.108M280.148 881.737L280.148 822.369M280.148 881.737L280.148 941.107M280.148 822.369L299.111 824.054M280.148 822.369L280.148 763M280.148 763L299.111 763M299.111 885.108L299.111 824.054M299.111 885.108L299.111 946.162M319.185 825.837L299.111 824.054M319.185 825.837L340.464 827.729M319.185 825.837L319.185 763M299.111 824.054L299.111 763M299.111 946.162L299.111 1007.22M299.111 946.162L280.148 941.107M299.111 763L319.185 763M280.148 941.107L280.148 1000.48M340.464 827.729L363.067 829.737M340.464 827.729L340.464 763M319.185 763L340.464 763M340.464 763L363.067 763M363.067 896.474L387.115 900.747M363.067 896.474L363.067 829.737M363.067 896.474L363.067 963.211M363.067 829.737L387.115 831.874M363.067 829.737L363.067 763M363.067 763L387.115 763M387.115 900.747L387.115 831.874M387.115 900.747L387.115 969.621M412.754 834.152L387.115 831.874M412.754 834.152L440.148 836.586M412.754 834.152L412.754 763M387.115 831.874L387.115 763M387.115 969.621L387.115 1038.49M387.115 969.621L363.067 963.211M387.115 763L412.754 763M363.067 963.211L363.067 1029.95M440.148 836.586L469.482 839.193M440.148 836.586L440.148 763M412.754 763L440.148 763M440.148 763L469.482 763M469.482 915.385L500.971 920.981M469.482 915.385L469.482 839.193M469.482 915.385L469.482 991.578M469.482 839.193L500.971 841.991M469.482 839.193L469.482 763M469.482 763L500.971 763M500.971 920.981L500.971 841.991M500.971 920.981L500.971 999.972M534.861 845.002L500.971 841.991M534.861 845.002L571.438 848.252M534.861 845.002L534.861 763M500.971 841.991L500.971 763M500.971 999.972L500.971 1078.96M500.971 999.972L469.482 991.578M500.971 763L534.861 763M469.482 991.578L469.482 1067.77M571.438 848.252L611.033 851.771M571.438 848.252L571.438 763M534.861 763L571.438 763M571.438 763L611.033 763M611.033 940.541L654.037 948.184M611.033 940.541L611.033 851.771M611.033 940.541L611.033 1029.31M611.033 851.771L654.037 855.592M611.033 851.771L611.033 763M611.033 763L654.037 763M654.037 948.184L654.037 855.592M654.037 948.184L654.037 1040.78M700.91 859.757L654.037 855.592M700.91 859.757L752.198 864.314M700.91 859.757L700.91 763M654.037 855.592L654.037 763M654.037 1040.78L654.037 1133.37M654.037 1040.78L611.033 1029.31M654.037 763L700.91 763M611.033 1029.31L611.033 1118.08M752.198 864.314L808.558 869.322M752.198 864.314L752.198 763M700.91 763L752.198 763M752.198 763L808.558 763M808.558 975.644L870.779 986.702M808.558 975.644L808.558 869.322M808.558 975.644L808.558 1081.97M808.558 869.322L870.779 874.851M808.558 869.322L808.558 763M808.558 763L870.779 763M870.779 874.851L870.779 986.702M870.779 874.851L870.779 763M870.779 986.702L870.779 1098.55M870.779 1098.55L870.779 1210.4M870.779 1098.55L808.558 1081.97M808.558 1081.97L808.558 1188.29M42.5069 992.516L46.3693 994.575L50.3016 996.672M42.5069 992.516L42.5069 954.264M42.5069 992.516L42.5069 1030.77M34.9845 950.922L27.7205 947.694M34.9845 950.922L42.5069 954.264M34.9845 950.922L34.9845 913.337M27.7205 947.694L27.7205 910.756M27.7205 947.694L22.4346 945.346L20.7026 944.576M20.7026 980.892L20.7026 944.576M20.7026 980.892L18.1315 979.52L13.917 977.274M20.7026 980.892L20.7026 1017.21M42.5069 954.264L50.3016 957.726M42.5069 954.264L42.5069 916.011M34.9845 913.337L27.7205 910.756M34.9845 913.337L42.5069 916.011M27.7205 910.756L24.1816 909.497L21.5668 908.568L20.7026 908.261M20.7026 944.576L20.7026 908.261M20.7026 944.576L15.5915 942.306L13.917 941.562M42.5069 916.011L48.326 918.08L50.3016 918.781M20.7026 871.945L19.841 871.717L18.1315 871.261L15.5915 870.584L13.917 870.137M20.7026 871.945L20.7026 908.261M20.7026 908.261L19.841 907.955L18.1315 907.347L13.917 905.85M50.3016 996.672L50.3016 957.726M50.3016 996.672L50.3016 1035.62M58.3834 961.318L57.3569 960.861L56.3342 960.407L52.2933 958.612L50.3016 957.726M58.3834 961.318L64.6421 964.099L66.7687 965.043M58.3834 961.318L58.3834 921.653M50.3016 957.726L50.3016 918.781M50.3016 1035.62L50.3016 1074.56M50.3016 1035.62L44.4287 1031.97L42.5069 1030.77M50.3016 918.781L58.3834 921.653M42.5069 1030.77L42.5069 1069.02M66.7687 965.043L67.8389 965.518L68.9141 965.996L72.172 967.443L73.2672 967.931L75.4749 968.911M66.7687 965.043L66.7687 924.635M58.3834 921.653L59.4136 922.02L66.7687 924.635M66.7687 924.635L67.8389 925.014L68.9141 925.397L69.9955 925.781L75.4749 927.729M75.475 1010.09L84.5221 1014.92M75.475 1010.09L75.4749 968.911M75.475 1010.09L75.475 1051.28M75.4749 968.911L84.5221 972.93M75.4749 968.911L75.4749 927.729M75.4749 927.729L84.5221 930.944M84.5221 1014.92L84.5221 972.93M84.5221 1014.92L84.5221 1056.9M93.9289 977.11L84.5221 972.93M93.9289 977.11L103.718 981.459M93.9289 977.11L93.9289 934.288M84.5221 972.93L84.5221 930.944M84.5221 1056.9L84.5221 1098.89M84.5221 1056.9L75.475 1051.28M84.5221 930.944L93.9289 934.288M75.475 1051.28L75.475 1092.46M103.718 981.459L113.912 985.988M103.718 981.459L103.718 937.767M93.9289 934.288L96.3389 935.145L103.718 937.767M103.718 937.767L107.491 939.109L111.324 940.471L113.912 941.391M113.912 1030.59L119.17 1033.39L124.539 1036.25M113.912 1030.59L113.912 985.988M113.912 1030.59L113.912 1075.18M113.912 985.988L124.539 990.71M113.912 985.988L113.912 941.391M113.912 941.391L124.539 945.167M124.539 1036.25L124.539 990.71M124.539 1036.25L124.539 1081.79M135.626 995.635L124.539 990.71M135.626 995.635L147.201 1000.78M135.626 995.635L135.626 949.108M124.539 990.71L124.539 945.167M124.539 1081.79L124.539 1127.34M124.539 1081.79L113.912 1075.18M124.539 945.167L135.626 949.108M113.912 1075.18L113.913 1119.78M147.201 1000.78L150.176 1002.1L159.302 1006.15M147.201 1000.78L147.201 953.223M135.626 949.108L147.201 953.223M147.201 953.223L148.685 953.75L153.184 955.349L159.302 957.524M159.302 1054.78L171.962 1061.53M159.302 1054.78L159.302 1006.15M159.302 1054.78L159.302 1103.42M159.302 1006.15L171.962 1011.78M159.302 1006.15L159.302 957.524M159.302 957.524L171.962 962.023M171.962 1061.53L171.962 1011.78M171.962 1061.53L171.962 1111.29M185.221 1017.67L176.862 1013.96L171.962 1011.78M185.221 1017.67L199.123 1023.85M185.221 1017.67L185.221 966.736M171.962 1011.78L171.962 962.023M171.962 1111.29L171.962 1161.05M171.962 1111.29L159.302 1103.42M171.962 962.023L185.221 966.736M159.302 1103.42L159.302 1152.05M199.123 1023.85L213.717 1030.33M199.123 1023.85L199.123 971.677M185.221 966.736L199.123 971.677M199.123 971.677L213.717 976.864M213.717 1083.8L229.054 1091.97M213.717 1083.8L213.717 1030.33M213.717 1083.8L213.717 1137.26M213.717 1030.33L229.054 1037.14M213.717 1030.33L213.717 976.864M213.717 976.864L229.054 982.316M229.054 1091.97L229.054 1037.14M229.054 1091.97L229.054 1146.8M245.194 1044.32L229.054 1037.14M245.194 1044.32L262.201 1051.87M245.194 1044.32L245.194 988.052M229.054 1037.14L229.054 982.316M229.054 1146.8L229.054 1201.63M229.054 1146.8L213.717 1137.26M229.054 982.316L245.194 988.052M213.717 1137.26L213.717 1190.73M262.201 1051.87L280.148 1059.84M262.201 1051.87L262.201 994.097M245.194 988.052L262.201 994.097M262.201 994.097L280.148 1000.48M280.148 1119.21L299.111 1129.32M280.148 1119.21L280.148 1059.84M280.148 1119.21L280.148 1178.58M280.148 1059.84L299.111 1068.27M280.148 1059.84L280.148 1000.48M280.148 1000.48L299.111 1007.22M299.111 1129.32L299.111 1068.27M299.111 1129.32L299.111 1190.38M319.185 1077.19L299.111 1068.27M319.185 1077.19L340.464 1086.64M319.185 1077.19L319.185 1014.35M299.111 1068.27L299.111 1007.22M299.111 1190.38L299.111 1251.43M299.111 1190.38L280.148 1178.58M299.111 1007.22L319.185 1014.35M280.148 1178.58L280.148 1237.95M340.464 1086.64L363.067 1096.68M340.464 1086.64L340.464 1021.91M319.185 1014.35L340.464 1021.91M340.464 1021.91L363.067 1029.95M363.067 1163.42L387.115 1176.24M363.067 1163.42L363.067 1096.68M363.067 1163.42L363.067 1230.16M363.067 1096.68L387.115 1107.37M363.067 1096.68L363.067 1029.95M363.067 1029.95L387.115 1038.49M387.115 1176.24L387.115 1107.37M387.115 1176.24L387.115 1245.12M412.754 1118.76L387.115 1107.37M412.754 1118.76L440.148 1130.93M412.754 1118.76L412.754 1047.61M387.115 1107.37L387.115 1038.49M387.115 1245.12L387.115 1313.99M387.115 1245.12L363.067 1230.16M387.115 1038.49L412.754 1047.61M363.067 1230.16L363.067 1296.9M440.148 1130.93L469.482 1143.96M440.148 1130.93L440.148 1057.34M412.754 1047.61L440.148 1057.34M440.148 1057.34L469.482 1067.77M469.482 1220.16L500.971 1236.94M469.482 1220.16L469.482 1143.96M469.482 1220.16L469.482 1296.35M469.482 1143.96L500.971 1157.95M469.482 1143.96L469.482 1067.77M469.482 1067.77L500.971 1078.96M500.971 1236.94L500.971 1157.95M500.971 1236.94L500.971 1315.94M534.861 1173.01L500.971 1157.95M534.861 1173.01L571.438 1189.26M534.861 1173.01L534.861 1091.01M500.971 1157.95L500.971 1078.96M500.971 1315.94L500.971 1394.93M500.971 1315.94L469.482 1296.35M500.971 1078.96L534.861 1091.01M469.482 1296.35L469.482 1372.54M571.438 1189.26L611.033 1206.85M571.438 1189.26L571.438 1104.01M534.861 1091.01L571.438 1104.01M571.438 1104.01L611.033 1118.08M611.033 1295.62L654.037 1318.55M611.033 1295.62L611.033 1206.85M611.033 1295.62L611.033 1384.39M611.033 1206.85L654.037 1225.96M611.033 1206.85L611.033 1118.08M611.033 1118.08L654.037 1133.37M654.037 1318.55L654.037 1225.96M654.037 1318.55L654.037 1411.14M700.91 1246.78L654.037 1225.96M700.91 1246.78L752.198 1269.57M700.91 1246.78L700.91 1150.03M654.037 1225.96L654.037 1133.37M654.037 1411.14L654.037 1503.73M654.037 1411.14L611.033 1384.39M654.037 1133.37L700.91 1150.03M611.033 1384.39L611.033 1473.16M752.198 1269.57L808.558 1294.61M752.198 1269.57L752.198 1168.26M700.91 1150.03L752.198 1168.26M752.198 1168.26L808.558 1188.29M808.558 1400.93L870.779 1434.11M808.558 1400.93L808.558 1294.61M808.558 1400.93L808.558 1507.26M808.558 1294.61L870.779 1322.25M808.558 1294.61L808.558 1188.29M808.558 1188.29L870.779 1210.4M870.779 1322.25L870.779 1434.11M870.779 1322.25L870.779 1210.4M870.779 1434.11L870.778 1525.59M808.558 1507.26L838.034 1525.59M808.558 1507.26L808.558 1525.59M42.5069 1145.53L50.3016 1152.45M42.5069 1145.53L42.5069 1107.27M42.5069 1145.53L42.5069 1183.78M34.9845 1101.26L27.7205 1095.45M34.9845 1101.26L42.5069 1107.27M34.9845 1101.26L34.9845 1063.67M27.7205 1095.45L27.7205 1058.51M27.7205 1095.45L20.7026 1089.84M20.7026 1126.15L20.7026 1089.84M20.7026 1126.15L18.1315 1123.87L13.917 1120.12M20.7026 1126.15L20.7026 1162.47M42.5069 1107.27L50.3016 1113.51M42.5069 1107.27L42.5069 1069.02M34.9845 1063.67L27.7205 1058.51M34.9845 1063.67L42.5069 1069.02M27.7205 1058.51L22.4346 1054.75L20.7026 1053.52M20.7026 1089.84L19.841 1089.15L13.917 1084.41M20.7026 1089.84L20.7026 1053.52M42.5069 1069.02L50.3016 1074.56M20.7026 1017.21L13.917 1012.99M20.7026 1017.21L20.7026 1053.52M20.7026 1053.52L18.1315 1051.69L13.917 1048.7M50.3016 1152.45L50.3016 1113.51M50.3016 1152.45L50.3016 1191.4M58.3834 1119.97L50.3016 1113.51M58.3834 1119.97L66.7687 1126.68M58.3834 1119.97L58.3834 1080.31M50.3016 1113.51L50.3016 1074.56M50.3016 1191.4L50.3016 1230.34M50.3016 1191.4L42.5069 1183.78M50.3016 1074.56L58.3834 1080.31M42.5069 1183.78L42.5069 1222.03M66.7687 1126.68L68.9141 1128.39L75.475 1133.64M66.7687 1126.68L66.7687 1086.27M58.3834 1080.31L66.7687 1086.27M66.7687 1086.27L75.475 1092.46M75.475 1174.82L76.5876 1175.81L84.5221 1182.86M75.475 1174.82L75.475 1133.64M75.475 1174.82L75.475 1216.01M75.475 1133.64L84.5221 1140.87M75.475 1133.64L75.475 1092.46M75.475 1092.46L76.5876 1093.25L84.5221 1098.89M84.5221 1182.86L84.5221 1140.87M84.5221 1182.86L84.5221 1224.85M93.9289 1148.4L84.5221 1140.87M93.9289 1148.4L103.718 1156.23M93.9289 1148.4L93.9289 1105.58M84.5221 1140.87L84.5221 1098.89M84.5221 1224.85L84.5221 1266.83M84.5221 1224.85L75.475 1216.01M84.5221 1098.89L93.9289 1105.58M75.475 1216.01L75.475 1257.19M103.718 1156.23L113.913 1164.38M103.718 1156.23L103.718 1112.53M93.9289 1105.58L103.718 1112.53M103.718 1112.53L113.913 1119.78M113.913 1208.98L124.539 1218.42M113.913 1208.98L113.913 1164.38M113.913 1208.98L113.913 1253.57M113.913 1164.38L124.539 1172.88M113.913 1164.38L113.913 1119.78M113.913 1119.78L124.539 1127.34M124.539 1218.42L124.539 1172.88M124.539 1218.42L124.539 1263.96M135.626 1181.74L124.539 1172.88M135.626 1181.74L147.201 1191M135.626 1181.74L135.626 1135.22M124.539 1172.88L124.539 1127.34M124.539 1263.96L124.539 1309.5M124.539 1263.96L113.913 1253.57M124.539 1127.34L135.626 1135.22M113.913 1253.57L113.913 1298.17M147.201 1191L159.302 1200.68M147.201 1191L147.201 1143.45M135.626 1135.22L147.201 1143.45M147.201 1143.45L159.302 1152.05M159.302 1249.31L171.962 1260.56M159.302 1249.31L159.302 1200.68M159.302 1249.31L159.302 1297.94M159.302 1200.68L171.962 1210.8M159.302 1200.68L159.302 1152.05M159.302 1152.05L171.962 1161.05M171.962 1260.56L171.962 1210.8M171.962 1260.56L171.962 1310.31M185.221 1221.41L171.962 1210.8M185.221 1221.41L199.123 1232.52M185.221 1221.41L185.221 1170.47M171.962 1210.8L171.962 1161.05M171.962 1310.31L171.962 1360.07M171.962 1310.31L159.302 1297.94M171.962 1161.05L185.221 1170.47M159.302 1297.94L159.302 1346.57M199.123 1232.52L213.717 1244.19M199.123 1232.52L199.123 1180.35M185.221 1170.47L199.123 1180.35M199.123 1180.35L213.717 1190.73M213.717 1297.66L229.054 1311.29M213.717 1297.66L213.717 1244.19M213.717 1297.66L213.717 1351.13M213.717 1244.19L229.054 1256.46M213.717 1244.19L213.717 1190.73M213.717 1190.73L229.054 1201.63M229.054 1311.29L229.054 1256.46M229.054 1311.29L229.054 1366.12M245.194 1269.37L229.054 1256.46M245.194 1269.37L262.201 1282.97M245.194 1269.37L245.194 1213.1M229.054 1256.46L229.054 1201.63M229.054 1366.12L229.054 1420.95M229.054 1366.12L213.717 1351.13M229.054 1201.63L245.194 1213.1M213.717 1351.13L213.717 1404.59M262.201 1282.97L280.148 1297.32M262.201 1282.97L262.201 1225.19M245.194 1213.1L262.201 1225.19M262.201 1225.19L280.148 1237.95M280.148 1356.69L299.111 1373.54M280.148 1356.69L280.148 1297.32M280.148 1356.69L280.148 1416.06M280.148 1297.32L299.111 1312.49M280.148 1297.32L280.148 1237.95M280.148 1237.95L299.111 1251.43M299.111 1373.54L299.111 1312.49M299.111 1373.54L299.111 1434.59M319.185 1328.54L299.111 1312.49M319.185 1328.54L340.464 1345.56M319.185 1328.54L319.185 1265.7M299.111 1312.49L299.111 1251.43M299.111 1434.59L299.111 1495.65M299.111 1434.59L280.148 1416.06M299.111 1251.43L319.185 1265.7M280.148 1416.06L280.148 1475.43M340.464 1345.56L363.067 1363.63M340.464 1345.56L340.464 1280.83M319.185 1265.7L340.464 1280.83M340.464 1280.83L363.067 1296.9M363.067 1430.37L387.115 1451.74M363.067 1430.37L363.067 1363.63M363.067 1430.37L363.067 1497.11M363.067 1363.63L387.115 1382.86M363.067 1363.63L363.067 1296.9M363.067 1296.9L387.115 1313.99M387.115 1451.74L387.115 1382.86M387.115 1451.74L387.115 1520.61M412.754 1403.37L387.115 1382.86M412.754 1403.37L440.148 1425.28M412.754 1403.37L412.754 1332.22M387.115 1382.86L387.115 1313.99M387.115 1520.61L363.067 1497.11M387.115 1520.61L387.115 1525.59M387.115 1520.61L392.208 1525.59M387.115 1313.99L412.754 1332.22M363.067 1497.11L363.067 1525.59M440.148 1425.28L469.482 1448.73M440.148 1425.28L440.148 1351.69M412.754 1332.22L440.148 1351.69M440.148 1351.69L469.482 1372.54M469.482 1524.93L469.482 1448.73M469.482 1524.93L469.482 1525.59M469.482 1524.93L470.227 1525.59M469.482 1448.73L500.971 1473.92M469.482 1448.73L469.482 1372.54M469.482 1372.54L500.971 1394.93M534.861 1501.02L500.971 1473.92M534.861 1501.02L534.861 1419.02M534.861 1501.02L534.861 1525.59M534.861 1501.02L565.584 1525.59M500.971 1473.92L500.971 1394.93M500.971 1473.92L500.971 1525.59M500.971 1394.93L534.861 1419.02M534.861 1419.02L571.438 1445.02M571.438 1445.02L611.033 1473.16M571.438 1445.02L571.438 1525.59M611.033 1473.16L654.037 1503.73M611.033 1473.16L611.033 1525.59M654.037 1503.73L654.037 1525.59M654.037 1503.73L684.781 1525.59M42.5069 1298.54L50.3016 1308.23M42.5069 1298.54L42.5069 1260.29M42.5069 1298.54L42.5069 1336.79M34.9845 1251.6L27.7206 1243.21M34.9845 1251.6L42.5069 1260.29M34.9845 1251.6L34.9845 1214.01M27.7206 1243.21L27.7205 1206.27M27.7206 1243.21L20.7026 1235.1M20.7026 1271.41L20.7026 1235.1M20.7026 1271.41L13.917 1262.97M20.7026 1271.41L20.7026 1307.73M42.5069 1260.29L50.3016 1269.29M42.5069 1260.29L42.5069 1222.03M34.9845 1214.01L27.7205 1206.27M34.9845 1214.01L42.5069 1222.03M27.7205 1206.27L20.7026 1198.78M20.7026 1235.1L19.841 1234.1L13.917 1227.26M20.7026 1235.1L20.7026 1198.78M42.5069 1222.03L50.3016 1230.34M20.7026 1162.47L13.917 1155.84M20.7026 1162.47L20.7026 1198.78M20.7026 1198.78L19.841 1197.87L13.917 1191.55M50.3016 1308.23L50.3016 1269.29M50.3016 1308.23L50.3016 1347.18M58.3834 1278.63L50.3016 1269.29M58.3834 1278.63L66.7688 1288.31M58.3834 1278.63L58.3834 1238.96M50.3016 1269.29L50.3016 1230.34M50.3016 1347.18L50.3016 1386.13M50.3016 1347.18L42.5069 1336.79M50.3016 1230.34L58.3834 1238.96M42.5069 1336.79L42.5069 1375.04M66.7688 1288.31L75.475 1298.37M66.7688 1288.31L66.7687 1247.9M58.3834 1238.96L59.4136 1240.06L66.7687 1247.9M66.7687 1247.9L75.475 1257.19M75.475 1339.55L84.5221 1350.81M75.475 1339.55L75.475 1298.37M75.475 1339.55L75.475 1380.73M75.475 1298.37L84.5221 1308.82M75.475 1298.37L75.475 1257.19M75.475 1257.19L84.5221 1266.83M84.5221 1350.81L84.5221 1308.82M84.5221 1350.81L84.5221 1392.79M93.9289 1319.69L84.5221 1308.82M93.9289 1319.69L103.718 1330.99M93.9289 1319.69L93.9289 1276.86M84.5221 1308.82L84.5221 1266.83M84.5221 1392.79L84.5221 1434.78M84.5221 1392.79L75.475 1380.73M84.5221 1266.83L93.9289 1276.86M75.475 1380.73L75.475 1421.92M103.718 1330.99L113.913 1342.77M103.718 1330.99L103.718 1287.3M93.9289 1276.86L103.718 1287.3M103.718 1287.3L113.913 1298.17M113.913 1387.37L124.539 1400.59M113.913 1387.37L113.913 1342.77M113.913 1387.37L113.913 1431.97M113.913 1342.77L124.539 1355.04M113.913 1342.77L113.913 1298.17M113.913 1298.17L124.539 1309.5M124.539 1400.59L124.539 1355.04M124.539 1400.59L124.539 1446.13M135.626 1367.85L124.539 1355.04M135.626 1367.85L147.201 1381.22M135.626 1367.85L135.626 1321.32M124.539 1355.04L124.539 1309.5M124.539 1446.13L124.539 1491.67M124.539 1446.13L113.913 1431.97M124.539 1309.5L135.626 1321.32M113.913 1431.97L113.913 1476.56M147.201 1381.22L159.302 1395.2M147.201 1381.22L147.201 1333.67M135.626 1321.32L147.201 1333.67M147.201 1333.67L159.302 1346.57M159.302 1443.83L171.962 1459.58M159.302 1443.83L159.302 1395.2M159.302 1443.83L159.302 1492.46M159.302 1395.2L171.962 1409.83M159.302 1395.2L159.302 1346.57M159.302 1346.57L171.962 1360.07M171.962 1459.58L171.962 1409.83M185.221 1425.14L171.962 1409.83M185.221 1425.14L199.123 1441.2M185.221 1425.14L185.221 1374.21M171.962 1409.83L171.962 1360.07M171.962 1360.07L185.221 1374.21M159.302 1492.46L159.302 1525.59M199.123 1441.2L213.717 1458.06M199.123 1441.2L199.123 1389.03M185.221 1374.21L199.123 1389.03M199.123 1389.03L213.717 1404.59M213.717 1511.53L213.717 1458.06M213.717 1511.53L213.717 1525.59M213.717 1511.53L225.022 1525.59M213.717 1458.06L229.054 1475.78M213.717 1458.06L213.717 1404.59M213.717 1404.59L229.054 1420.95M245.194 1494.42L229.054 1475.78M245.194 1494.42L262.201 1514.07M245.194 1494.42L245.194 1438.16M245.194 1494.42L245.194 1525.59M229.054 1475.78L229.054 1420.95M229.054 1475.78L229.054 1525.59M229.054 1420.95L245.194 1438.16M225.147 1525.74L225.022 1525.59M262.201 1514.07L262.201 1456.29M262.201 1514.07L262.201 1525.59M262.201 1514.07L272.177 1525.59M245.194 1438.16L262.201 1456.29M262.201 1456.29L280.148 1475.43M280.148 1475.43L299.111 1495.65M280.148 1475.43L280.148 1525.59M319.185 1517.05L299.111 1495.65M319.185 1517.05L319.185 1525.59M319.185 1517.05L327.191 1525.59M299.111 1495.65L299.111 1525.59M42.5069 1451.55L50.3016 1464.02M42.5069 1451.55L42.5069 1413.3M42.5069 1451.55L42.5069 1489.8M34.9845 1401.93L27.7206 1390.96M34.9845 1401.93L42.5069 1413.3M34.9845 1401.93L34.9845 1364.35M27.7206 1390.96L27.7206 1354.02M27.7206 1390.96L20.7026 1380.36M20.7026 1416.67L20.7026 1380.36M20.7026 1416.67L13.917 1405.82M20.7026 1416.67L20.7026 1452.99M42.5069 1413.3L50.3016 1425.07M42.5069 1413.3L42.5069 1375.04M34.9845 1364.35L27.7206 1354.02M34.9845 1364.35L42.5069 1375.04M27.7206 1354.02L20.7026 1344.04M20.7026 1380.36L20.7026 1344.04M20.7026 1380.36L13.917 1370.11M42.5069 1375.04L50.3016 1386.13M20.7026 1307.73L13.917 1298.68M20.7026 1307.73L20.7026 1344.04M20.7026 1344.04L13.917 1334.4M50.3016 1464.02L50.3016 1425.07M50.3016 1464.02L50.3016 1502.96M58.3835 1437.28L50.3016 1425.07M58.3835 1437.28L66.7688 1449.95M58.3835 1437.28L58.3835 1397.62M50.3016 1425.07L50.3016 1386.13M50.3016 1502.96L42.5069 1489.8M50.3016 1502.96L50.3016 1525.59M50.3016 1386.13L58.3835 1397.62M42.5069 1489.8L42.5069 1525.59M66.7688 1449.95L75.475 1463.1M66.7688 1449.95L66.7688 1409.54M58.3835 1397.62L66.7688 1409.54M66.7688 1409.54L75.475 1421.92M75.475 1504.28L84.5221 1518.75M75.475 1504.28L75.475 1463.1M75.475 1504.28L75.475 1525.59M75.475 1463.1L84.5221 1476.76M75.475 1463.1L75.475 1421.92M75.475 1421.92L84.5221 1434.78M93.9289 1490.97L84.5221 1476.76M93.9289 1490.97L103.718 1505.76M93.9289 1490.97L93.9289 1448.15M93.9289 1490.97L93.9289 1525.59M84.5221 1476.76L84.5221 1518.75M84.5221 1476.76L84.5221 1434.78M84.5221 1518.75L88.7978 1525.59M84.5221 1518.75L84.5221 1525.59M84.5221 1434.78L93.9289 1448.15M103.718 1505.76L113.913 1521.16M103.718 1505.76L103.718 1462.07M103.718 1505.76L103.718 1525.59M93.9289 1448.15L103.718 1462.07M103.718 1462.07L113.913 1476.56M113.913 1521.16L113.913 1476.56M113.913 1521.16L116.844 1525.59M113.913 1521.16L113.913 1525.59M113.913 1476.56L124.539 1491.67M135.626 1507.43L124.539 1491.67M135.626 1507.43L147.201 1523.89M135.626 1507.43L135.626 1525.59M124.539 1491.67L124.539 1525.59M124.539 1525.83L124.539 1525.59M147.201 1523.89L147.201 1525.59M147.201 1523.89L148.396 1525.59M148.685 1526L148.396 1525.59M34.9845 1514.69L27.7206 1501.78M34.9845 1514.69L34.9845 1525.59M34.9845 1514.69L41.119 1525.59M27.7206 1501.78L20.7026 1489.31M27.7206 1501.78L27.7206 1525.59M20.7026 1452.99L13.917 1441.53M20.7026 1452.99L20.7026 1489.31M20.7026 1489.31L13.917 1477.25M20.7026 1489.31L20.7026 1525.59M13.9169 263.027L13.9169 227.315M13.9169 263.027L13.9169 298.74M7.35352 236.063L8.9744 233.904L13.9169 227.315M7.35352 236.063L7.35352 200.934M13.9169 227.315L13.9169 191.603M7.35352 200.934L8.97439 198.631L9.78858 197.471L13.9169 191.603M13.9169 191.603L13.9169 155.891M13.9169 155.891L13.9169 120.178M13.9169 298.74L13.9169 334.452M13.9169 120.178L13.9169 84.4654M13.9169 84.4654L7.35352 95.5476M13.9169 84.4654L13.9169 48.7533M7.35352 95.5476L7.35351 60.4185M13.9169 405.877L13.9169 370.164M13.9169 405.877L13.9169 441.589M7.35353 376.58L8.9744 374.996L9.78859 374.199L13.9169 370.164M7.35353 376.58L7.35353 341.451M13.9169 370.164L13.9169 334.452M7.35353 341.451L13.9169 334.452M13.9169 441.589L13.9169 477.301M13.9169 548.726L13.9169 513.014M13.9169 548.726L13.9169 584.438M7.35353 517.097L8.16147 516.593L8.97441 516.089L9.7886 515.581L13.9169 513.014M7.35353 517.097L7.35353 481.968M13.9169 513.014L13.9169 477.301M7.35353 481.968L13.9169 477.301M13.9169 584.438L13.9169 620.151M13.9169 691.576L13.9169 655.863M13.9169 691.576L13.9169 727.288M7.35354 657.613L13.9169 655.863M7.35354 657.613L7.35354 622.483M13.9169 655.863L13.9169 620.151M7.35354 622.483L8.16148 622.196L8.97441 621.907L9.7886 621.617L13.9169 620.151M13.9169 727.288L13.917 763M13.917 834.424L13.917 798.712M13.917 834.424L13.917 870.137M7.35355 798.129L13.917 798.712M7.35355 798.129L7.35355 763M13.917 798.712L13.917 763M7.35355 763L13.917 763M13.917 870.137L13.917 905.85M13.917 977.274L13.917 941.562M13.917 977.274L13.917 1012.99M7.35355 938.646L8.97443 939.365L12.2549 940.824L13.917 941.562M7.35355 938.646L7.35355 903.517M13.917 941.562L13.917 905.85M7.35355 903.517L8.16149 903.804L8.97442 904.092L9.78861 904.382L13.917 905.85M13.917 1012.99L13.917 1048.7M13.917 1120.12L13.917 1084.41M13.917 1120.12L13.917 1155.84M7.35356 1079.16L8.97443 1080.46L9.78862 1081.11L13.917 1084.41M7.35356 1079.16L7.35356 1044.03M13.917 1084.41L13.917 1048.7M7.35356 1044.03L8.1615 1044.61L13.917 1048.7M13.917 1155.84L13.917 1191.55M13.917 1262.97L13.917 1227.26M13.917 1262.97L13.917 1298.68M7.35357 1219.68L8.97444 1221.55L9.78863 1222.49L13.917 1227.26M7.35357 1219.68L7.35356 1184.55M13.917 1227.26L13.917 1191.55M7.35356 1184.55L8.1615 1185.41L13.917 1191.55M13.917 1298.68L13.917 1334.4M13.917 1405.82L13.917 1370.11M13.917 1405.82L13.917 1441.53M7.35357 1360.19L13.917 1370.11M7.35357 1360.19L7.35357 1325.07M13.917 1370.11L13.917 1334.4M7.35357 1325.07L8.97444 1327.37L9.78863 1328.53L13.917 1334.4M13.917 1441.53L13.917 1477.25M7.35358 1500.71L13.917 1512.96M7.35358 1500.71L7.35358 1465.58M7.35358 1500.71L7.35358 1525.59M13.917 1512.96L13.917 1477.25M13.917 1512.96L20.686 1525.59M13.917 1512.96L13.917 1525.59M7.35358 1465.58L8.97445 1468.46L13.917 1477.25M7.35351 60.4185L8.97439 57.5381L13.9169 48.7533M13.9169 48.7533L13.9169 13.041M13.9169 13.041L20.686 0.41062M13.9169 13.041L13.9169 0.41062M327.191 0.410607L319.184 0.410607M327.191 0.410607L340.464 0.410606M319.184 0.410607L299.111 0.410608M340.464 0.410606L344.431 0.410606L363.067 0.410605M363.067 0.410605L387.115 0.410604M171.961 0.410613L159.302 0.410614M171.961 0.410613L184.155 0.410613M7.35351 0.410621L13.9169 0.41062M13.9169 0.41062L20.686 0.41062M20.686 0.41062L20.7026 0.379687L20.7026 0.41062M20.686 0.41062L20.7026 0.41062M20.7026 0.41062L27.7205 0.41062M27.7205 0.41062L34.9845 0.410619M34.9845 0.410619L41.1189 0.410619M41.1189 0.410619L42.5069 0.410619M42.5069 0.410619L50.3015 0.410619M50.3015 0.410619L58.3834 0.410618M58.3834 0.410618L63.7032 0.410618M63.7032 0.410618L66.7687 0.410618M66.7687 0.410618L75.4749 0.410618M75.4749 0.410618L84.522 0.410617M84.522 0.410617L88.7977 0.410617M88.7977 0.410617L93.9288 0.410617M93.9288 0.410617L103.718 0.410616M103.718 0.410616L113.912 0.410616M113.912 0.410616L116.844 0.410616M116.844 0.410616L124.539 0.410615M124.539 0.410615L135.626 0.410615M135.626 0.410615L147.201 0.410614M147.201 0.410614L148.396 0.410614M148.396 0.410614L159.302 0.410614M185.221 0.410613L199.123 0.410612M185.221 0.410613L184.155 0.410613M199.123 0.410612L213.717 0.410612M213.717 0.410612L225.022 0.410611M225.022 0.410611L229.054 0.410611M229.054 0.410611L245.194 0.41061M245.194 0.41061L262.201 0.410609M262.201 0.410609L272.177 0.410609M272.177 0.410609L280.148 0.410609M280.148 0.410609L299.111 0.410608M387.115 0.410604L392.208 0.410604M392.208 0.410604L412.754 0.410603M412.754 0.410603L440.148 0.410602M440.148 0.410602L469.482 0.4106M469.482 0.4106L470.226 0.4106M470.226 0.4106L500.971 0.410599M500.971 0.410599L534.861 0.410598M534.861 0.410598L565.584 0.410596M565.584 0.410596L571.438 0.410596M571.438 0.410596L611.033 0.410594M611.033 0.410594L654.037 0.410592M654.037 0.410592L684.781 0.410591M684.781 0.410591L700.91 0.41059M700.91 0.41059L752.198 0.410588M752.198 0.410588L808.558 0.410586M808.558 0.410586L838.034 0.410584M838.034 0.410584L870.778 0.410583M870.778 0.410583L871 0.410583L871 1525.59L870.778 1525.59M185.221 1525.59L199.123 1525.59M185.221 1525.59L184.155 1525.59M184.155 1525.59L171.962 1525.59M171.962 1525.59L159.302 1525.59M159.302 1525.59L148.396 1525.59M148.396 1525.59L147.201 1525.59M147.201 1525.59L135.626 1525.59M135.626 1525.59L124.539 1525.59M124.539 1525.59L116.844 1525.59M116.844 1525.59L113.913 1525.59M113.913 1525.59L103.718 1525.59M103.718 1525.59L93.9289 1525.59M93.9289 1525.59L88.7978 1525.59M88.7978 1525.59L84.5221 1525.59M84.5221 1525.59L75.475 1525.59M75.475 1525.59L66.7688 1525.59M66.7688 1525.59L63.7032 1525.59M63.7032 1525.59L58.3835 1525.59M58.3835 1525.59L50.3016 1525.59M50.3016 1525.59L42.5069 1525.59M42.5069 1525.59L41.119 1525.59M41.119 1525.59L34.9845 1525.59M34.9845 1525.59L27.7206 1525.59M27.7206 1525.59L20.7026 1525.59M20.7026 1525.59L20.7026 1525.62L20.686 1525.59M20.7026 1525.59L20.686 1525.59M20.686 1525.59L13.917 1525.59M13.917 1525.59L7.35358 1525.59M870.778 1525.59L838.034 1525.59M838.034 1525.59L808.558 1525.59M808.558 1525.59L752.199 1525.59M752.199 1525.59L700.91 1525.59M700.91 1525.59L684.781 1525.59M684.781 1525.59L654.037 1525.59M654.037 1525.59L611.033 1525.59M611.033 1525.59L571.438 1525.59M571.438 1525.59L565.584 1525.59M565.584 1525.59L534.861 1525.59M534.861 1525.59L500.971 1525.59M500.971 1525.59L470.227 1525.59M470.227 1525.59L469.482 1525.59M469.482 1525.59L440.148 1525.59M440.148 1525.59L412.754 1525.59M412.754 1525.59L392.208 1525.59M392.208 1525.59L387.115 1525.59M387.115 1525.59L363.067 1525.59M363.067 1525.59L340.464 1525.59M340.464 1525.59L327.191 1525.59M327.191 1525.59L319.185 1525.59M319.185 1525.59L299.111 1525.59M299.111 1525.59L280.148 1525.59M280.148 1525.59L272.177 1525.59M272.177 1525.59L262.201 1525.59M262.201 1525.59L245.194 1525.59M245.194 1525.59L229.054 1525.59M229.054 1525.59L225.022 1525.59M225.022 1525.59L213.717 1525.59M213.717 1525.59L199.123 1525.59" stroke="url(#paint0_radial_26_2220)" stroke-opacity="0.6" stroke-width="1.8895" stroke-miterlimit="10" stroke-linecap="round" stroke-linejoin="round"/>
<defs>
<radialGradient id="paint0_radial_26_2220" cx="0" cy="0" r="1" gradientUnits="userSpaceOnUse" gradientTransform="translate(838.935 763) rotate(180) scale(1361.87 2388.75)">
<stop stop-color="#525252"/>
<stop offset="0.489074" stop-color="#CED2DF" stop-opacity="0"/>
</radialGradient>
</defs>
</svg>
