<svg width="871" height="1526" viewBox="0 0 871 1526" fill="none" xmlns="http://www.w3.org/2000/svg">
<path d="M863.646 1500.71L870 1488.86M863.646 1500.71L863.646 1465.58M863.646 1500.71L857.083 1512.96M863.646 1500.71L863.646 1525.59M870 1488.86L869.997 1493.17L869.984 1497.44L869.945 1501.62L869.869 1505.67L869.745 1509.54L869.559 1513.2L869.301 1516.59L868.971 1519.75L868.515 1522.45L867.987 1524.91L867.802 1525.59L863.646 1525.59M870 1488.86L870 1454.29M870 1454.29L870 1419.73M870 1454.29L863.646 1465.58M870 1419.73L870 1385.16M870 1419.73L863.646 1430.45M870 1385.16L870 1350.6M870 1385.16L863.646 1395.32M870 1350.6L870 1316.03M870 1350.6L863.646 1360.19M870 1316.03L870 1281.47M870 1316.03L863.646 1325.07M870 1281.47L870 1246.9M870 1281.47L863.646 1289.94M870 1246.9L870 1212.34M870 1246.9L863.646 1254.81M870 1212.34L870 1177.77M870 1212.34L863.646 1219.68M870 1177.77L870 1143.21M870 1177.77L863.646 1184.55M870 1143.21L870 1108.65M870 1143.21L863.646 1149.42M870 1108.65L870 1074.08M870 1108.65L863.646 1114.29M870 1074.08L870 1039.52M870 1074.08L868.43 1075.34L866.054 1077.24L863.646 1079.16M870 1039.52L870 1004.95M870 1039.52L868.43 1040.63L863.646 1044.03M870 1004.95L870 970.388M870 1004.95L863.646 1008.9M870 970.388L870 935.823M870 970.388L867.641 971.644L865.255 972.918L864.452 973.345L863.646 973.775M870 935.823L870 901.258M870 935.823L867.641 936.87L866.849 937.223L866.054 937.577L863.646 938.646M870 901.258L870 866.694M870 901.258L863.646 903.517M870 866.694L869.217 866.903L868.43 867.112L864.452 868.172L863.646 868.387M870 866.694L870 832.13M870 832.13L870 797.564M870 832.13L863.646 833.258M870 797.564L870 763M870 797.564L867.641 797.774L863.646 798.129M870 763L870 728.436M870 763L863.646 763M870 728.436L870 693.87M870 728.436L867.641 728.226L863.646 727.871M870 693.87L870 659.306M870 693.87L863.646 692.742M870 659.306L869.217 659.097L868.43 658.888L864.452 657.828L863.646 657.613M870 659.306L870 624.742M870 624.742L870 590.177M870 624.742L864.452 622.77L863.646 622.483M870 590.177L870 555.612M870 590.177L867.641 589.13L866.849 588.777L865.255 588.068L864.452 587.713L863.646 587.354M870 555.612L870 521.048M870 555.612L867.641 554.356L865.255 553.082L864.452 552.655L863.646 552.225M870 521.048L870 486.484M870 521.048L863.646 517.097M870 486.484L870 451.918M870 486.484L868.43 485.368L863.646 481.968M870 451.918L870 417.354M870 451.918L863.646 446.838M870 417.354L870 382.79M870 417.354L863.646 411.709M870 382.79L870 348.225M870 382.79L863.646 376.58M870 348.225L870 313.66M870 348.225L863.646 341.451M870 313.66L870 279.096M870 313.66L863.646 306.322M870 279.096L870 244.531M870 279.096L863.646 271.193M870 244.531L870 209.966M870 244.531L863.646 236.064M870 209.966L870 175.402M870 209.966L863.646 200.934M870 175.402L870 140.838M870 175.402L863.646 165.805M870 140.838L870 106.272M870 140.838L863.646 130.676M870 106.272L870 71.708M870 106.272L863.646 95.5477M870 71.708L870 37.1437M870 71.708L863.646 60.4185M870 37.1437L869.998 32.8303L869.984 28.5614L869.945 24.3814L869.869 20.3325L869.745 16.4592L869.559 12.8028L869.301 9.40686L868.971 6.25482L868.515 3.55001L867.987 1.08749L867.802 0.410691L863.646 0.410691M870 37.1437L863.646 25.2894M863.646 95.5477L863.646 130.676M863.646 95.5477L863.646 60.4185M863.646 95.5477L857.083 84.4655M863.646 130.676L857.083 120.178M863.646 130.676L863.646 165.805M863.646 236.064L863.646 271.193M863.646 236.064L863.646 200.934M863.646 236.064L862.026 233.904L857.083 227.315M863.646 271.193L857.083 263.027M863.646 271.193L863.646 306.322M863.646 376.58L863.646 411.709M863.646 376.58L863.646 341.451M863.646 376.58L862.026 374.996L861.211 374.199L857.083 370.164M863.646 411.709L862.838 410.99L862.026 410.269L857.083 405.877M863.646 411.709L863.646 446.838M863.646 517.097L862.838 516.593L857.083 513.014M863.646 517.097L863.646 552.225M863.646 517.097L863.646 481.968M863.646 552.225L862.026 551.362L861.211 550.926L860.392 550.49L857.083 548.726M863.646 552.225L863.646 587.354M863.646 657.613L863.646 692.742M863.646 657.613L863.646 622.483M863.646 657.613L857.083 655.863M863.646 692.742L862.838 692.598L862.026 692.454L861.211 692.309L858.745 691.87L857.083 691.576M863.646 692.742L863.646 727.871M863.646 798.129L863.646 833.258M863.646 798.129L863.646 763M863.646 798.129L857.083 798.712M863.646 833.258L862.838 833.402L862.026 833.546L861.211 833.691L857.083 834.424M863.646 833.258L863.646 868.387M863.646 938.646L863.646 973.775M863.646 938.646L863.646 903.517M863.646 938.646L862.026 939.365L858.745 940.824L857.916 941.192L857.083 941.562M863.646 973.775L862.026 974.638L861.211 975.074L860.392 975.51L857.083 977.274M863.646 973.775L863.646 1008.9M863.646 1079.16L863.646 1114.29M863.646 1079.16L863.646 1044.03M863.646 1079.16L862.026 1080.46L861.211 1081.11L857.083 1084.41M863.646 1114.29L862.838 1115.01L862.025 1115.73L857.083 1120.12M863.646 1114.29L863.646 1149.42M863.646 1219.68L863.646 1254.81M863.646 1219.68L863.646 1184.55M863.646 1219.68L862.025 1221.55L861.211 1222.49L857.083 1227.26M863.646 1254.81L857.083 1262.97M863.646 1254.81L863.646 1289.94M863.646 1360.19L863.646 1395.32M863.646 1360.19L863.646 1325.07M863.646 1360.19L857.083 1370.11M863.646 1395.32L857.083 1405.82M863.646 1395.32L863.646 1430.45M804.231 0.287563L804.231 0.410688M804.231 35.6455L812.617 49.0575M804.231 35.6455L795.525 21.7195M804.231 35.6455L804.231 76.054M804.231 35.6455L804.231 0.410688M812.617 49.0575L812.617 9.39415M812.617 49.0575L820.698 61.9842M812.617 49.0575L812.617 88.7209M812.617 9.39415L820.698 23.0389M812.617 9.39415L812.617 0.410688M812.617 9.39415L807.297 0.410688M836.015 48.8971L836.015 86.4816M836.015 48.8971L843.279 61.1605M836.015 48.8971L836.015 11.3133M836.015 48.8971L828.493 36.1976M836.015 86.4816L843.279 98.1M836.015 86.4816L828.493 74.451M836.015 86.4816L836.015 124.066M843.279 61.1605L843.279 98.1M843.279 61.1605L850.297 73.01M843.279 61.1605L843.279 24.2217M843.279 98.1L843.279 135.039M843.279 98.1L850.297 109.325M671.877 0.0238273L671.877 0.410682M671.877 32.6293L685.779 49.9242M671.877 32.6293L657.283 14.4749M671.877 32.6293L671.877 84.7991M671.877 32.6293L671.877 0.410682M685.779 49.9242L699.038 66.4191M685.779 49.9242L685.779 100.858M685.779 49.9242L685.779 0.410683M699.038 16.6634L699.038 66.4191M699.038 16.6634L711.698 33.5372M699.038 16.6634L699.038 0.410683M699.038 16.6634L686.845 0.410683M723.799 49.6644L723.799 97.2198M723.799 49.6644L735.374 65.0942M723.799 49.6644L723.799 2.10903M723.799 49.6644L711.698 33.5372M723.799 97.2198L735.374 111.622M723.799 97.2198L711.698 82.1674M723.799 97.2198L723.799 144.776M735.374 65.0942L735.374 111.622M735.374 65.0942L735.374 18.5675M735.374 65.0942L746.461 79.8709M735.374 111.622L746.461 125.413M735.374 111.622L735.374 158.148M767.282 107.623L767.282 151.314M767.282 107.623L777.071 120.67M767.282 107.623L767.282 63.9312M767.282 107.623L757.087 94.0344M767.282 151.314L777.071 163.492M767.282 151.314L757.087 138.632M767.282 151.314L767.282 195.007M777.071 120.67L777.071 163.492M777.071 120.67L777.071 77.8485M777.071 120.67L786.478 133.208M777.071 163.492L786.478 175.195M777.071 163.492L777.071 206.315M804.231 156.871L804.231 197.279M804.231 156.871L812.617 168.048M804.231 156.871L804.231 116.463M804.231 156.871L795.525 145.266M804.231 197.279L812.617 207.711M804.231 197.279L795.525 186.448M804.231 197.279L804.231 237.688M812.617 168.048L812.617 207.711M812.617 168.048L812.617 128.384M812.617 168.048L820.698 178.82M812.617 207.711L820.698 217.765M812.617 207.711L812.617 247.374M836.015 199.234L836.015 236.819M836.015 199.234L843.279 208.916M836.015 199.234L836.015 161.651M836.015 199.234L828.493 189.209M836.015 236.819L843.279 245.855M836.015 236.819L828.493 227.461M836.015 236.819L836.015 274.403M843.279 208.916L843.279 245.855M843.279 208.916L850.297 218.271M843.279 208.916L843.279 171.977M843.279 245.855L843.279 282.794M843.279 245.855L850.297 254.586M430.852 27.1386L458.246 51.4795M430.852 27.1386L401.518 1.07238M430.852 27.1386L430.852 100.725M430.852 27.1386L430.852 0.410672M458.246 51.4795L483.885 74.2627M458.246 51.4795L458.246 122.632M458.246 51.4795L458.246 0.410673M530.536 50.9854L530.536 115.714M530.536 50.9854L551.815 71.7859M530.536 50.9854L507.933 28.8942M530.536 50.9854L530.536 0.410676M530.536 115.714L551.815 134.623M530.536 115.714L507.933 95.6311M530.536 115.714L530.536 180.443M551.815 71.7859L551.815 134.623M551.815 71.7859L551.815 8.9485M551.815 71.7859L571.889 91.4059M551.815 134.623L571.889 152.46M551.815 134.623L551.815 197.461M608.799 127.483L608.799 185.258M608.799 127.483L625.806 144.106M608.799 127.483L608.799 69.7086M608.799 127.483L590.852 109.942M608.799 185.258L625.806 200.37M608.799 185.258L590.852 169.311M608.799 185.258L608.799 243.032M625.806 144.106L625.806 200.37M625.806 144.106L625.806 87.8431M625.806 144.106L641.946 159.882M625.806 200.37L641.946 214.711M625.806 200.37L625.806 256.632M671.877 189.137L671.877 241.307M671.877 189.137L685.779 202.726M671.877 189.137L671.877 136.968M671.877 189.137L657.283 174.874M671.877 241.307L685.779 253.66M671.877 241.307L657.283 228.339M671.877 241.307L671.877 293.476M685.779 202.726L685.779 253.66M685.779 202.726L685.779 151.793M685.779 202.726L699.038 215.686M685.779 253.66L699.038 265.442M685.779 253.66L685.779 304.594M723.799 239.888L723.799 287.443M723.799 239.888L735.374 251.202M723.799 239.888L723.799 192.331M723.799 239.888L711.698 228.06M723.799 287.443L735.374 297.73M723.799 287.443L711.698 276.691M723.799 287.443L723.799 334.998M735.374 251.202L735.374 297.73M735.374 251.202L735.374 204.676M735.374 251.202L746.461 262.038M735.374 297.73L746.461 307.581M735.374 297.73L735.374 344.257M767.282 282.39L767.282 326.082M767.282 282.39L777.071 291.958M767.282 282.39L767.282 238.698M767.282 282.39L757.087 272.426M767.282 326.082L768.527 327.189L777.071 334.78M767.282 326.082L757.087 317.023M767.282 326.082L767.282 369.774M777.071 291.958L777.071 334.78M777.071 291.958L777.071 249.136M777.071 291.958L786.478 301.153M777.071 334.78L786.478 343.139M777.071 334.78L777.071 377.602M804.231 318.505L804.231 358.914M804.231 318.505L812.617 326.702M804.231 318.505L804.231 278.096M804.231 318.505L795.525 309.995M804.231 358.914L812.617 366.365M804.231 358.914L801.004 356.047L795.525 351.177M804.231 358.914L804.231 399.323M812.617 326.702L812.617 366.365M812.617 326.702L812.617 287.039M812.617 326.702L820.698 334.601M812.617 366.365L820.698 373.546M812.617 366.365L812.617 406.029M836.015 349.572L836.015 387.156M836.015 349.572L843.279 356.672M836.015 349.572L836.015 311.988M836.015 349.572L828.493 342.22M836.015 387.156L841.486 392.019L842.385 392.816L843.279 393.611M836.015 387.156L828.493 380.473M836.015 387.156L836.015 424.741M843.279 356.672L843.279 393.611M843.279 356.672L850.297 363.532M843.279 356.672L843.279 319.733M843.279 393.611L843.279 430.55M843.279 393.611L850.297 399.847M118.802 53.7999L118.802 155.115M118.802 53.7999L170.09 85.7015M118.802 53.7999L62.4421 18.7446M118.802 53.7999L118.801 0.410658M118.802 155.115L170.09 182.459M118.802 155.115L62.4421 125.067M118.802 155.115L118.802 256.429M170.09 85.7015L170.09 182.459M170.09 85.7015L216.963 114.857M170.09 85.7015L170.09 0.41066M170.09 182.459L216.963 207.449M170.09 182.459L170.09 279.216M299.562 166.234L299.562 251.487M299.562 166.234L336.139 188.985M299.562 166.234L299.562 80.9822M299.562 166.234L259.967 141.606M299.562 251.487L336.139 270.987M299.562 251.487L259.967 230.377M299.562 251.487L299.562 336.739M336.139 188.985L336.139 270.987M336.139 188.985L336.139 106.983M336.139 188.985L370.029 210.065M336.139 270.987L370.029 289.055M336.139 270.987L336.139 352.989M430.852 247.897L430.852 321.483M430.852 247.897L458.246 264.936M430.852 247.897L430.852 174.31M430.852 247.897L401.518 229.651M430.852 321.483L458.246 336.088M430.852 321.483L401.518 305.844M430.852 321.483L430.852 395.069M458.246 264.936L458.246 336.088M458.246 264.936L458.246 193.783M458.246 264.936L483.885 280.884M458.246 336.088L483.885 349.758M458.246 336.088L458.246 407.24M530.536 309.9L530.536 374.628M530.536 309.9L551.815 323.137M530.536 309.9L530.536 245.172M530.536 309.9L507.933 295.842M530.536 374.628L551.815 385.974M530.536 374.628L507.933 362.579M530.536 374.628L530.536 439.357M551.815 323.137L551.815 385.974M551.815 323.137L551.815 260.299M551.815 323.137L571.889 335.622M551.815 385.974L571.889 396.676M551.815 385.974L551.815 448.812M608.799 358.58L608.799 416.355M608.799 358.58L625.806 369.158M608.799 358.58L608.799 300.806M608.799 358.58L590.852 347.417M608.799 416.355L625.806 425.422M608.799 416.355L590.852 406.787M608.799 416.355L608.799 474.129M625.806 369.158L625.806 425.422M625.806 369.158L625.806 312.895M625.806 369.158L641.946 379.198M625.806 425.422L641.946 434.026M625.806 425.422L625.806 481.685M671.877 397.815L671.877 449.984M671.877 397.815L685.779 406.462M671.877 397.815L671.877 345.645M671.877 397.815L657.283 388.738M671.877 449.984L685.779 457.396M671.877 449.984L657.283 442.203M671.877 449.984L671.877 502.153M685.779 406.462L685.779 457.396M685.779 406.462L685.779 355.528M685.779 406.462L699.038 414.71M685.779 457.396L699.038 464.465M685.779 457.396L685.779 508.33M723.799 430.11L723.799 477.666M723.799 430.11L735.374 437.311M723.799 430.11L723.799 382.555M723.799 430.11L711.698 422.584M723.799 477.666L735.374 483.838M723.799 477.666L711.698 471.215M723.799 477.666L723.798 525.222M735.374 437.311L735.374 483.838M735.374 437.311L735.374 390.783M735.374 437.311L746.461 444.207M735.374 483.838L746.461 489.748M735.374 483.838L735.374 530.365M767.282 457.157L767.282 500.85M767.282 457.157L777.071 463.246M767.282 457.157L767.282 413.466M767.282 457.157L757.087 450.816M767.282 500.85L766.031 500.182L757.087 495.414M767.282 500.85L777.071 506.068M767.282 500.85L767.282 544.541M777.071 463.246L777.071 506.068M777.071 463.246L777.071 420.424M777.071 463.246L786.478 469.097M777.071 506.068L786.478 511.083M777.071 506.068L777.071 548.89M804.231 480.14L804.231 520.548M804.231 480.14L812.617 485.356M804.231 480.14L804.231 439.731M804.231 480.14L795.525 474.725M804.231 520.548L812.617 525.019M804.231 520.548L801.004 518.828L798.828 517.668L795.525 515.907M804.231 520.548L804.231 560.957M812.617 485.356L812.617 525.019M812.617 485.356L812.617 445.692M812.617 485.356L820.698 490.382M812.617 525.019L815.682 526.654L817.703 527.731L820.698 529.328M812.617 525.019L812.617 564.682M836.015 499.91L836.015 537.494M836.015 499.91L841.486 503.313L843.279 504.427M836.015 499.91L836.015 462.325M836.015 499.91L829.448 495.825L828.493 495.231M836.015 537.494L841.486 540.411L842.385 540.89L843.279 541.367M836.015 537.494L832.288 535.506L828.493 533.484M836.015 537.494L836.015 575.078M843.279 504.427L843.279 541.367M843.279 504.427L850.297 508.793M843.279 504.427L843.279 467.489M843.279 541.367L843.279 578.306M843.279 541.367L850.297 545.108M118.802 459.057L118.802 560.371M118.802 459.057L170.09 472.729M118.802 459.057L118.802 357.743M118.802 459.057L62.4421 444.034M118.802 560.371L170.09 569.487M118.802 560.371L62.4421 550.356M118.802 560.371L118.802 661.686M170.09 472.729L170.09 569.487M170.09 472.729L170.09 375.972M170.09 472.729L216.963 485.224M170.09 569.487L216.963 577.816M170.09 569.487L170.09 666.243M299.562 507.243L299.562 592.495M299.562 507.243L336.139 516.993M299.562 507.243L299.562 421.991M299.562 507.243L259.967 496.688M299.562 592.495L336.139 598.996M299.562 592.495L259.967 585.459M299.562 592.495L299.562 677.748M336.139 516.993L336.139 598.996M336.139 516.993L336.139 434.991M336.139 516.993L370.029 526.028M336.139 598.996L370.029 605.019M336.139 598.996L336.139 680.998M430.852 542.242L430.852 615.827M430.852 542.242L458.246 549.544M430.852 542.242L430.852 468.656M430.852 542.242L401.518 534.422M430.852 615.827L458.246 620.696M430.852 615.827L401.518 610.615M430.852 615.827L430.852 689.414M458.246 549.544L458.246 620.696M458.246 549.544L458.246 478.392M458.246 549.544L483.885 556.379M458.246 620.696L483.885 625.253M458.246 620.696L458.246 691.848M530.536 568.815L530.536 633.543M530.536 568.815L551.815 574.487M530.536 568.815L530.536 504.086M530.536 568.815L507.933 562.789M530.536 633.543L551.815 637.325M530.536 633.543L507.933 629.526M530.536 633.543L530.536 698.271M551.815 574.487L551.815 637.325M551.815 574.487L551.815 511.65M551.815 574.487L571.889 579.838M551.815 637.325L571.889 640.892M551.815 637.325L551.815 700.163M608.799 589.677L608.799 647.452M608.799 589.677L625.806 594.21M608.799 589.677L608.799 531.903M608.799 589.677L590.852 584.893M608.799 647.452L625.806 650.474M608.799 647.452L590.852 644.263M608.799 647.452L608.799 705.226M625.806 594.21L625.806 650.474M625.806 594.21L625.806 537.948M625.806 594.21L641.946 598.513M625.806 650.474L641.946 653.342M625.806 650.474L625.806 706.737M671.877 606.492L671.877 658.661M671.877 606.492L685.779 610.198M671.877 606.492L671.877 554.323M671.877 606.492L657.283 602.602M671.877 658.661L685.779 661.132M671.877 658.661L657.283 656.068M671.877 658.661L671.877 710.831M685.779 610.198L685.779 661.132M685.779 610.198L685.779 559.264M685.779 610.198L690.824 611.543L699.038 613.733M685.779 661.132L699.038 663.489M685.779 661.132L685.779 712.066M723.798 620.333L723.798 667.889M723.798 620.333L735.374 623.419M723.798 620.333L723.798 572.777M723.798 620.333L714.774 617.928L711.698 617.107M723.798 667.889L728.199 668.671L735.374 669.946M723.798 667.889L711.698 665.738M723.798 667.889L723.798 715.445M735.374 623.419L736.787 623.795L746.461 626.374M735.374 623.419L735.374 669.946M735.374 623.419L735.374 576.892M735.374 669.946L739.588 670.695L740.977 670.941L742.359 671.187L746.461 671.916M735.374 669.946L735.374 716.473M767.282 631.924L767.282 675.616M767.282 631.924L772.226 633.242L773.446 633.568L774.661 633.891L775.869 634.214L777.071 634.534M767.282 631.924L767.282 588.233M767.282 631.924L757.087 629.207M767.282 675.616L774.661 676.928L775.869 677.143L777.071 677.356M767.282 675.616L757.087 673.805M767.282 675.616L767.282 719.308M777.071 634.534L777.071 677.356M777.071 634.534L777.071 591.712M777.071 634.534L782.994 636.113L784.161 636.424L786.478 637.042M777.071 677.356L782.994 678.408L784.161 678.616L785.323 678.822L786.478 679.028M777.071 677.356L777.071 720.178M804.231 641.775L804.231 682.183M804.231 641.775L812.617 644.01M804.231 641.775L804.231 601.365M804.231 641.775L802.086 641.202L798.828 640.334L795.525 639.453M804.231 682.183L803.161 681.992L796.631 680.832L795.525 680.636M804.231 682.183L812.617 683.673M804.231 682.183L804.231 722.592M812.617 644.01L812.617 683.673M812.617 644.01L812.617 604.347M812.617 644.01L820.698 646.164M812.617 683.673L815.682 684.218L816.695 684.398L817.703 684.577L820.698 685.109M812.617 683.673L812.617 723.337M836.015 650.247L836.015 687.831M836.015 650.247L841.486 651.706L843.279 652.183M836.015 650.247L836.015 612.663M836.015 650.247L833.226 649.503L832.288 649.253L831.345 649.002L828.493 648.241M836.015 687.831L836.937 687.995L838.769 688.32L840.585 688.644L843.279 689.122M836.015 687.831L832.288 687.169L831.345 687.002L829.448 686.664L828.493 686.495M836.015 687.831L836.015 725.416M843.279 652.183L843.279 689.122M843.279 652.183L849.433 653.823L850.297 654.055M843.279 652.183L843.279 615.244M843.279 689.122L844.17 689.281L845.056 689.438L845.939 689.595L846.818 689.751L849.433 690.216L850.297 690.37M843.279 689.122L843.279 726.061M118.802 864.314L118.802 965.629M118.802 864.314L170.09 859.757M118.802 864.314L118.802 763M118.802 864.314L62.4421 869.322M118.802 965.629L170.09 956.514M118.802 965.629L62.4421 975.644M118.802 965.629L118.802 1066.94M170.09 859.757L170.09 956.514M170.09 859.757L170.09 763M170.09 859.757L216.963 855.592M170.09 956.514L216.963 948.184M170.09 956.514L170.09 1053.27M299.562 848.252L299.562 933.505M299.562 848.252L336.139 845.002M299.562 848.252L299.562 763M299.562 848.252L259.967 851.771M299.562 933.505L336.139 927.004M299.562 933.505L259.967 940.541M299.562 933.505L299.562 1018.76M336.139 845.002L336.139 927.004M336.139 845.002L336.139 763M336.139 845.002L370.028 841.991M336.139 927.004L370.028 920.982M336.139 927.004L336.139 1009.01M430.852 836.586L430.852 910.173M430.852 836.586L458.246 834.152M430.852 836.586L430.852 763M430.852 836.586L401.518 839.193M430.852 910.173L458.246 905.304M430.852 910.173L401.518 915.385M430.852 910.173L430.852 983.759M458.246 834.152L458.246 905.304M458.246 834.152L458.246 763M458.246 834.152L483.885 831.874M458.246 905.304L483.885 900.747M458.246 905.304L458.246 976.456M530.536 827.729L530.536 892.457M530.536 827.729L551.815 825.837M530.536 827.729L530.536 763M530.536 827.729L507.933 829.737M530.536 892.457L551.815 888.676M530.536 892.457L507.933 896.474M530.536 892.457L530.536 957.185M551.815 825.837L551.815 888.676M551.815 825.837L551.815 763M551.815 825.837L571.889 824.054M551.815 888.676L571.889 885.108M551.815 888.676L551.815 951.513M608.799 820.774L608.799 878.548M608.799 820.774L625.806 819.263M608.799 820.774L608.799 763M608.799 820.774L590.852 822.369M608.799 878.548L625.806 875.526M608.799 878.548L590.852 881.738M608.799 878.548L608.799 936.323M625.806 819.263L625.806 875.526M625.806 819.263L625.806 763M625.806 819.263L641.946 817.829M625.806 875.526L641.946 872.658M625.806 875.526L625.806 931.79M671.877 815.169L671.877 867.339M671.877 815.169L685.779 813.934M671.877 815.169L671.877 763M671.877 815.169L657.283 816.466M671.877 867.339L685.779 864.868M671.877 867.339L657.283 869.933M671.877 867.339L671.877 919.508M685.779 813.934L685.779 864.868M685.779 813.934L685.779 763M685.779 813.934L699.038 812.756M685.779 864.868L699.038 862.512M685.779 864.868L685.779 915.802M723.798 810.556L723.798 858.112M723.798 810.556L735.374 809.527M723.798 810.556L723.798 763M723.798 810.556L711.698 811.631M723.798 858.112L733.954 856.306L735.374 856.054M723.798 858.112L711.698 860.262M723.798 858.112L723.798 905.667M735.374 809.527L736.787 809.402L746.461 808.542M735.374 809.527L735.374 856.054M735.374 809.527L735.374 763M735.374 856.054L739.588 855.305L740.977 855.059L742.359 854.813L746.461 854.084M735.374 856.054L735.374 902.581M767.282 806.692L767.282 850.384M767.282 806.692L777.071 805.822M767.282 806.692L767.282 763M767.282 806.692L763.508 807.027L762.237 807.14L760.96 807.253L758.385 807.482L757.087 807.598M767.282 850.384L774.661 849.073L777.071 848.644M767.282 850.384L757.087 852.195M767.282 850.384L767.282 894.076M777.071 805.822L777.071 848.644M777.071 805.822L777.071 763M777.071 805.822L786.478 804.986M777.071 848.644L782.994 847.592L784.161 847.384L785.323 847.178L786.478 846.972M777.071 848.644L777.071 891.466M804.231 803.409L804.231 843.817M804.231 803.409L812.617 802.663M804.231 803.409L804.231 763M804.231 803.409L795.525 804.182M804.231 843.817L803.161 844.008L796.631 845.168L795.525 845.364M804.231 843.817L812.617 842.327M804.231 843.817L804.231 884.226M812.617 802.663L812.617 842.327M812.617 802.663L812.617 763M812.617 802.663L820.698 801.945M812.617 842.327L815.682 841.782L816.695 841.602L817.703 841.423L820.698 840.891M812.617 842.327L812.617 881.99M836.015 800.585L836.015 838.169M836.015 800.585L843.279 799.939M836.015 800.585L836.015 763M836.015 800.585L828.493 801.253M836.015 838.169L836.937 838.005L838.769 837.679L839.679 837.518L841.486 837.196L842.385 837.037L843.279 836.877M836.015 838.169L832.288 838.832L831.345 838.998L829.448 839.336L828.493 839.505M836.015 838.169L836.015 875.753M843.279 799.939L844.17 799.86L845.056 799.781L845.939 799.703L850.297 799.315M843.279 799.939L843.279 836.877M843.279 799.939L843.279 763M843.279 836.877L843.279 873.817M843.279 836.877L845.056 836.562L845.939 836.405L846.818 836.249L849.433 835.784L850.297 835.63M118.802 1269.57L118.802 1370.89M118.802 1269.57L170.09 1246.78M118.802 1269.57L118.802 1168.26M118.802 1269.57L62.4421 1294.61M118.802 1370.89L170.09 1343.54M118.802 1370.89L62.4421 1400.93M118.802 1370.89L118.802 1472.2M170.09 1246.78L170.09 1343.54M170.09 1246.78L170.09 1150.03M170.09 1246.78L216.963 1225.96M170.09 1343.54L216.963 1318.55M170.09 1343.54L170.09 1440.3M299.562 1189.26L299.562 1274.51M299.562 1189.26L336.139 1173.01M299.562 1189.26L299.562 1104.01M299.562 1189.26L259.967 1206.85M299.562 1274.51L336.139 1255.01M299.562 1274.51L259.967 1295.62M299.562 1274.51L299.562 1359.77M336.139 1173.01L336.139 1255.01M336.139 1173.01L336.139 1091.01M336.139 1173.01L370.028 1157.95M336.139 1255.01L370.028 1236.94M336.139 1255.01L336.139 1337.02M430.852 1130.93L430.852 1204.52M430.852 1130.93L458.246 1118.76M430.852 1130.93L430.852 1057.34M430.852 1130.93L401.518 1143.96M430.852 1204.52L458.246 1189.91M430.852 1204.52L401.518 1220.16M430.852 1204.52L430.852 1278.1M458.246 1118.76L458.246 1189.91M458.246 1118.76L458.246 1047.61M458.246 1118.76L483.885 1107.37M458.246 1189.91L483.885 1176.24M458.246 1189.91L458.246 1261.06M530.536 1086.64L530.536 1151.37M530.536 1086.64L551.815 1077.19M530.536 1086.64L530.536 1021.91M530.536 1086.64L507.933 1096.68M530.536 1151.37L551.815 1140.03M530.536 1151.37L507.933 1163.42M530.536 1151.37L530.536 1216.1M551.815 1077.19L551.815 1140.03M551.815 1077.19L551.815 1014.35M551.815 1077.19L571.889 1068.27M551.815 1140.03L571.889 1129.32M551.815 1140.03L551.815 1202.86M608.799 1051.87L608.799 1109.65M608.799 1051.87L625.806 1044.32M608.799 1051.87L608.799 994.097M608.799 1051.87L590.852 1059.84M608.799 1109.65L625.806 1100.58M608.799 1109.65L590.852 1119.21M608.799 1109.65L608.799 1167.42M625.806 1044.32L625.806 1100.58M625.806 1044.32L625.806 988.052M625.806 1044.32L641.946 1037.14M625.806 1100.58L641.946 1091.97M625.806 1100.58L625.806 1156.84M671.877 1023.85L671.877 1076.02M671.877 1023.85L685.779 1017.67M671.877 1023.85L671.877 971.677M671.877 1023.85L657.283 1030.33M671.877 1076.02L685.779 1068.6M671.877 1076.02L657.283 1083.8M671.877 1076.02L671.877 1128.18M685.779 1017.67L685.779 1068.6M685.779 1017.67L685.779 966.736M685.779 1017.67L699.038 1011.78M685.779 1068.6L699.038 1061.53M685.779 1068.6L685.779 1119.54M723.798 1000.78L722.315 1001.44L720.824 1002.1L711.698 1006.15M723.798 1000.78L723.798 1048.33M723.798 1000.78L735.374 995.635M723.798 1000.78L723.798 953.223M723.798 1048.33L735.374 1042.16M723.798 1048.33L711.698 1054.78M723.798 1048.33L723.798 1095.89M735.374 995.635L735.374 1042.16M735.374 995.635L735.374 949.108M735.374 995.635L746.461 990.71M735.374 1042.16L746.461 1036.25M735.374 1042.16L735.374 1088.69M767.282 981.459L767.282 1025.15M767.282 981.459L777.071 977.11M767.282 981.459L767.282 937.767M767.282 981.459L757.087 985.988M767.282 1025.15L773.446 1021.86L777.071 1019.93M767.282 1025.15L757.087 1030.59M767.282 1025.15L767.282 1068.84M777.071 977.11L777.071 1019.93M777.071 977.11L777.071 934.288M777.071 977.11L785.323 973.444L786.478 972.931M777.071 1019.93L786.478 1014.92M777.071 1019.93L777.071 1062.75M804.231 965.043L804.231 1005.45M804.231 965.043L806.358 964.099L812.616 961.318M804.231 965.043L804.231 924.635M804.231 965.043L802.086 965.997L797.733 967.931L795.525 968.911M804.231 1005.45L812.616 1000.98M804.231 1005.45L801.004 1007.17L798.828 1008.33L795.525 1010.09M804.231 1005.45L804.231 1045.86M812.616 961.318L812.616 1000.98M812.616 961.318L812.616 921.654M812.616 961.318L818.707 958.612L820.698 957.726M812.616 1000.98L815.682 999.346L817.703 998.269L820.698 996.672M812.616 1000.98L812.616 1040.64M836.015 950.922L836.015 988.506M836.015 950.922L840.585 948.891L843.279 947.694M836.015 950.922L836.015 913.337M836.015 950.922L828.493 954.264M836.015 988.506L841.486 985.589L842.385 985.111L843.279 984.633M836.015 988.506L832.288 990.494L828.493 992.516M836.015 988.506L836.015 1026.09M843.279 947.694L843.279 984.633M843.279 947.694L846.818 946.122L848.565 945.346L849.433 944.96L850.297 944.577M843.279 947.694L843.279 910.756M843.279 984.633L843.279 1021.57M843.279 984.633L850.297 980.892M336.139 1501.02L336.139 1419.02M336.139 1501.02L370.028 1473.92M336.139 1501.02L336.139 1525.59M336.139 1501.02L305.416 1525.59M430.852 1425.28L430.852 1498.86M430.852 1425.28L458.246 1403.37M430.852 1425.28L430.852 1351.69M430.852 1425.28L401.518 1448.73M430.852 1498.86L458.246 1474.52M430.852 1498.86L401.518 1524.93M430.852 1498.86L430.852 1525.59M458.246 1403.37L458.246 1474.52M458.246 1403.37L458.246 1332.22M458.246 1403.37L483.885 1382.86M458.246 1474.52L483.885 1451.74M458.246 1474.52L458.246 1525.59M530.536 1345.56L530.536 1410.29M530.536 1345.56L551.815 1328.54M530.536 1345.56L530.536 1280.83M530.536 1345.56L507.933 1363.63M530.536 1410.29L551.815 1391.38M530.536 1410.29L507.933 1430.37M530.536 1410.29L530.536 1475.01M551.815 1328.54L551.815 1391.38M551.815 1328.54L551.815 1265.7M551.815 1328.54L571.889 1312.49M551.815 1391.38L571.889 1373.54M551.815 1391.38L551.815 1454.21M608.799 1282.97L608.799 1340.74M608.799 1282.97L625.806 1269.37M608.799 1282.97L608.799 1225.19M608.799 1282.97L590.852 1297.32M608.799 1340.74L625.806 1325.63M608.799 1340.74L590.852 1356.69M608.799 1340.74L608.799 1398.52M625.806 1269.37L625.806 1325.63M625.806 1269.37L625.806 1213.1M625.806 1269.37L641.946 1256.46M625.806 1325.63L641.946 1311.29M625.806 1325.63L625.806 1381.89M671.877 1232.52L671.877 1284.69M671.877 1232.52L685.779 1221.41M671.877 1232.52L671.877 1180.35M671.877 1232.52L657.283 1244.19M671.877 1284.69L685.779 1272.34M671.877 1284.69L657.283 1297.66M671.877 1284.69L671.877 1336.86M685.779 1221.41L685.779 1272.34M685.779 1221.41L685.779 1170.47M685.779 1221.41L699.038 1210.8M685.779 1272.34L699.038 1260.56M685.779 1272.34L685.779 1323.27M723.798 1191L723.798 1238.56M723.798 1191L735.374 1181.74M723.798 1191L723.798 1143.45M723.798 1191L711.698 1200.68M723.798 1238.56L735.374 1228.27M723.798 1238.56L711.698 1249.31M723.798 1238.56L723.798 1286.11M735.374 1181.74L735.374 1228.27M735.374 1181.74L735.374 1135.22M735.374 1181.74L746.461 1172.88M735.374 1228.27L746.461 1218.42M735.374 1228.27L735.374 1274.8M767.282 1156.23L767.282 1199.92M767.282 1156.23L777.071 1148.4M767.282 1156.23L767.282 1112.53M767.282 1156.23L757.087 1164.38M767.282 1199.92L777.071 1191.22M767.282 1199.92L757.087 1208.98M767.282 1199.92L767.282 1243.61M777.071 1148.4L777.071 1191.22M777.071 1148.4L777.071 1105.58M777.071 1148.4L786.478 1140.87M777.071 1191.22L786.478 1182.86M777.071 1191.22L777.071 1234.04M804.231 1126.68L804.231 1167.09M804.231 1126.68L812.616 1119.97M804.231 1126.68L804.231 1086.27M804.231 1126.68L802.086 1128.39L801.004 1129.26L795.525 1133.64M804.231 1167.09L812.616 1159.63M804.231 1167.09L795.525 1174.82M804.231 1167.09L804.231 1207.49M812.616 1119.97L812.616 1159.63M812.616 1119.97L812.616 1080.31M812.616 1119.97L820.698 1113.51M812.616 1159.63L820.698 1152.45M812.616 1159.63L812.616 1199.3M836.015 1101.26L836.015 1138.84M836.015 1101.26L843.279 1095.45M836.015 1101.26L836.015 1063.67M836.015 1101.26L828.493 1107.27M836.015 1138.84L841.486 1133.98L842.385 1133.18L843.279 1132.39M836.015 1138.84L828.493 1145.53M836.015 1138.84L836.015 1176.43M843.279 1095.45L843.279 1132.39M843.279 1095.45L849.433 1090.53L850.297 1089.84M843.279 1095.45L843.279 1058.51M843.279 1132.39L843.279 1169.33M843.279 1132.39L850.297 1126.15M608.799 1514.07L625.806 1494.42M608.799 1514.07L608.799 1456.29M608.799 1514.07L598.823 1525.59M608.799 1514.07L608.799 1525.59M625.806 1494.42L625.806 1438.16M625.806 1494.42L641.946 1475.78M625.806 1494.42L625.806 1525.59M671.877 1441.2L671.877 1493.37M671.877 1441.2L685.779 1425.14M671.877 1441.2L671.877 1389.03M671.877 1441.2L657.283 1458.06M671.877 1493.37L685.779 1476.08M671.877 1493.37L657.283 1511.53M671.877 1493.37L671.877 1525.59M685.779 1425.14L685.779 1476.08M685.779 1425.14L685.779 1374.21M685.779 1425.14L699.038 1409.83M685.779 1476.08L699.038 1459.58M685.779 1476.08L685.779 1525.59M723.798 1381.22L723.798 1428.78M723.798 1381.22L735.374 1367.85M723.798 1381.22L723.798 1333.67M723.798 1381.22L711.698 1395.2M723.798 1428.78L735.374 1414.38M723.798 1428.78L711.698 1443.83M723.798 1428.78L723.798 1476.34M735.374 1367.85L735.374 1414.38M735.374 1367.85L735.374 1321.32M735.374 1367.85L746.461 1355.05M735.374 1414.38L746.461 1400.59M735.374 1414.38L735.374 1460.91M767.282 1330.99L767.282 1374.68M767.282 1330.99L777.071 1319.69M767.282 1330.99L767.282 1287.3M767.282 1330.99L757.087 1342.77M767.282 1374.68L777.071 1362.51M767.282 1374.68L757.087 1387.37M767.282 1374.68L767.282 1418.38M777.071 1319.69L777.071 1362.51M777.071 1319.69L777.071 1276.86M777.071 1319.69L786.478 1308.82M777.071 1362.51L786.478 1350.81M777.071 1362.51L777.071 1405.33M804.231 1288.31L804.231 1328.72M804.231 1288.31L812.616 1278.63M804.231 1288.31L804.231 1247.9M804.231 1288.31L795.525 1298.37M804.231 1328.72L812.616 1318.29M804.231 1328.72L795.525 1339.55M804.231 1328.72L804.231 1369.13M812.616 1278.63L812.616 1318.29M812.616 1278.63L812.616 1238.96M812.616 1278.63L820.698 1269.29M812.616 1318.29L820.698 1308.23M812.616 1318.29L812.616 1357.95M836.015 1251.6L836.015 1289.18M836.015 1251.6L843.279 1243.21M836.015 1251.6L836.015 1214.01M836.015 1251.6L828.493 1260.29M836.015 1289.18L843.279 1280.14M836.015 1289.18L828.493 1298.54M836.015 1289.18L836.015 1326.77M843.279 1243.21L843.279 1280.14M843.279 1243.21L850.297 1235.1M843.279 1243.21L843.279 1206.27M843.279 1280.14L843.279 1317.08M843.279 1280.14L850.297 1271.41M767.282 1505.76L777.071 1490.97M767.282 1505.76L767.282 1462.07M767.282 1505.76L757.087 1521.16M767.282 1505.76L767.282 1525.59M777.071 1490.97L777.071 1448.15M777.071 1490.97L786.478 1476.76M777.071 1490.97L777.071 1525.59M804.231 1449.95L804.231 1490.35M804.231 1449.95L812.616 1437.28M804.231 1449.95L804.231 1409.54M804.231 1449.95L795.525 1463.1M804.231 1490.35L812.616 1476.94M804.231 1490.35L795.525 1504.28M804.231 1490.35L804.231 1525.59M812.616 1437.28L812.616 1476.94M812.616 1437.28L812.616 1397.62M812.616 1437.28L820.698 1425.07M812.616 1476.94L820.698 1464.02M812.616 1476.94L812.616 1516.61M836.015 1401.93L836.015 1439.52M836.015 1401.93L843.279 1390.96M836.015 1401.93L836.015 1364.35M836.015 1401.93L828.493 1413.3M836.015 1439.52L843.279 1427.9M836.015 1439.52L828.493 1451.55M836.015 1439.52L836.015 1477.1M843.279 1390.96L843.279 1427.9M843.279 1390.96L850.297 1380.36M843.279 1390.96L843.279 1354.02M843.279 1427.9L843.279 1464.84M843.279 1427.9L850.297 1416.67M828.493 1451.55L820.698 1464.02M828.493 1451.55L828.493 1489.8M828.493 1451.55L828.493 1413.3M836.015 1477.1L843.279 1464.84M836.015 1477.1L828.493 1489.8M836.015 1477.1L836.015 1514.69M843.279 1464.84L843.279 1501.78M843.279 1464.84L850.297 1452.99M850.297 1416.67L850.297 1380.36M850.297 1416.67L850.297 1452.99M850.297 1416.67L857.083 1405.82M828.493 1489.8L820.698 1502.96M828.493 1489.8L828.493 1525.59M836.015 1514.69L843.279 1501.78M836.015 1514.69L829.881 1525.59M836.015 1514.69L836.015 1525.59M843.279 1501.78L850.297 1489.31M843.279 1501.78L843.279 1525.59M850.297 1452.99L850.297 1489.31M850.297 1452.99L857.083 1441.53M850.297 1489.31L857.083 1477.25M850.297 1489.31L850.297 1525.59M820.698 1464.02L820.698 1502.96M820.698 1464.02L820.698 1425.07M812.616 1516.61L820.698 1502.96M812.616 1516.61L807.297 1525.59M812.616 1516.61L812.616 1525.59M820.698 1502.96L820.698 1525.59M820.698 1425.07L820.698 1386.13M820.698 1425.07L828.493 1413.3M828.493 1413.3L828.493 1375.04M795.525 1504.28L786.478 1518.75M795.525 1504.28L795.525 1463.1M795.525 1504.28L795.525 1525.59M804.231 1525.71L804.231 1525.59M786.478 1518.75L786.478 1476.76M786.478 1518.75L782.202 1525.59M786.478 1518.75L786.478 1525.59M786.478 1476.76L786.478 1434.78M786.478 1476.76L795.525 1463.1M795.525 1463.1L795.525 1421.92M828.493 1298.54L820.698 1308.23M828.493 1298.54L828.493 1336.79M828.493 1298.54L828.493 1260.29M836.015 1326.77L843.279 1317.08M836.015 1326.77L828.493 1336.79M836.015 1326.77L836.015 1364.35M843.279 1317.08L843.279 1354.02M843.279 1317.08L850.297 1307.73M850.297 1271.41L850.297 1307.73M850.297 1271.41L857.083 1262.97M850.297 1271.41L850.297 1235.1M828.493 1336.79L820.698 1347.18M828.493 1336.79L828.493 1375.04M836.015 1364.35L843.279 1354.02M836.015 1364.35L828.493 1375.04M843.279 1354.02L850.297 1344.04M850.297 1307.73L850.297 1344.04M850.297 1307.73L857.083 1298.68M828.493 1375.04L820.698 1386.13M850.297 1380.36L850.297 1344.04M850.297 1380.36L857.083 1370.11M850.297 1344.04L857.083 1334.4M820.698 1308.23L820.698 1347.18M820.698 1308.23L820.698 1269.29M812.616 1357.95L820.698 1347.18M812.616 1357.95L804.231 1369.13M812.616 1357.95L812.616 1397.62M820.698 1347.18L820.698 1386.13M820.698 1269.29L820.698 1230.34M820.698 1269.29L828.493 1260.29M820.698 1386.13L812.616 1397.62M828.493 1260.29L828.493 1222.03M804.231 1369.13L795.525 1380.73M804.231 1369.13L804.231 1409.54M812.616 1397.62L804.231 1409.54M804.231 1409.54L795.525 1421.92M795.525 1339.55L786.478 1350.81M795.525 1339.55L795.525 1380.73M795.525 1339.55L795.525 1298.37M795.525 1380.73L786.478 1392.79M795.525 1380.73L795.525 1421.92M795.525 1421.92L786.478 1434.78M786.478 1350.81L786.478 1392.79M786.478 1350.81L786.478 1308.82M777.071 1405.33L786.478 1392.79M777.071 1405.33L767.282 1418.38M777.071 1405.33L777.071 1448.15M786.478 1392.79L786.478 1434.78M786.478 1308.82L786.478 1266.83M786.478 1308.82L795.525 1298.37M786.478 1434.78L777.071 1448.15M795.525 1298.37L795.525 1257.19M767.282 1418.38L757.087 1431.97M767.282 1418.38L767.282 1462.07M777.071 1448.15L767.282 1462.07M767.282 1462.07L757.087 1476.56M757.087 1387.37L746.461 1400.59M757.087 1387.37L757.087 1431.97M757.087 1387.37L757.087 1342.77M757.087 1431.97L746.461 1446.13M757.087 1431.97L757.087 1476.56M757.087 1476.56L746.461 1491.67M757.087 1476.56L757.087 1521.16M757.087 1521.16L757.087 1525.59M757.087 1521.16L754.156 1525.59M746.461 1400.59L746.461 1446.13M746.461 1400.59L746.461 1355.05M735.374 1460.91L746.461 1446.13M735.374 1460.91L723.798 1476.34M735.374 1460.91L735.374 1507.43M746.461 1446.13L746.461 1491.67M746.461 1355.05L746.461 1309.5M746.461 1355.05L757.087 1342.77M746.461 1491.67L735.374 1507.43M746.461 1491.67L746.461 1525.59M757.087 1342.77L757.087 1298.17M723.798 1476.34L711.698 1492.46M723.798 1476.34L723.798 1523.89M735.374 1507.43L723.798 1523.89M735.374 1507.43L735.374 1525.59M746.461 1525.83L746.461 1525.59M723.798 1523.89L722.604 1525.59M723.798 1523.89L723.798 1525.59M711.698 1443.83L699.038 1459.58M711.698 1443.83L711.698 1492.46M711.698 1443.83L711.698 1395.2M711.698 1492.46L699.038 1509.34M711.698 1492.46L711.698 1525.59M722.315 1526L722.604 1525.59M699.038 1459.58L699.038 1509.34M699.038 1459.58L699.038 1409.83M699.038 1509.34L699.038 1525.59M699.038 1509.34L686.845 1525.59M699.038 1409.83L699.038 1360.07M699.038 1409.83L711.698 1395.2M711.698 1395.2L711.698 1346.57M657.283 1511.53L657.283 1458.06M657.283 1511.53L645.978 1525.59M657.283 1511.53L657.283 1525.59M671.877 1525.98L671.877 1525.59M657.283 1458.06L657.283 1404.59M657.283 1458.06L641.946 1475.78M645.853 1525.74L645.978 1525.59M828.493 1145.53L820.698 1152.45M828.493 1145.53L828.493 1183.78M828.493 1145.53L828.493 1107.27M836.015 1176.43L843.279 1169.33M836.015 1176.43L828.493 1183.78M836.015 1176.43L836.015 1214.01M843.279 1169.33L843.279 1206.27M843.279 1169.33L850.297 1162.47M850.297 1126.15L850.297 1162.47M850.297 1126.15L852.868 1123.87L857.083 1120.12M850.297 1126.15L850.297 1089.84M828.493 1183.78L820.698 1191.4M828.493 1183.78L828.493 1222.03M836.015 1214.01L843.279 1206.27M836.015 1214.01L828.493 1222.03M843.279 1206.27L850.297 1198.78M850.297 1162.47L850.297 1198.78M850.297 1162.47L857.083 1155.84M828.493 1222.03L820.698 1230.34M850.297 1235.1L857.083 1227.26M850.297 1235.1L850.297 1198.78M850.297 1198.78L851.159 1197.87L852.868 1196.04L857.083 1191.55M820.698 1152.45L820.698 1191.4M820.698 1152.45L820.698 1113.51M812.616 1199.3L820.698 1191.4M812.616 1199.3L804.231 1207.49M812.616 1199.3L812.616 1238.96M820.698 1191.4L820.698 1230.34M820.698 1113.51L820.698 1074.56M820.698 1113.51L828.493 1107.27M820.698 1230.34L812.616 1238.96M828.493 1107.27L828.493 1069.02M804.231 1207.49L795.525 1216.01M804.231 1207.49L804.231 1247.9M812.616 1238.96L811.586 1240.06L804.231 1247.9M804.231 1247.9L795.525 1257.19M795.525 1174.82L794.412 1175.81L786.478 1182.86M795.525 1174.82L795.525 1216.01M795.525 1174.82L795.525 1133.64M795.525 1216.01L786.478 1224.85M795.525 1216.01L795.525 1257.19M795.525 1257.19L786.478 1266.83M786.478 1182.86L786.478 1224.85M786.478 1182.86L786.478 1140.87M777.071 1234.04L786.478 1224.85M777.071 1234.04L767.282 1243.61M777.071 1234.04L777.071 1276.86M786.478 1224.85L786.478 1266.83M786.478 1140.87L786.478 1098.89M786.478 1140.87L795.525 1133.64M786.478 1266.83L777.071 1276.86M795.525 1133.64L795.525 1092.46M767.282 1243.61L757.087 1253.57M767.282 1243.61L767.282 1287.3M777.071 1276.86L767.282 1287.3M767.282 1287.3L757.087 1298.17M757.087 1208.98L746.461 1218.42M757.087 1208.98L757.087 1253.57M757.087 1208.98L757.087 1164.38M757.087 1253.57L746.461 1263.96M757.087 1253.57L757.087 1298.17M757.087 1298.17L746.461 1309.5M746.461 1218.42L746.461 1263.96M746.461 1218.42L746.461 1172.88M735.374 1274.8L746.461 1263.96M735.374 1274.8L723.798 1286.11M735.374 1274.8L735.374 1321.32M746.461 1263.96L746.461 1309.5M746.461 1172.88L746.461 1127.34M746.461 1172.88L757.087 1164.38M746.461 1309.5L735.374 1321.32M757.087 1164.38L757.087 1119.78M723.798 1286.11L711.698 1297.94M723.798 1286.11L723.798 1333.67M735.374 1321.32L723.798 1333.67M723.798 1333.67L711.698 1346.57M711.698 1249.31L699.038 1260.56M711.698 1249.31L711.698 1297.94M711.698 1249.31L711.698 1200.68M711.698 1297.94L699.038 1310.31M711.698 1297.94L711.698 1346.57M711.698 1346.57L699.038 1360.07M699.038 1260.56L699.038 1310.31M699.038 1260.56L699.038 1210.8M685.779 1323.27L699.038 1310.31M685.779 1323.27L671.877 1336.86M685.779 1323.27L685.779 1374.21M699.038 1310.31L699.038 1360.07M699.038 1210.8L699.038 1161.05M699.038 1210.8L711.698 1200.68M699.038 1360.07L685.779 1374.21M711.698 1200.68L711.698 1152.05M671.877 1336.86L657.283 1351.13M671.877 1336.86L671.877 1389.03M685.779 1374.21L671.877 1389.03M671.877 1389.03L657.283 1404.59M657.283 1297.66L641.946 1311.29M657.283 1297.66L657.283 1351.13M657.283 1297.66L657.283 1244.19M657.283 1351.13L641.946 1366.12M657.283 1351.13L657.283 1404.59M657.283 1404.59L641.946 1420.95M641.946 1311.29L641.946 1366.12M641.946 1311.29L641.946 1256.46M625.806 1381.89L641.946 1366.12M625.806 1381.89L608.799 1398.52M625.806 1381.89L625.806 1438.16M641.946 1366.12L641.946 1420.95M641.946 1256.46L641.946 1201.63M641.946 1256.46L657.283 1244.19M641.946 1420.95L625.806 1438.16M641.946 1420.95L641.946 1475.78M657.283 1244.19L657.283 1190.73M608.799 1398.52L590.852 1416.06M608.799 1398.52L608.799 1456.29M625.806 1438.16L608.799 1456.29M641.946 1475.78L641.946 1525.59M608.799 1456.29L590.852 1475.43M590.852 1356.69L571.889 1373.54M590.852 1356.69L590.852 1416.06M590.852 1356.69L590.852 1297.32M590.852 1416.06L571.889 1434.59M590.852 1416.06L590.852 1475.43M590.852 1475.43L571.889 1495.65M590.852 1475.43L590.852 1525.59M571.889 1373.54L571.889 1434.59M571.889 1373.54L571.889 1312.49M551.815 1454.21L571.889 1434.59M551.815 1454.21L530.536 1475.01M551.815 1454.21L551.815 1517.05M571.889 1434.59L571.889 1495.65M571.889 1312.49L571.889 1251.43M571.889 1312.49L590.852 1297.32M571.889 1495.65L551.815 1517.05M571.889 1495.65L571.889 1525.59M590.852 1297.32L590.852 1237.95M530.536 1475.01L507.933 1497.11M530.536 1475.01L530.536 1525.59M551.815 1517.05L551.815 1525.59M551.815 1517.05L543.809 1525.59M507.933 1430.37L483.885 1451.74M507.933 1430.37L507.933 1497.11M507.933 1430.37L507.933 1363.63M507.933 1497.11L483.885 1520.61M507.933 1497.11L507.933 1525.59M483.885 1451.74L483.885 1520.61M483.885 1451.74L483.885 1382.86M483.885 1520.61L478.792 1525.59M483.885 1520.61L483.885 1525.59M483.885 1382.86L483.885 1313.99M483.885 1382.86L507.933 1363.63M507.933 1363.63L507.933 1296.9M401.518 1524.93L401.518 1448.73M401.518 1524.93L401.518 1525.59M401.518 1524.93L400.773 1525.59M401.518 1448.73L401.518 1372.54M401.518 1448.73L370.028 1473.92M828.493 992.516L825.603 994.057L824.631 994.575L820.698 996.672M828.493 992.516L828.493 1030.77M828.493 992.516L828.493 954.264M836.015 1026.09L841.486 1022.69L843.279 1021.57M836.015 1026.09L829.448 1030.18L828.493 1030.77M836.015 1026.09L836.015 1063.67M843.279 1021.57L843.279 1058.51M843.279 1021.57L850.297 1017.21M850.297 980.892L850.297 1017.21M850.297 980.892L852.868 979.521L857.083 977.274M850.297 980.892L850.297 944.577M828.493 1030.77L826.571 1031.97L820.698 1035.62M828.493 1030.77L828.493 1069.02M836.015 1063.67L843.279 1058.51M836.015 1063.67L828.493 1069.02M843.279 1058.51L848.565 1054.75L850.297 1053.52M850.297 1017.21L850.297 1053.52M850.297 1017.21L857.083 1012.99M828.493 1069.02L820.698 1074.56M850.297 1089.84L851.159 1089.15L857.083 1084.41M850.297 1089.84L850.297 1053.52M850.297 1053.52L852.868 1051.69L857.083 1048.7M820.698 996.672L820.698 1035.62M820.698 996.672L820.698 957.726M812.616 1040.64L820.698 1035.62M812.616 1040.64L804.231 1045.86M812.616 1040.64L812.616 1080.31M820.698 1035.62L820.698 1074.56M820.698 957.726L820.698 918.781M820.698 957.726L828.493 954.264M820.698 1074.56L812.616 1080.31M828.493 954.264L828.493 916.011M804.231 1045.86L798.828 1049.22L797.733 1049.9L795.525 1051.28M804.231 1045.86L804.231 1086.27M812.616 1080.31L804.231 1086.27M804.231 1086.27L795.525 1092.46M795.525 1010.09L786.478 1014.92M795.525 1010.09L795.525 1051.28M795.525 1010.09L795.525 968.911M795.525 1051.28L786.478 1056.9M795.525 1051.28L795.525 1092.46M795.525 1092.46L786.478 1098.89M786.478 1014.92L786.478 1056.9M786.478 1014.92L786.478 972.931M777.071 1062.75L782.994 1059.07L784.161 1058.34L786.478 1056.9M777.071 1062.75L767.282 1068.84M777.071 1062.75L777.071 1105.58M786.478 1056.9L786.478 1098.89M786.478 972.931L786.478 930.944M786.478 972.931L795.525 968.911M786.478 1098.89L777.071 1105.58M795.525 968.911L795.525 927.729M767.282 1068.84L757.087 1075.18M767.282 1068.84L767.282 1112.53M777.071 1105.58L767.282 1112.53M767.282 1112.53L757.087 1119.78M757.087 1030.59L751.83 1033.39L750.498 1034.1L746.461 1036.25M757.087 1030.59L757.087 1075.18M757.087 1030.59L757.087 985.988M757.087 1075.18L746.461 1081.79M757.087 1075.18L757.087 1119.78M757.087 1119.78L746.461 1127.34M746.461 1036.25L746.461 1081.79M746.461 1036.25L746.461 990.71M735.374 1088.69L746.461 1081.79M735.374 1088.69L723.798 1095.89M735.374 1088.69L735.374 1135.22M746.461 1081.79L746.461 1127.34M746.461 990.71L746.461 945.167M746.461 990.71L749.159 989.51L757.087 985.988M746.461 1127.34L735.374 1135.22M757.087 985.988L757.087 941.391M723.798 1095.89L711.698 1103.42M723.798 1095.89L723.798 1143.45M735.374 1135.22L723.798 1143.45M723.798 1143.45L711.698 1152.05M711.698 1054.78L699.038 1061.53M711.698 1054.78L711.698 1103.42M711.698 1054.78L711.698 1006.15M711.698 1103.42L699.038 1111.29M711.698 1103.42L711.698 1152.05M711.698 1152.05L699.038 1161.05M699.038 1061.53L699.038 1111.29M699.038 1061.53L699.038 1011.78M685.779 1119.54L699.038 1111.29M685.779 1119.54L671.877 1128.18M685.779 1119.54L685.779 1170.47M699.038 1111.29L699.038 1161.05M699.038 1011.78L699.038 962.023M699.038 1011.78L711.698 1006.15M699.038 1161.05L685.779 1170.47M711.698 1006.15L711.698 957.524M671.877 1128.18L657.283 1137.26M671.877 1128.18L671.877 1180.35M685.779 1170.47L671.877 1180.35M671.877 1180.35L657.283 1190.73M657.283 1083.8L641.946 1091.97M657.283 1083.8L657.283 1137.26M657.283 1083.8L657.283 1030.33M657.283 1137.26L641.946 1146.8M657.283 1137.26L657.283 1190.73M657.283 1190.73L641.946 1201.63M641.946 1091.97L641.946 1146.8M641.946 1091.97L641.946 1037.14M625.806 1156.84L641.946 1146.8M625.806 1156.84L608.799 1167.42M625.806 1156.84L625.806 1213.1M641.946 1146.8L641.946 1201.63M641.946 1037.14L641.946 982.316M641.946 1037.14L657.283 1030.33M641.946 1201.63L625.806 1213.1M657.283 1030.33L657.283 976.864M608.799 1167.42L590.852 1178.58M608.799 1167.42L608.799 1225.19M625.806 1213.1L608.799 1225.19M608.799 1225.19L590.852 1237.95M590.852 1119.21L571.889 1129.32M590.852 1119.21L590.852 1178.58M590.852 1119.21L590.852 1059.84M590.852 1178.58L571.889 1190.38M590.852 1178.58L590.852 1237.95M590.852 1237.95L571.889 1251.43M571.889 1129.32L571.889 1190.38M571.889 1129.32L571.889 1068.27M551.815 1202.86L571.889 1190.38M551.815 1202.86L530.536 1216.1M551.815 1202.86L551.815 1265.7M571.889 1190.38L571.889 1251.43M571.889 1068.27L571.889 1007.22M571.889 1068.27L590.852 1059.84M571.889 1251.43L551.815 1265.7M590.852 1059.84L590.852 1000.48M530.536 1216.1L507.933 1230.16M530.536 1216.1L530.536 1280.83M551.815 1265.7L530.536 1280.83M530.536 1280.83L507.933 1296.9M507.933 1163.42L483.885 1176.24M507.933 1163.42L507.933 1230.16M507.933 1163.42L507.933 1096.68M507.933 1230.16L483.885 1245.12M507.933 1230.16L507.933 1296.9M507.933 1296.9L483.885 1313.99M483.885 1176.24L483.885 1245.12M483.885 1176.24L483.885 1107.37M458.246 1261.06L483.885 1245.12M458.246 1261.06L430.852 1278.1M458.246 1261.06L458.246 1332.22M483.885 1245.12L483.885 1313.99M483.885 1107.37L483.885 1038.49M483.885 1107.37L507.933 1096.68M483.885 1313.99L458.246 1332.22M507.933 1096.68L507.933 1029.95M430.852 1278.1L401.518 1296.35M430.852 1278.1L430.852 1351.69M458.246 1332.22L430.852 1351.69M430.852 1351.69L401.518 1372.54M401.518 1220.16L370.028 1236.94M401.518 1220.16L401.518 1296.35M401.518 1220.16L401.518 1143.96M401.518 1296.35L370.028 1315.94M401.518 1296.35L401.518 1372.54M401.518 1372.54L370.028 1394.93M370.028 1236.94L370.028 1315.94M370.028 1236.94L370.028 1157.95M336.139 1337.02L370.028 1315.94M336.139 1337.02L299.562 1359.77M336.139 1337.02L336.139 1419.02M370.028 1315.94L370.028 1394.93M370.028 1157.95L370.028 1078.96M370.028 1157.95L401.518 1143.96M370.028 1394.93L336.139 1419.02M370.028 1394.93L370.028 1473.92M401.518 1143.96L401.518 1067.77M299.562 1359.77L259.967 1384.39M299.562 1359.77L299.562 1445.02M336.139 1419.02L299.562 1445.02M370.028 1473.92L370.028 1525.59M299.562 1445.02L259.967 1473.17M299.562 1445.02L299.562 1525.59M259.967 1295.62L216.963 1318.55M259.967 1295.62L259.967 1384.39M259.967 1295.62L259.967 1206.85M259.967 1384.39L216.963 1411.14M259.967 1384.39L259.967 1473.17M259.967 1473.17L216.963 1503.73M259.967 1473.17L259.967 1525.59M216.963 1318.55L216.963 1411.14M216.963 1318.55L216.963 1225.96M170.09 1440.3L216.963 1411.14M170.09 1440.3L118.802 1472.2M170.09 1440.3L170.09 1525.59M216.963 1411.14L216.963 1503.73M216.963 1225.96L216.963 1133.37M216.963 1225.96L259.967 1206.85M216.963 1503.73L216.963 1525.59M216.963 1503.73L186.219 1525.59M259.967 1206.85L259.967 1118.08M118.802 1472.2L62.4421 1507.26M118.802 1472.2L118.802 1525.59M62.4421 1400.93L0.220943 1434.11M62.4421 1400.93L62.4421 1507.26M62.4421 1400.93L62.4421 1294.61M62.4421 1507.26L32.9656 1525.59M62.4421 1507.26L62.4421 1525.59M0.220943 1434.11L0.220948 1322.25M0.220943 1434.11L0.222082 1525.59M0.220948 1322.25L0.220953 1210.4M0.220948 1322.25L62.4421 1294.61M62.4421 1294.61L62.4421 1188.29M828.493 839.505L827.534 839.676L826.571 839.847L825.603 840.019L824.631 840.191L821.689 840.715L820.698 840.891M828.493 839.505L828.493 877.759M828.493 839.505L828.493 801.253M836.015 875.753L841.486 874.294L843.279 873.817M836.015 875.753L831.345 876.998L828.493 877.759M836.015 875.753L836.015 913.337M843.279 873.817L843.279 910.756M843.279 873.817L848.565 872.408L850.297 871.945M850.297 835.63L851.159 835.478L854.566 834.873L857.083 834.424M850.297 835.63L850.297 871.945M850.297 835.63L850.297 799.315M828.493 877.759L827.534 878.014L826.571 878.271L825.603 878.528L824.631 878.788L820.698 879.836M828.493 877.759L828.493 916.011M836.015 913.337L841.486 911.393L843.279 910.756M836.015 913.337L828.493 916.011M843.279 910.756L846.818 909.497L849.433 908.568L850.297 908.261M850.297 871.945L851.159 871.717L852.868 871.261L854.566 870.808L855.408 870.584L857.083 870.137M850.297 871.945L850.297 908.261M828.493 916.011L822.674 918.08L820.698 918.781M850.297 944.577L855.408 942.306L857.083 941.562M850.297 944.577L850.297 908.261M850.297 908.261L856.248 906.147L857.083 905.849M820.698 840.891L820.698 879.836M820.698 840.891L820.698 801.945M812.617 881.99L820.698 879.836M812.617 881.99L804.231 884.226M812.617 881.99L812.616 921.654M820.698 879.836L820.698 918.781M820.698 801.945L820.698 763M820.698 801.945L828.493 801.253M820.698 918.781L812.616 921.654M828.493 801.253L828.493 763M804.231 884.226L802.086 884.798L798.828 885.667L795.525 886.547M804.231 884.226L804.231 924.635M812.616 921.654L811.586 922.021L804.231 924.635M804.231 924.635L803.161 925.014L802.086 925.397L801.004 925.781L795.525 927.729M795.525 845.364L786.478 846.972M795.525 845.364L795.525 886.547M795.525 845.364L795.525 804.182M795.525 886.547L786.478 888.958M795.525 886.547L795.525 927.729M795.525 927.729L788.773 930.129L787.628 930.536L786.478 930.944M786.478 846.972L786.478 888.958M786.478 846.972L786.478 804.986M777.071 891.466L775.869 891.786L774.661 892.109L773.446 892.432L767.282 894.076M777.071 891.466L781.821 890.2L782.994 889.887L784.161 889.576L786.478 888.958M777.071 891.466L777.071 934.288M786.478 888.958L786.478 930.944M786.478 804.986L786.478 763M786.478 804.986L795.525 804.182M786.478 930.944L777.071 934.288M795.525 804.182L795.525 763M767.282 894.076L758.385 896.448L757.087 896.793M767.282 894.076L767.282 937.767M777.071 934.288L774.661 935.145L767.282 937.767M767.282 937.767L763.508 939.109L757.087 941.391M757.087 852.195L751.83 853.13L750.498 853.366L746.461 854.084M757.087 852.195L757.087 896.793M757.087 852.195L757.087 807.598M757.087 896.793L746.461 899.626M757.087 896.793L757.087 941.391M757.087 941.391L746.461 945.167M746.461 854.084L746.461 899.626M746.461 854.084L746.461 808.542M735.374 902.581L746.461 899.626M735.374 902.581L723.798 905.667M735.374 902.581L735.374 949.108M746.461 899.626L746.461 945.167M746.461 808.542L746.461 763M746.461 808.542L749.159 808.302L754.473 807.83L757.087 807.598M746.461 945.167L735.374 949.108M757.087 807.598L757.087 763M723.798 905.667L714.774 908.072L711.698 908.893M723.798 905.667L723.798 953.223M735.374 949.108L723.798 953.223M723.798 953.223L717.816 955.349L711.698 957.524M711.698 860.262L699.038 862.512M711.698 860.262L711.698 908.893M711.698 860.262L711.698 811.631M711.698 908.893L699.038 912.267M711.698 908.893L711.698 957.524M711.698 957.524L699.038 962.023M699.038 862.512L699.038 912.267M699.038 862.512L699.038 812.756M685.779 915.802L689.152 914.902L699.038 912.267M685.779 915.802L671.877 919.508M685.779 915.802L685.779 966.736M699.038 912.267L699.038 962.023M699.038 812.756L699.038 763M699.038 812.756L711.698 811.631M699.038 962.023L685.779 966.736M711.698 811.631L711.698 763M671.877 919.508L657.283 923.398M671.877 919.508L671.877 971.677M685.779 966.736L671.877 971.677M671.877 971.677L657.283 976.864M657.283 869.933L641.946 872.658M657.283 869.933L657.283 923.398M657.283 869.933L657.283 816.466M657.283 923.398L641.946 927.487M657.283 923.398L657.283 976.864M657.283 976.864L641.946 982.316M641.946 872.658L641.946 927.487M641.946 872.658L641.946 817.829M625.806 931.79L641.946 927.487M625.806 931.79L608.799 936.323M625.806 931.79L625.806 988.052M641.946 927.487L641.946 982.316M641.946 817.829L641.946 763M641.946 817.829L655.407 816.632L657.283 816.466M641.946 982.316L625.806 988.052M657.283 816.466L657.283 763M608.799 936.323L590.852 941.107M608.799 936.323L608.799 994.097M625.806 988.052L613.135 992.555L608.799 994.097M608.799 994.097L590.852 1000.48M590.852 881.738L571.889 885.108M590.852 881.738L590.852 941.107M590.852 881.738L590.852 822.369M590.852 941.107L571.889 946.162M590.852 941.107L590.852 1000.48M590.852 1000.48L571.889 1007.22M571.889 885.108L571.889 946.162M571.889 885.108L571.889 824.054M551.815 951.513L571.889 946.162M551.815 951.513L530.536 957.185M551.815 951.513L551.815 1014.35M571.889 946.162L571.889 1007.22M571.889 824.054L571.889 763M571.889 824.054L590.852 822.369M571.889 1007.22L551.815 1014.35M590.852 822.369L590.852 763M530.536 957.185L507.933 963.211M530.536 957.185L530.536 1021.91M551.815 1014.35L530.536 1021.91M530.536 1021.91L507.933 1029.95M507.933 896.474L483.885 900.747M507.933 896.474L507.933 963.211M507.933 896.474L507.933 829.737M507.933 963.211L483.885 969.621M507.933 963.211L507.933 1029.95M507.933 1029.95L483.885 1038.49M483.885 900.747L483.885 969.621M483.885 900.747L483.885 831.874M458.246 976.456L483.885 969.621M458.246 976.456L430.852 983.759M458.246 976.456L458.246 1047.61M483.885 969.621L483.885 1038.49M483.885 831.874L483.885 763M483.885 831.874L507.933 829.737M483.885 1038.49L458.246 1047.61M507.933 829.737L507.933 763M430.852 983.759L401.518 991.578M430.852 983.759L430.852 1057.34M458.246 1047.61L430.852 1057.34M430.852 1057.34L401.518 1067.77M401.518 915.385L370.028 920.982M401.518 915.385L401.518 991.578M401.518 915.385L401.518 839.193M401.518 991.578L370.028 999.972M401.518 991.578L401.518 1067.77M401.518 1067.77L370.028 1078.96M370.028 920.982L370.028 999.972M370.028 920.982L370.028 841.991M336.139 1009.01L370.028 999.972M336.139 1009.01L299.562 1018.76M336.139 1009.01L336.139 1091.01M370.028 999.972L370.028 1078.96M370.028 841.991L370.029 763M370.028 841.991L401.518 839.193M370.028 1078.96L336.139 1091.01M401.518 839.193L401.518 763M299.562 1018.76L259.967 1029.31M299.562 1018.76L299.562 1104.01M336.139 1091.01L299.562 1104.01M299.562 1104.01L259.967 1118.08M259.967 940.541L216.963 948.184M259.967 940.541L259.967 1029.31M259.967 940.541L259.967 851.771M259.967 1029.31L216.963 1040.78M259.967 1029.31L259.967 1118.08M259.967 1118.08L216.963 1133.37M216.963 948.184L216.963 1040.78M216.963 948.184L216.963 855.592M170.09 1053.27L216.963 1040.78M170.09 1053.27L118.802 1066.94M170.09 1053.27L170.09 1150.03M216.963 1040.78L216.963 1133.37M216.963 855.592L216.963 763M216.963 855.592L259.967 851.771M216.963 1133.37L170.09 1150.03M259.967 851.771L259.967 763M118.802 1066.94L62.4421 1081.97M118.802 1066.94L118.802 1168.26M170.09 1150.03L118.802 1168.26M118.802 1168.26L62.4421 1188.29M62.4421 975.644L0.220962 986.702M62.4421 975.644L62.4421 1081.97M62.4421 975.644L62.4421 869.322M62.4421 1081.97L0.220957 1098.55M62.4421 1081.97L62.4421 1188.29M62.4421 1188.29L0.220953 1210.4M0.220957 1098.55L0.220962 986.702M0.220957 1098.55L0.220953 1210.4M0.220962 986.702L0.220967 874.851M0.220967 874.851L0.220972 763M0.220967 874.851L62.4421 869.322M62.4421 869.322L62.4421 763M828.493 686.495L827.534 686.324L826.571 686.153L825.603 685.981L824.631 685.809L822.674 685.461L821.689 685.285L820.698 685.109M828.493 686.495L828.493 724.747M828.493 686.495L828.493 648.241M836.015 725.416L843.279 726.061M836.015 725.416L828.493 724.747M836.015 725.416L836.015 763M843.279 726.061L844.17 726.14L845.056 726.219L845.939 726.297L850.297 726.685M843.279 726.061L843.279 763M850.297 690.37L851.159 690.522L854.566 691.128L857.083 691.576M850.297 690.37L850.297 726.685M850.297 690.37L850.297 654.055M828.493 724.747L827.534 724.662L826.571 724.577L825.603 724.49L820.698 724.055M828.493 724.747L828.493 763M836.015 763L843.279 763M836.015 763L828.493 763M843.279 763L850.297 763M850.297 726.685L850.297 763M850.297 726.685L852.868 726.913L853.719 726.989L857.083 727.288M828.493 763L820.698 763M850.297 799.315L852.868 799.087L853.719 799.011L854.566 798.936L855.408 798.861L856.248 798.787L857.083 798.712M850.297 799.315L850.297 763M850.297 763L857.083 763M820.698 685.109L820.698 724.055M820.698 685.109L820.698 646.164M812.617 723.337L811.586 723.245L810.55 723.153L804.231 722.592M812.617 723.337L820.698 724.055M812.617 723.337L812.617 763M820.698 724.055L820.698 763M820.698 646.164L820.698 607.219M820.698 646.164L822.674 646.69L823.654 646.952L824.631 647.212L825.603 647.472L826.571 647.729L827.534 647.987L828.493 648.241M820.698 763L812.617 763M828.493 648.241L828.493 609.989M804.231 722.592L795.525 721.818M804.231 722.592L804.231 763M812.617 763L804.231 763M804.231 763L795.525 763M795.525 680.636L786.478 679.028M795.525 680.636L795.525 721.818M795.525 680.636L795.525 639.453M795.525 721.818L786.478 721.014M795.525 721.818L795.525 763M795.525 763L786.478 763M786.478 679.028L786.478 721.014M786.478 679.028L786.478 637.042M777.071 720.178L786.478 721.014M777.071 720.178L767.282 719.308M777.071 720.178L777.071 763M786.478 721.014L786.478 763M786.478 637.042L786.478 595.056M786.478 637.042L795.525 639.453M786.478 763L777.071 763M795.525 639.453L795.525 598.271M767.282 719.308L763.508 718.973L759.676 718.632L757.087 718.402M767.282 719.308L767.282 763M777.071 763L767.282 763M767.282 763L757.087 763M757.087 673.805L751.83 672.87L750.498 672.634L746.461 671.916M757.087 673.805L757.087 718.402M757.087 673.805L757.087 629.207M757.087 718.402L754.473 718.17L749.159 717.698L746.461 717.458M757.087 718.402L757.087 763M757.087 763L746.461 763M746.461 671.916L746.461 717.458M746.461 671.916L746.461 626.374M735.374 716.473L736.787 716.598L746.461 717.458M735.374 716.473L723.798 715.445M735.374 716.473L735.374 763M746.461 717.458L746.461 763M746.461 626.374L746.461 580.833M746.461 626.374L757.087 629.207M746.461 763L735.374 763M757.087 629.207L757.087 584.609M723.798 715.445L711.698 714.369M723.798 715.445L723.798 763M735.374 763L723.798 763M723.798 763L711.698 763M711.698 665.738L699.038 663.489M711.698 665.738L711.698 714.369M711.698 665.738L711.698 617.107M711.698 714.369L699.038 713.244M711.698 714.369L711.698 763M711.698 763L699.038 763M699.038 663.489L699.038 713.244M699.038 663.489L699.038 613.733M685.779 712.066L699.038 713.244M685.779 712.066L671.877 710.831M685.779 712.066L685.779 763M699.038 713.244L699.038 763M699.038 613.733L699.038 563.977M699.038 613.733L711.698 617.107M699.038 763L685.779 763M711.698 617.107L711.698 568.476M671.877 710.831L657.283 709.534M671.877 710.831L671.877 763M685.779 763L671.877 763M671.877 763L657.283 763M657.283 656.068L641.946 653.342M657.283 656.068L657.283 709.534M657.283 656.068L657.283 602.602M657.283 709.534L641.946 708.171M657.283 709.534L657.283 763M657.283 763L641.946 763M641.946 653.342L641.946 708.171M641.946 653.342L641.946 598.513M625.806 706.737L641.946 708.171M625.806 706.737L608.799 705.226M625.806 706.737L625.806 763M641.946 708.171L641.946 763M641.946 598.513L641.946 543.684M641.946 598.513L657.283 602.602M641.946 763L625.806 763M657.283 602.602L657.283 549.136M608.799 705.226L590.852 703.631M608.799 705.226L608.799 763M625.806 763L608.799 763M608.799 763L590.852 763M590.852 644.263L571.889 640.892M590.852 644.263L590.852 703.631M590.852 644.263L590.852 584.893M590.852 703.631L571.889 701.946M590.852 703.631L590.852 763M590.852 763L571.889 763M571.889 640.892L571.889 701.946M571.889 640.892L571.889 579.838M551.815 700.163L571.889 701.946M551.815 700.163L530.536 698.271M551.815 700.163L551.815 763M571.889 701.946L571.889 763M571.889 579.838L571.889 518.784M571.889 579.838L590.852 584.893M571.889 763L551.815 763M590.852 584.893L590.852 525.524M530.536 698.271L507.933 696.263M530.536 698.271L530.536 763M551.815 763L530.536 763M530.536 763L507.933 763M507.933 629.526L483.885 625.253M507.933 629.526L507.933 696.263M507.933 629.526L507.933 562.789M507.933 696.263L483.885 694.126M507.933 696.263L507.933 763M507.933 763L483.885 763M483.885 625.253L483.885 694.126M483.885 625.253L483.885 556.379M458.246 691.848L483.885 694.126M458.246 691.848L430.852 689.414M458.246 691.848L458.246 763M483.885 694.126L483.885 763M483.885 556.379L483.885 487.505M483.885 556.379L507.933 562.789M483.885 763L458.246 763M507.933 562.789L507.933 496.052M430.852 689.414L401.518 686.807M430.852 689.414L430.852 763M458.246 763L430.852 763M430.852 763L401.518 763M401.518 610.615L370.029 605.019M401.518 610.615L401.518 686.807M401.518 610.615L401.518 534.422M401.518 686.807L370.029 684.009M401.518 686.807L401.518 763M401.518 763L370.029 763M370.029 605.019L370.029 684.009M370.029 605.019L370.029 526.028M336.139 680.998L370.029 684.009M336.139 680.998L299.562 677.748M336.139 680.998L336.139 763M370.029 684.009L370.029 763M370.029 526.028L370.029 447.037M370.029 526.028L401.518 534.422M370.029 763L336.139 763M401.518 534.422L401.518 458.229M299.562 677.748L259.967 674.229M299.562 677.748L299.562 763M336.139 763L299.562 763M299.562 763L259.967 763M259.967 585.459L216.963 577.816M259.967 585.459L259.967 674.229M259.967 585.459L259.967 496.688M259.967 674.229L216.963 670.408M259.967 674.229L259.967 763M259.967 763L216.963 763M216.963 577.816L216.963 670.408M216.963 577.816L216.963 485.224M170.09 666.243L216.963 670.408M170.09 666.243L118.802 661.686M170.09 666.243L170.09 763M216.963 670.408L216.963 763M216.963 485.224L216.963 392.633M216.963 485.224L259.967 496.688M216.963 763L170.09 763M259.967 496.688L259.967 407.918M118.802 661.686L62.4421 656.678M118.802 661.686L118.802 763M170.09 763L118.802 763M118.802 763L62.4421 763M62.4421 550.356L0.220982 539.298M62.4421 550.356L62.4421 656.678M62.4421 550.356L62.4421 444.034M62.4421 656.678L0.220977 651.149M62.4421 656.678L62.4421 763M62.4421 763L0.220972 763M0.220977 651.149L0.220982 539.298M0.220977 651.149L0.220972 763M0.220982 539.298L0.220987 427.447M0.220987 427.447L0.220992 315.596M0.220987 427.447L62.4421 444.034M62.4421 444.034L62.4421 337.711M828.493 533.484L824.631 531.425L820.698 529.328M828.493 533.484L828.493 571.736M828.493 533.484L828.493 495.231M836.015 575.078L843.279 578.306M836.015 575.078L828.493 571.736M836.015 575.078L836.015 612.663M843.279 578.306L843.279 615.244M843.279 578.306L848.565 580.654L850.297 581.424M850.297 545.108L850.297 581.424M850.297 545.108L852.868 546.48L857.083 548.726M850.297 545.108L850.297 508.793M828.493 571.736L820.698 568.274M828.493 571.736L828.493 609.989M836.015 612.663L843.279 615.244M836.015 612.663L828.493 609.989M843.279 615.244L846.818 616.503L849.433 617.432L850.297 617.739M850.297 581.424L850.297 617.739M850.297 581.424L855.408 583.694L857.083 584.438M828.493 609.989L822.674 607.92L820.698 607.219M850.297 654.055L851.159 654.283L852.868 654.739L855.408 655.416L857.083 655.863M850.297 654.055L850.297 617.739M850.297 617.739L851.159 618.045L852.868 618.653L857.083 620.15M820.698 529.328L820.698 568.274M820.698 529.328L820.698 490.382M812.617 564.682L813.643 565.139L814.666 565.593L818.707 567.388L820.698 568.274M812.617 564.682L806.358 561.901L804.231 560.957M812.617 564.682L812.617 604.347M820.698 568.274L820.698 607.219M820.698 490.382L820.698 451.437M820.698 490.382L826.571 494.035L828.493 495.231M820.698 607.219L812.617 604.347M828.493 495.231L828.493 456.978M804.231 560.957L803.161 560.482L802.086 560.004L798.828 558.557L797.733 558.069L795.525 557.089M804.231 560.957L804.231 601.365M812.617 604.347L811.586 603.98L804.231 601.365M804.231 601.365L803.161 600.986L802.086 600.603L801.004 600.219L795.525 598.271M795.525 515.907L786.478 511.083M795.525 515.907L795.525 557.089M795.525 515.907L795.525 474.725M795.525 557.089L786.478 553.07M795.525 557.089L795.525 598.271M795.525 598.271L786.478 595.056M786.478 511.083L786.478 553.07M786.478 511.083L786.478 469.097M777.071 548.89L786.478 553.07M777.071 548.89L767.282 544.541M777.071 548.89L777.071 591.712M786.478 553.07L786.478 595.056M786.478 469.097L786.478 427.111M786.478 469.097L795.525 474.725M786.478 595.056L777.071 591.712M795.525 474.725L795.525 433.542M767.282 544.541L757.087 540.012M767.282 544.541L767.282 588.233M777.071 591.712L774.661 590.855L767.282 588.233M767.282 588.233L763.508 586.891L759.676 585.529L757.087 584.609M757.087 495.414L751.83 492.61L746.461 489.748M757.087 495.414L757.087 540.012M757.087 495.414L757.087 450.816M757.087 540.012L746.461 535.29M757.087 540.012L757.087 584.609M757.087 584.609L746.461 580.833M746.461 489.748L746.461 535.29M746.461 489.748L746.461 444.207M735.374 530.365L746.461 535.29M735.374 530.365L723.798 525.222M735.374 530.365L735.374 576.892M746.461 535.29L746.461 580.833M746.461 444.207L746.461 398.664M746.461 444.207L757.087 450.816M746.461 580.833L735.374 576.892M757.087 450.816L757.087 406.219M723.798 525.222L720.824 523.9L711.698 519.846M723.798 525.222L723.798 572.777M735.374 576.892L723.798 572.777M723.798 572.777L722.315 572.25L717.816 570.651L711.698 568.476M711.698 471.215L699.038 464.465M711.698 471.215L711.698 519.846M711.698 471.215L711.698 422.584M711.698 519.846L699.038 514.221M711.698 519.846L711.698 568.476M711.698 568.476L699.038 563.977M699.038 464.465L699.038 514.221M699.038 464.465L699.038 414.71M685.779 508.33L694.138 512.045L699.038 514.221M685.779 508.33L671.877 502.153M685.779 508.33L685.779 559.264M699.038 514.221L699.038 563.977M699.038 414.71L699.038 364.954M699.038 414.71L711.698 422.584M699.038 563.977L685.779 559.264M711.698 422.584L711.698 373.953M671.877 502.153L657.283 495.67M671.877 502.153L671.877 554.323M685.779 559.264L671.877 554.323M671.877 554.323L657.283 549.136M657.283 442.203L641.946 434.026M657.283 442.203L657.283 495.67M657.283 442.203L657.283 388.738M657.283 495.67L641.946 488.856M657.283 495.67L657.283 549.136M657.283 549.136L641.946 543.684M641.946 434.026L641.946 488.856M641.946 434.026L641.946 379.198M625.806 481.685L641.946 488.856M625.806 481.685L608.799 474.129M625.806 481.685L625.806 537.948M641.946 488.856L641.946 543.684M641.946 379.198L641.946 324.369M641.946 379.198L657.283 388.738M641.946 543.684L625.806 537.948M657.283 388.738L657.283 335.272M608.799 474.129L590.852 466.156M608.799 474.129L608.799 531.903M625.806 537.948L608.799 531.903M608.799 531.903L590.852 525.524M590.852 406.787L571.889 396.676M590.852 406.787L590.852 466.156M590.852 406.787L590.852 347.417M590.852 466.156L571.889 457.73M590.852 466.156L590.852 525.524M590.852 525.524L571.889 518.784M571.889 396.676L571.889 457.73M571.889 396.676L571.889 335.622M551.815 448.812L571.889 457.73M551.815 448.812L530.536 439.357M551.815 448.812L551.815 511.65M571.889 457.73L571.889 518.784M571.889 335.622L571.889 274.568M571.889 335.622L590.852 347.417M571.889 518.784L551.815 511.65M590.852 347.417L590.852 288.049M530.536 439.357L507.933 429.316M530.536 439.357L530.536 504.086M551.815 511.65L530.536 504.086M530.536 504.086L507.933 496.052M507.933 362.579L483.885 349.758M507.933 362.579L507.933 429.316M507.933 362.579L507.933 295.842M507.933 429.316L483.885 418.631M507.933 429.316L507.933 496.052M507.933 496.052L483.885 487.505M483.885 349.758L483.885 418.631M483.885 349.758L483.885 280.884M458.246 407.24L483.885 418.631M458.246 407.24L430.852 395.069M458.246 407.24L458.246 478.392M483.885 418.631L483.885 487.505M483.885 280.884L483.885 212.01M483.885 280.884L507.933 295.842M483.885 487.505L458.246 478.392M507.933 295.842L507.933 229.105M430.852 395.069L401.518 382.037M430.852 395.069L430.852 468.656M458.246 478.392L430.852 468.656M430.852 468.656L401.518 458.229M401.518 305.844L370.029 289.055M401.518 305.844L401.518 382.037M401.518 305.844L401.518 229.651M401.518 382.037L370.029 368.046M401.518 382.037L401.518 458.229M401.518 458.229L370.029 447.037M370.029 289.055L370.029 368.046M370.029 289.055L370.029 210.065M336.139 352.989L370.029 368.046M336.139 352.989L299.562 336.739M336.139 352.989L336.139 434.991M370.029 368.046L370.029 447.037M370.029 210.065L370.029 131.074M370.029 210.065L401.518 229.651M370.029 447.037L336.139 434.991M401.518 229.651L401.518 153.458M299.562 336.739L259.967 319.147M299.562 336.739L299.562 421.991M336.139 434.991L299.562 421.991M299.562 421.991L259.967 407.918M259.967 230.377L216.963 207.449M259.967 230.377L259.967 319.147M259.967 230.377L259.967 141.606M259.967 319.147L216.963 300.041M259.967 319.147L259.967 407.918M259.967 407.918L216.963 392.633M216.963 207.449L216.963 300.041M216.963 207.449L216.963 114.857M170.09 279.216L216.963 300.041M170.09 279.216L118.802 256.429M170.09 279.216L170.09 375.972M216.963 300.041L216.963 392.633M216.963 114.857L216.963 22.2652M216.963 114.857L259.967 141.606M216.963 392.633L170.09 375.972M259.967 141.606L259.967 52.8355M118.802 256.429L62.4421 231.389M118.802 256.429L118.802 357.743M170.09 375.972L118.802 357.743M118.802 357.743L62.4421 337.711M62.4421 125.067L0.221001 91.8944M62.4421 125.067L62.4421 231.389M62.4421 125.067L62.4421 18.7446M62.4421 231.389L0.220997 203.746M62.4421 231.389L62.4421 337.711M62.4421 337.711L0.220992 315.596M0.220997 203.746L0.221001 91.8944M0.220997 203.746L0.220992 315.596M0.221001 91.8944L0.222149 0.410653M62.4421 18.7446L32.9657 0.410654M62.4421 18.7446L62.4421 0.410656M828.493 380.473L820.698 373.546M828.493 380.473L828.493 418.725M828.493 380.473L828.493 342.22M836.015 424.741L843.279 430.55M836.015 424.741L828.493 418.725M836.015 424.741L836.015 462.325M843.279 430.55L843.279 467.489M843.279 430.55L850.297 436.163M850.297 399.847L850.297 436.163M850.297 399.847L852.868 402.132L857.083 405.877M850.297 399.847L850.297 363.532M828.493 418.725L820.698 412.492M828.493 418.725L828.493 456.978M836.015 462.325L843.279 467.489M836.015 462.325L828.493 456.978M843.279 467.489L848.565 471.247L850.297 472.478M850.297 436.163L851.159 436.851L857.083 441.589M850.297 436.163L850.297 472.478M828.493 456.978L820.698 451.437M850.297 508.793L857.083 513.014M850.297 508.793L850.297 472.478M850.297 472.478L852.868 474.306L857.083 477.302M820.698 373.546L820.698 412.492M820.698 373.546L820.698 334.601M812.617 406.029L820.698 412.492M812.617 406.029L804.231 399.323M812.617 406.029L812.617 445.692M820.698 412.492L820.698 451.437M820.698 334.601L820.698 295.656M820.698 334.601L828.493 342.22M820.698 451.437L812.617 445.692M828.493 342.22L828.493 303.967M804.231 399.323L802.086 397.606L795.525 392.359M804.231 399.323L804.231 439.731M812.617 445.692L804.231 439.731M804.231 439.731L795.525 433.542M795.525 351.177L794.412 350.19L786.478 343.139M795.525 351.177L795.525 392.359M795.525 351.177L795.525 309.995M795.525 392.359L786.478 385.125M795.525 392.359L795.525 433.542M795.525 433.542L794.412 432.752L786.478 427.111M786.478 343.139L786.478 385.125M786.478 343.139L786.478 301.153M777.071 377.602L786.478 385.125M777.071 377.602L767.282 369.774M777.071 377.602L777.071 420.424M786.478 385.125L786.478 427.111M786.478 301.153L786.478 259.167M786.478 301.153L795.525 309.995M786.478 427.111L777.071 420.424M795.525 309.995L795.525 268.813M767.282 369.774L757.087 361.621M767.282 369.774L767.282 413.466M777.071 420.424L767.282 413.466M767.282 413.466L757.087 406.219M757.087 317.023L746.461 307.581M757.087 317.023L757.087 361.621M757.087 317.023L757.087 272.426M757.087 361.621L746.461 353.123M757.087 361.621L757.087 406.219M757.087 406.219L746.461 398.664M746.461 307.581L746.461 353.123M746.461 307.581L746.461 262.038M735.374 344.257L746.461 353.123M735.374 344.257L723.799 334.998M735.374 344.257L735.374 390.783M746.461 353.123L746.461 398.664M746.461 262.038L746.461 216.497M746.461 262.038L757.087 272.426M746.461 398.664L735.374 390.783M757.087 272.426L757.087 227.828M723.799 334.998L711.698 325.322M723.799 334.998L723.799 382.555M735.374 390.783L723.799 382.555M723.799 382.555L711.698 373.953M711.698 276.691L699.038 265.442M711.698 276.691L711.698 325.322M711.698 276.691L711.698 228.06M711.698 325.322L699.038 315.198M711.698 325.322L711.698 373.953M711.698 373.953L699.038 364.954M699.038 265.442L699.038 315.198M699.038 265.442L699.038 215.686M685.779 304.594L699.038 315.198M685.779 304.594L671.877 293.476M685.779 304.594L685.779 355.528M699.038 315.198L699.038 364.954M699.038 215.686L699.038 165.931M699.038 215.686L711.698 228.06M699.038 364.954L685.779 355.528M711.698 228.06L711.698 179.429M671.877 293.476L657.283 281.805M671.877 293.476L671.877 345.645M685.779 355.528L671.877 345.645M671.877 345.645L657.283 335.272M657.283 228.339L641.946 214.711M657.283 228.339L657.283 281.805M657.283 228.339L657.283 174.874M657.283 281.805L641.946 269.54M657.283 281.805L657.283 335.272M657.283 335.272L641.946 324.369M641.946 214.711L641.946 269.54M641.946 214.711L641.946 159.882M625.806 256.632L641.946 269.54M625.806 256.632L608.799 243.032M625.806 256.632L625.806 312.895M641.946 269.54L641.946 324.369M641.946 159.882L641.946 105.053M641.946 159.882L657.283 174.874M641.946 324.369L625.806 312.895M657.283 174.874L657.283 121.407M608.799 243.032L590.852 228.68M608.799 243.032L608.799 300.806M625.806 312.895L608.799 300.806M608.799 300.806L590.852 288.049M590.852 169.311L571.889 152.46M590.852 169.311L590.852 228.68M590.852 169.311L590.852 109.942M590.852 228.68L571.889 213.514M590.852 228.68L590.852 288.049M590.852 288.049L571.889 274.568M571.889 152.46L571.889 213.514M571.889 152.46L571.889 91.4059M551.815 197.461L571.889 213.514M551.815 197.461L530.536 180.443M551.815 197.461L551.815 260.299M571.889 213.514L571.889 274.568M571.889 91.4059L571.889 30.3518M571.889 91.4059L590.852 109.942M571.889 274.568L551.815 260.299M590.852 109.942L590.852 50.5732M530.536 180.443L507.933 162.368M530.536 180.443L530.536 245.172M551.815 260.299L530.536 245.172M530.536 245.172L507.933 229.105M507.933 95.6311L483.885 74.2627M507.933 95.6311L507.933 162.368M507.933 95.6311L507.933 28.8942M507.933 162.368L483.885 143.136M507.933 162.368L507.933 229.105M507.933 229.105L483.885 212.01M483.885 74.2627L483.885 143.136M483.885 74.2627L483.885 5.38895M458.246 122.632L483.885 143.136M458.246 122.632L430.852 100.725M458.246 122.632L458.246 193.783M483.885 143.136L483.885 212.01M483.885 5.38895L507.933 28.8942M483.885 5.38895L483.885 0.410674M483.885 5.38895L478.792 0.410674M483.885 212.01L458.246 193.783M507.933 28.8942L507.933 0.410675M430.852 100.725L401.518 77.2654M430.852 100.725L430.852 174.31M458.246 193.783L430.852 174.31M430.852 174.31L401.518 153.458M401.518 1.07238L401.518 77.2654M401.518 1.07238L401.518 0.41067M401.518 1.07238L400.773 0.41067M401.518 77.2654L370.029 52.0825M401.518 77.2654L401.518 153.458M401.518 153.458L370.029 131.074M336.139 24.9803L370.029 52.0825M336.139 24.9803L336.139 106.983M336.139 24.9803L336.139 0.410668M336.139 24.9803L305.416 0.410666M370.029 52.0825L370.029 131.074M370.029 52.0825L370.029 0.410669M370.029 131.074L336.139 106.983M336.139 106.983L299.562 80.9822M299.562 80.9822L259.967 52.8355M299.562 80.9822L299.562 0.410666M259.967 52.8355L216.963 22.2652M259.967 52.8355L259.967 0.410664M216.963 22.2652L216.963 0.410662M216.963 22.2652L186.219 0.410661M828.493 227.461L820.698 217.765M828.493 227.461L828.493 265.715M828.493 227.461L828.493 189.209M836.015 274.403L843.279 282.794M836.015 274.403L828.493 265.715M836.015 274.403L836.015 311.988M843.279 282.794L843.279 319.733M843.279 282.794L850.297 290.902M850.297 254.586L850.297 290.902M850.297 254.586L857.083 263.027M850.297 254.586L850.297 218.271M828.493 265.715L820.698 256.711M828.493 265.715L828.493 303.967M836.015 311.988L843.279 319.733M836.015 311.988L828.493 303.967M843.279 319.733L850.297 327.217M850.297 290.902L851.159 291.895L857.083 298.74M850.297 290.902L850.297 327.217M828.493 303.967L820.698 295.656M850.297 363.532L857.083 370.164M850.297 363.532L850.297 327.217M850.297 327.217L851.159 328.134L857.083 334.452M820.698 217.765L820.698 256.711M820.698 217.765L820.698 178.82M812.617 247.374L820.698 256.711M812.617 247.374L804.231 237.688M812.617 247.374L812.617 287.039M820.698 256.711L820.698 295.656M820.698 178.82L820.698 139.875M820.698 178.82L828.493 189.209M820.698 295.656L812.617 287.039M828.493 189.209L828.493 150.956M804.231 237.688L795.525 227.631M804.231 237.688L804.231 278.096M812.617 287.039L811.586 285.938L804.231 278.096M804.231 278.096L795.525 268.813M795.525 186.448L786.478 175.195M795.525 186.448L795.525 227.631M795.525 186.448L795.525 145.266M795.525 227.631L786.478 217.181M795.525 227.631L795.525 268.813M795.525 268.813L786.478 259.167M786.478 175.195L786.478 217.181M786.478 175.195L786.478 133.208M777.071 206.315L786.478 217.181M777.071 206.315L767.282 195.007M777.071 206.315L777.071 249.136M786.478 217.181L786.478 259.167M786.478 133.208L786.478 91.2224M786.478 133.208L795.525 145.266M786.478 259.167L777.071 249.136M795.525 145.266L795.525 104.084M767.282 195.007L757.087 183.23M767.282 195.007L767.282 238.698M777.071 249.136L767.282 238.698M767.282 238.698L757.087 227.828M757.087 138.632L746.461 125.413M757.087 138.632L757.087 183.23M757.087 138.632L757.087 94.0344M757.087 183.23L746.461 170.955M757.087 183.23L757.087 227.828M757.087 227.828L746.461 216.497M746.461 125.413L746.461 170.955M746.461 125.413L746.461 79.8709M735.374 158.148L746.461 170.955M735.374 158.148L723.799 144.776M735.374 158.148L735.374 204.676M746.461 170.955L746.461 216.497M746.461 79.8709L746.461 34.3292M746.461 79.8709L757.087 94.0344M746.461 216.497L735.374 204.676M757.087 94.0344L757.087 49.4372M723.799 144.776L711.698 130.798M723.799 144.776L723.799 192.331M735.374 204.676L723.799 192.331M723.799 192.331L711.698 179.429M711.698 82.1674L699.038 66.4191M711.698 82.1674L711.698 130.798M711.698 82.1674L711.698 33.5372M711.698 130.798L699.038 116.175M711.698 130.798L711.698 179.429M711.698 179.429L699.038 165.931M699.038 66.4191L699.038 116.175M685.779 100.858L699.038 116.175M685.779 100.858L671.877 84.7991M685.779 100.858L685.779 151.793M699.038 116.175L699.038 165.931M699.038 165.931L685.779 151.793M711.698 33.5372L711.698 0.410684M671.877 84.7991L657.283 67.9411M671.877 84.7991L671.877 136.968M685.779 151.793L671.877 136.968M671.877 136.968L657.283 121.407M657.283 14.4749L657.283 67.9411M657.283 14.4749L657.283 0.410682M657.283 14.4749L645.978 0.410681M657.283 67.9411L641.946 50.2237M657.283 67.9411L657.283 121.407M657.283 121.407L641.946 105.053M625.806 31.5799L641.946 50.2237M625.806 31.5799L608.799 11.9345M625.806 31.5799L625.806 87.8431M625.806 31.5799L625.806 0.41068M641.946 50.2237L641.946 105.053M641.946 50.2237L641.946 0.410681M641.946 105.053L625.806 87.8431M645.853 0.25578L645.978 0.410681M608.799 11.9345L608.799 69.7086M608.799 11.9345L608.799 0.410679M608.799 11.9345L598.823 0.410679M625.806 87.8431L608.799 69.7086M608.799 69.7086L590.852 50.5732M590.852 50.5732L571.889 30.3518M590.852 50.5732L590.852 0.410679M551.815 8.9485L571.889 30.3518M551.815 8.9485L551.815 0.410677M551.815 8.9485L543.809 0.410677M571.889 30.3518L571.889 0.410678M828.493 74.451L820.698 61.9842M828.493 74.451L828.493 112.704M828.493 74.451L828.493 36.1976M836.015 124.066L843.279 135.039M836.015 124.066L828.493 112.704M836.015 124.066L836.015 161.651M843.279 135.039L843.279 171.977M843.279 135.039L850.297 145.64M850.297 109.325L850.297 145.64M850.297 109.325L857.083 120.178M850.297 109.325L850.297 73.01M828.493 112.704L820.698 100.929M828.493 112.704L828.493 150.956M836.015 161.651L843.279 171.977M836.015 161.651L828.493 150.956M843.279 171.977L850.297 181.955M850.297 145.64L850.297 181.955M850.297 145.64L857.083 155.891M828.493 150.956L820.698 139.875M850.297 218.271L857.083 227.315M850.297 218.271L850.297 181.955M850.297 181.955L857.083 191.603M820.698 61.9842L820.698 100.929M820.698 61.9842L820.698 23.0389M812.617 88.7209L820.698 100.929M812.617 88.7209L804.231 76.054M812.617 88.7209L812.617 128.384M820.698 100.929L820.698 139.875M820.698 23.0389L828.493 36.1976M820.698 23.0389L820.698 0.410689M820.698 139.875L812.617 128.384M828.493 36.1976L828.493 0.410689M804.231 76.054L795.525 62.9017M804.231 76.054L804.231 116.463M812.617 128.384L804.231 116.463M804.231 116.463L795.525 104.084M795.525 21.7195L786.478 7.25015M795.525 21.7195L795.525 62.9017M795.525 21.7195L795.525 0.410688M795.525 62.9017L786.478 49.2363M795.525 62.9017L795.525 104.084M795.525 104.084L786.478 91.2224M777.071 35.0267L786.478 49.2363M777.071 35.0267L767.282 20.2396M777.071 35.0267L777.071 77.8485M777.071 35.0267L777.071 0.410687M786.478 49.2363L786.478 7.25015M786.478 49.2363L786.478 91.2224M786.478 7.25015L782.202 0.410687M786.478 7.25015L786.478 0.410687M786.478 91.2224L777.071 77.8485M767.282 20.2396L757.087 4.83926M767.282 20.2396L767.282 63.9312M767.282 20.2396L767.282 0.410686M777.071 77.8485L767.282 63.9312M767.282 63.9312L757.087 49.4372M757.087 4.83926L757.087 49.4372M757.087 4.83926L754.156 0.410686M757.087 4.83926L757.087 0.410686M757.087 49.4372L746.461 34.3292M735.374 18.5675L746.461 34.3292M735.374 18.5675L723.799 2.10903M735.374 18.5675L735.374 0.410685M746.461 34.3292L746.461 0.410685M746.461 0.172374L746.461 0.410685M723.799 2.10903L723.799 0.410684M723.799 2.10903L722.604 0.410684M722.315 -6.45552e-06L722.604 0.410684M836.015 11.3133L843.279 24.2217M836.015 11.3133L836.015 0.410689M836.015 11.3133L829.881 0.410689M843.279 24.2217L850.297 36.6948M843.279 24.2217L843.279 0.41069M850.297 73.01L857.083 84.4655M850.297 73.01L850.297 36.6948M850.297 36.6948L857.083 48.7533M850.297 36.6948L850.297 0.41069M857.083 1262.97L857.083 1298.68M857.083 1262.97L857.083 1227.26M863.646 1289.94L862.025 1292.1L857.083 1298.68M863.646 1289.94L863.646 1325.07M857.083 1298.68L857.083 1334.4M863.646 1325.07L862.025 1327.37L861.211 1328.53L857.083 1334.4M857.083 1334.4L857.083 1370.11M857.083 1370.11L857.083 1405.82M857.083 1227.26L857.083 1191.55M857.083 1405.82L857.083 1441.53M857.083 1441.53L863.646 1430.45M857.083 1441.53L857.083 1477.25M863.646 1430.45L863.646 1465.58M857.083 1120.12L857.083 1155.84M857.083 1120.12L857.083 1084.41M863.646 1149.42L862.025 1151L861.211 1151.8L857.083 1155.84M863.646 1149.42L863.646 1184.55M857.083 1155.84L857.083 1191.55M863.646 1184.55L857.083 1191.55M857.083 1084.41L857.083 1048.7M857.083 977.274L857.083 1012.99M857.083 977.274L857.083 941.562M863.646 1008.9L862.838 1009.41L862.026 1009.91L861.211 1010.42L857.083 1012.99M863.646 1008.9L863.646 1044.03M857.083 1012.99L857.083 1048.7M863.646 1044.03L857.083 1048.7M857.083 941.562L857.083 905.849M857.083 834.424L857.083 870.137M857.083 834.424L857.083 798.712M863.646 868.387L857.083 870.137M863.646 868.387L863.646 903.517M857.083 870.137L857.083 905.849M863.646 903.517L862.838 903.804L862.026 904.093L861.211 904.383L857.083 905.849M857.083 798.712L857.083 763M857.083 691.576L857.083 727.288M857.083 691.576L857.083 655.863M863.646 727.871L857.083 727.288M863.646 727.871L863.646 763M857.083 727.288L857.083 763M863.646 763L857.083 763M857.083 655.863L857.083 620.15M857.083 548.726L857.083 584.438M857.083 548.726L857.083 513.014M863.646 587.354L862.026 586.635L858.745 585.176L857.083 584.438M863.646 587.354L863.646 622.483M857.083 584.438L857.083 620.15M863.646 622.483L862.838 622.196L862.026 621.908L861.211 621.618L857.083 620.15M857.083 513.014L857.083 477.302M857.083 405.877L857.083 441.589M857.083 405.877L857.083 370.164M863.646 446.838L862.026 445.542L861.211 444.89L857.083 441.589M863.646 446.838L863.646 481.968M857.083 441.589L857.083 477.302M863.646 481.968L862.838 481.392L857.083 477.302M857.083 370.164L857.083 334.452M857.083 263.027L857.083 298.74M857.083 263.027L857.083 227.315M863.646 306.322L862.026 304.449L861.211 303.507L857.083 298.74M863.646 306.322L863.646 341.451M857.083 298.74L857.083 334.452M863.646 341.451L862.838 340.588L857.083 334.452M857.083 227.315L857.083 191.603M857.083 120.178L857.083 155.891M857.083 120.178L857.083 84.4655M863.646 165.805L857.083 155.891M863.646 165.805L863.646 200.934M857.083 155.891L857.083 191.603M863.646 200.934L862.026 198.631L861.211 197.471L857.083 191.603M857.083 84.4655L857.083 48.7533M863.646 25.2894L857.083 13.0411M863.646 25.2894L863.646 60.4185M863.646 25.2894L863.646 0.410691M857.083 13.0411L857.083 48.7533M857.083 13.0411L850.314 0.41069M857.083 13.0411L857.083 0.41069M863.646 60.4185L862.026 57.5382L857.083 48.7533M863.646 1465.58L862.025 1468.46L857.083 1477.25M857.083 1477.25L857.083 1512.96M857.083 1512.96L850.314 1525.59M857.083 1512.96L857.083 1525.59M543.809 1525.59L551.815 1525.59M543.809 1525.59L530.536 1525.59M551.815 1525.59L571.889 1525.59M530.536 1525.59L526.569 1525.59L507.933 1525.59M507.933 1525.59L483.885 1525.59M699.038 1525.59L711.698 1525.59M699.038 1525.59L686.845 1525.59M863.646 1525.59L857.083 1525.59M857.083 1525.59L850.314 1525.59M850.314 1525.59L850.297 1525.62L850.297 1525.59M850.314 1525.59L850.297 1525.59M850.297 1525.59L843.279 1525.59M843.279 1525.59L836.015 1525.59M836.015 1525.59L829.881 1525.59M829.881 1525.59L828.493 1525.59M828.493 1525.59L820.698 1525.59M820.698 1525.59L812.616 1525.59M812.616 1525.59L807.297 1525.59M807.297 1525.59L804.231 1525.59M804.231 1525.59L795.525 1525.59M795.525 1525.59L786.478 1525.59M786.478 1525.59L782.202 1525.59M782.202 1525.59L777.071 1525.59M777.071 1525.59L767.282 1525.59M767.282 1525.59L757.087 1525.59M757.087 1525.59L754.156 1525.59M754.156 1525.59L746.461 1525.59M746.461 1525.59L735.374 1525.59M735.374 1525.59L723.798 1525.59M723.798 1525.59L722.604 1525.59M722.604 1525.59L711.698 1525.59M685.779 1525.59L671.877 1525.59M685.779 1525.59L686.845 1525.59M671.877 1525.59L657.283 1525.59M657.283 1525.59L645.978 1525.59M645.978 1525.59L641.946 1525.59M641.946 1525.59L625.806 1525.59M625.806 1525.59L608.799 1525.59M608.799 1525.59L598.823 1525.59M598.823 1525.59L590.852 1525.59M590.852 1525.59L571.889 1525.59M483.885 1525.59L478.792 1525.59M478.792 1525.59L458.246 1525.59M458.246 1525.59L430.852 1525.59M430.852 1525.59L401.518 1525.59M401.518 1525.59L400.773 1525.59M400.773 1525.59L370.028 1525.59M370.028 1525.59L336.139 1525.59M336.139 1525.59L305.416 1525.59M305.416 1525.59L299.562 1525.59M299.562 1525.59L259.967 1525.59M259.967 1525.59L216.963 1525.59M216.963 1525.59L186.219 1525.59M186.219 1525.59L170.09 1525.59M170.09 1525.59L118.802 1525.59M118.802 1525.59L62.4421 1525.59M62.4421 1525.59L32.9656 1525.59M32.9656 1525.59L0.222082 1525.59M0.222082 1525.59L-9.10721e-05 1525.59L-2.44044e-05 0.410653L0.222149 0.410653M685.779 0.410683L671.877 0.410682M685.779 0.410683L686.845 0.410683M686.845 0.410683L699.038 0.410683M699.038 0.410683L711.698 0.410684M711.698 0.410684L722.604 0.410684M722.604 0.410684L723.799 0.410684M723.799 0.410684L735.374 0.410685M735.374 0.410685L746.461 0.410685M746.461 0.410685L754.156 0.410686M754.156 0.410686L757.087 0.410686M757.087 0.410686L767.282 0.410686M767.282 0.410686L777.071 0.410687M777.071 0.410687L782.202 0.410687M782.202 0.410687L786.478 0.410687M786.478 0.410687L795.525 0.410688M795.525 0.410688L804.231 0.410688M804.231 0.410688L807.297 0.410688M807.297 0.410688L812.617 0.410688M812.617 0.410688L820.698 0.410689M820.698 0.410689L828.493 0.410689M828.493 0.410689L829.881 0.410689M829.881 0.410689L836.015 0.410689M836.015 0.410689L843.279 0.41069M843.279 0.41069L850.297 0.41069M850.297 0.41069L850.297 0.379709L850.314 0.41069M850.297 0.41069L850.314 0.41069M850.314 0.41069L857.083 0.41069M857.083 0.41069L863.646 0.410691M0.222149 0.410653L32.9657 0.410654M32.9657 0.410654L62.4421 0.410656M62.4421 0.410656L118.801 0.410658M118.801 0.410658L170.09 0.41066M170.09 0.41066L186.219 0.410661M186.219 0.410661L216.963 0.410662M216.963 0.410662L259.967 0.410664M259.967 0.410664L299.562 0.410666M299.562 0.410666L305.416 0.410666M305.416 0.410666L336.139 0.410668M336.139 0.410668L370.029 0.410669M370.029 0.410669L400.773 0.41067M400.773 0.41067L401.518 0.41067M401.518 0.41067L430.852 0.410672M430.852 0.410672L458.246 0.410673M458.246 0.410673L478.792 0.410674M478.792 0.410674L483.885 0.410674M483.885 0.410674L507.933 0.410675M507.933 0.410675L530.536 0.410676M530.536 0.410676L543.809 0.410677M543.809 0.410677L551.815 0.410677M551.815 0.410677L571.889 0.410678M571.889 0.410678L590.852 0.410679M590.852 0.410679L598.823 0.410679M598.823 0.410679L608.799 0.410679M608.799 0.410679L625.806 0.41068M625.806 0.41068L641.946 0.410681M641.946 0.410681L645.978 0.410681M645.978 0.410681L657.283 0.410682M657.283 0.410682L671.877 0.410682" stroke="url(#paint0_radial_26_2222)" stroke-opacity="0.6" stroke-width="1.8895" stroke-miterlimit="10" stroke-linecap="round" stroke-linejoin="round"/>
<defs>
<radialGradient id="paint0_radial_26_2222" cx="0" cy="0" r="1" gradientUnits="userSpaceOnUse" gradientTransform="translate(32.0654 763) scale(1361.87 2388.75)">
<stop stop-color="#525252"/>
<stop offset="0.489074" stop-color="#CED2DF" stop-opacity="0"/>
</radialGradient>
</defs>
</svg>
