<svg width="134" height="48" viewBox="0 0 134 48" fill="none" xmlns="http://www.w3.org/2000/svg">
<path d="M33.0199 17.0742V9.64234C30.7307 11.2512 29.3378 12.2611 26.9493 13.9881C23.4845 16.8835 20.3794 17.5415 16.3914 17.2138C15.7124 17.1574 15.0281 17.0554 14.3222 16.768C19.6065 12.8171 24.8881 8.86612 30.634 4.57139H22.0165V2.21011e-05H38.586V17.0742H33.0199Z" fill="white"/>
<path d="M0.538574 28.7566V0H12.2879C12.2879 0.547103 12.2879 1.07534 12.2879 1.60358C12.2879 6.53828 12.3041 11.4757 12.2717 16.4104C12.269 16.82 12.0509 17.3294 11.7628 17.6205C8.18923 21.2292 4.58607 24.8056 0.988296 28.3901C0.896736 28.4817 0.789018 28.5545 0.541267 28.7539L0.538574 28.7566Z" fill="white"/>
<path d="M4.94114 38.9388C7.68794 36.1871 8.70857 34.3787 11.4661 31.6163C12.9149 32.7347 15.9607 33.7885 17.8646 33.9394C22.3564 34.2979 28.1058 29.7809 28.227 25.2774C28.2593 24.0431 28.2755 22.5931 28.2755 21.2914H38.4898C39.3758 30.1717 35.6865 38.6343 26.9425 42.7389C19.1949 46.3773 10.1897 44.2886 4.94383 38.9415L4.94114 38.9388Z" fill="white"/>
<path d="M55.4081 48C53.2342 48 51.3701 47.7005 49.8159 47.1014C48.2721 46.5128 47.0434 45.7088 46.1298 44.6893C45.2161 43.6698 44.6227 42.5242 44.3497 41.2525L50.5562 40.4169C50.7453 40.9004 51.0446 41.3523 51.4541 41.7728C51.8637 42.1932 52.4046 42.5295 53.0767 42.7817C53.7593 43.0445 54.5889 43.1759 55.5656 43.1759C57.0253 43.1759 58.2278 42.8185 59.1729 42.1038C60.1286 41.3996 60.6064 40.2173 60.6064 38.5567V34.1266H60.3229C60.0288 34.7993 59.5878 35.4352 58.9997 36.0342C58.4116 36.6333 57.6554 37.122 56.7313 37.5004C55.8071 37.8787 54.7044 38.0679 53.4232 38.0679C51.6064 38.0679 49.9524 37.6475 48.4611 36.8067C46.9804 35.9554 45.7989 34.6574 44.9168 32.9127C44.0452 31.1575 43.6093 28.9399 43.6093 26.2598C43.6093 23.5167 44.0557 21.2255 44.9483 19.3862C45.841 17.5469 47.0277 16.1701 48.5084 15.2557C49.9997 14.3413 51.6327 13.8841 53.4075 13.8841C54.7622 13.8841 55.8964 14.1154 56.8101 14.5778C57.7237 15.0297 58.4588 15.5973 59.0154 16.2805C59.5825 16.9531 60.0183 17.6152 60.3229 18.2669H60.5749V14.1994H67.2383V38.6512C67.2383 40.7112 66.7342 42.4349 65.726 43.8222C64.7179 45.2096 63.3211 46.2501 61.5358 46.9437C59.761 47.6479 57.7184 48 55.4081 48ZM55.5498 33.0231C56.6315 33.0231 57.5452 32.7551 58.2908 32.2191C59.0469 31.6725 59.6245 30.8948 60.0236 29.8858C60.4332 28.8663 60.6379 27.6471 60.6379 26.2283C60.6379 24.8094 60.4384 23.5797 60.0393 22.5392C59.6403 21.4882 59.0627 20.6737 58.3065 20.0956C57.5504 19.5176 56.6315 19.2285 55.5498 19.2285C54.4472 19.2285 53.5177 19.5281 52.7616 20.1272C52.0055 20.7157 51.4331 21.5355 51.0446 22.5865C50.656 23.6375 50.4617 24.8515 50.4617 26.2283C50.4617 27.6261 50.656 28.8348 51.0446 29.8543C51.4436 30.8632 52.016 31.6462 52.7616 32.2033C53.5177 32.7498 54.4472 33.0231 55.5498 33.0231Z" fill="white"/>
<path d="M70.915 38.4148V14.1994H77.4208V18.4245H77.6729C78.1139 16.9216 78.8543 15.7865 79.894 15.0192C80.9337 14.2415 82.1309 13.8526 83.4856 13.8526C83.8216 13.8526 84.1839 13.8736 84.5725 13.9157C84.9611 13.9577 85.3024 14.0155 85.5964 14.0891V20.0483C85.2814 19.9537 84.8456 19.8697 84.289 19.7961C83.7324 19.7225 83.223 19.6857 82.761 19.6857C81.7738 19.6857 80.8916 19.9012 80.1145 20.3321C79.3479 20.7525 78.7388 21.3411 78.2872 22.0978C77.8461 22.8545 77.6256 23.7269 77.6256 24.7148V38.4148H70.915Z" fill="white"/>
<path d="M93.609 38.872C92.0653 38.872 90.6895 38.604 89.4818 38.0679C88.2741 37.5214 87.3185 36.7174 86.6148 35.6559C85.9217 34.5838 85.5752 33.249 85.5752 31.6515C85.5752 30.3062 85.822 29.1764 86.3155 28.262C86.8091 27.3476 87.4812 26.6119 88.3319 26.0549C89.1825 25.4978 90.1487 25.0774 91.2304 24.7937C92.3226 24.5099 93.4672 24.3102 94.6644 24.1946C96.0717 24.0474 97.2059 23.9108 98.067 23.7847C98.9282 23.648 99.553 23.4484 99.9416 23.1856C100.33 22.9228 100.524 22.534 100.524 22.019V21.9244C100.524 20.9259 100.209 20.1534 99.5793 19.6069C98.9597 19.0604 98.0775 18.7871 96.9328 18.7871C95.7251 18.7871 94.7642 19.0551 94.0501 19.5911C93.336 20.1166 92.8634 20.7788 92.6323 21.5776L86.4258 21.0731C86.7409 19.6017 87.3605 18.3299 88.2846 17.2579C89.2088 16.1754 90.4007 15.345 91.8605 14.767C93.3307 14.1784 95.032 13.8841 96.9643 13.8841C98.3086 13.8841 99.595 14.0418 100.824 14.3571C102.063 14.6724 103.16 15.1611 104.116 15.8233C105.082 16.4854 105.844 17.3367 106.4 18.3772C106.957 19.4072 107.235 20.6422 107.235 22.082V38.4148H100.871V35.0568H100.682C100.293 35.8135 99.7736 36.4809 99.1225 37.059C98.4713 37.6265 97.6889 38.0732 96.7753 38.399C95.8616 38.7143 94.8062 38.872 93.609 38.872ZM95.5308 34.237C96.518 34.237 97.3897 34.0426 98.1458 33.6537C98.9019 33.2543 99.4953 32.7183 99.9258 32.0456C100.356 31.373 100.572 30.611 100.572 29.7597V27.19C100.362 27.3266 100.073 27.4527 99.7053 27.5683C99.3482 27.6734 98.9439 27.7733 98.4923 27.8679C98.0408 27.9519 97.5892 28.0308 97.1376 28.1043C96.686 28.1674 96.2765 28.2252 95.9089 28.2778C95.1213 28.3934 94.4334 28.5773 93.8453 28.8295C93.2572 29.0818 92.8004 29.4234 92.4748 29.8543C92.1493 30.2747 91.9865 30.8002 91.9865 31.4308C91.9865 32.3452 92.3173 33.0441 92.9789 33.5276C93.651 34.0005 94.5017 34.237 95.5308 34.237Z" fill="white"/>
<path d="M119.694 38.8089C117.856 38.8089 116.191 38.3359 114.7 37.39C113.219 36.4336 112.043 35.0305 111.172 33.1807C110.31 31.3204 109.88 29.0397 109.88 26.3386C109.88 23.564 110.326 21.257 111.219 19.4177C112.112 17.5679 113.298 16.1859 114.779 15.2715C116.27 14.3466 117.903 13.8841 119.678 13.8841C121.033 13.8841 122.162 14.1154 123.065 14.5778C123.979 15.0297 124.714 15.5973 125.27 16.2805C125.837 16.9531 126.268 17.6152 126.562 18.2669H126.767V6.12767H133.462V38.4148H126.846V34.5365H126.562C126.247 35.2092 125.801 35.8766 125.223 36.5387C124.656 37.1903 123.916 37.7316 123.002 38.1625C122.099 38.5934 120.996 38.8089 119.694 38.8089ZM121.82 33.4645C122.902 33.4645 123.816 33.1702 124.561 32.5816C125.318 31.9826 125.895 31.147 126.294 30.075C126.704 29.003 126.909 27.747 126.909 26.3071C126.909 24.8672 126.709 23.6165 126.31 22.555C125.911 21.4935 125.333 20.6737 124.577 20.0956C123.821 19.5176 122.902 19.2285 121.82 19.2285C120.718 19.2285 119.788 19.5281 119.032 20.1272C118.276 20.7262 117.704 21.5565 117.315 22.6181C116.927 23.6796 116.732 24.9093 116.732 26.3071C116.732 27.7155 116.927 28.9609 117.315 30.0435C117.714 31.1155 118.287 31.9563 119.032 32.5659C119.788 33.165 120.718 33.4645 121.82 33.4645Z" fill="white"/>
</svg>
