<svg width="84" height="31" viewBox="0 0 84 31" fill="none" xmlns="http://www.w3.org/2000/svg">
<path d="M20.6699 10.7179V6.05272C19.2328 7.06263 18.3585 7.69656 16.8592 8.78065C14.6843 10.5982 12.7352 11.0112 10.2318 10.8055C9.80555 10.7701 9.37596 10.7061 8.9329 10.5257C12.25 8.04556 15.5654 5.56547 19.1722 2.86957H13.7628V1.38734e-05H24.1638V10.7179H20.6699Z" fill="#245D52"/>
<path d="M0.280579 18.0512V0H7.6559C7.6559 0.343429 7.6559 0.675016 7.6559 1.0066C7.6559 4.10423 7.66604 7.20355 7.64575 10.3012C7.64406 10.5583 7.50714 10.8781 7.32626 11.0608C5.08307 13.3261 2.82129 15.571 0.562879 17.8211C0.505405 17.8786 0.437788 17.9243 0.282269 18.0495L0.280579 18.0512Z" fill="#0D2A22"/>
<path d="M3.04417 24.4428C4.7684 22.7155 5.40907 21.5803 7.14007 19.8463C8.04951 20.5484 9.96138 21.2098 11.1565 21.3046C13.9761 21.5296 17.5852 18.6942 17.6613 15.8672C17.6815 15.0924 17.6917 14.1822 17.6917 13.3651H24.1035C24.6596 18.9395 22.3437 24.2516 16.8549 26.8282C11.9916 29.1121 6.3388 27.801 3.04586 24.4445L3.04417 24.4428Z" fill="#0D2A22"/>
<path d="M34.7234 30.1307C33.3588 30.1307 32.1887 29.9427 31.2131 29.5666C30.244 29.1972 29.4727 28.6925 28.8992 28.0525C28.3257 27.4126 27.9532 26.6934 27.7818 25.8951L31.6778 25.3706C31.7965 25.6741 31.9844 25.9578 32.2415 26.2217C32.4986 26.4856 32.8381 26.6967 33.26 26.8551C33.6884 27.02 34.2092 27.1025 34.8223 27.1025C35.7386 27.1025 36.4934 26.8782 37.0867 26.4295C37.6866 25.9875 37.9866 25.2453 37.9866 24.2029V21.4221H37.8086C37.624 21.8443 37.3471 22.2435 36.978 22.6195C36.6088 22.9956 36.1342 23.3024 35.554 23.5399C34.9739 23.7774 34.2817 23.8961 33.4775 23.8961C32.337 23.8961 31.2988 23.6322 30.3627 23.1044C29.4332 22.57 28.6916 21.7552 28.1378 20.6601C27.5907 19.5583 27.3171 18.1662 27.3171 16.4839C27.3171 14.762 27.5973 13.3237 28.1576 12.1692C28.7179 11.0146 29.4628 10.1503 30.3923 9.57636C31.3284 9.00239 32.3535 8.7154 33.4676 8.7154C34.318 8.7154 35.03 8.86054 35.6035 9.15083C36.177 9.43452 36.6385 9.79078 36.9878 10.2196C37.3438 10.6419 37.6174 11.0575 37.8086 11.4665H37.9668V8.91332H42.1495V24.2623C42.1495 25.5554 41.8331 26.6374 41.2003 27.5082C40.5674 28.3791 39.6906 29.0322 38.57 29.4677C37.4559 29.9097 36.1737 30.1307 34.7234 30.1307ZM34.8124 20.7293C35.4914 20.7293 36.0649 20.5611 36.533 20.2246C37.0076 19.8816 37.3702 19.3934 37.6207 18.76C37.8778 18.1201 38.0063 17.3548 38.0063 16.4641C38.0063 15.5734 37.8811 14.8015 37.6306 14.1484C37.3801 13.4886 37.0175 12.9773 36.5429 12.6145C36.0682 12.2516 35.4914 12.0702 34.8124 12.0702C34.1202 12.0702 33.5368 12.2582 33.0622 12.6343C32.5876 13.0037 32.2283 13.5183 31.9844 14.1781C31.7405 14.8378 31.6185 15.5998 31.6185 16.4641C31.6185 17.3416 31.7405 18.1003 31.9844 18.7402C32.2349 19.3736 32.5941 19.8651 33.0622 20.2147C33.5368 20.5578 34.1202 20.7293 34.8124 20.7293Z" fill="#0D2A22"/>
<path d="M44.4575 24.1138V8.91332H48.5413V11.5655H48.6995C48.9764 10.6221 49.4412 9.90954 50.0938 9.42792C50.7464 8.93971 51.4979 8.69561 52.3483 8.69561C52.5593 8.69561 52.7867 8.7088 53.0306 8.73519C53.2745 8.76158 53.4888 8.79787 53.6734 8.84405V12.5848C53.4756 12.5254 53.202 12.4726 52.8526 12.4265C52.5033 12.3803 52.1835 12.3572 51.8935 12.3572C51.2738 12.3572 50.7201 12.4924 50.2322 12.7629C49.751 13.0268 49.3687 13.3963 49.0852 13.8713C48.8083 14.3463 48.6699 14.8939 48.6699 15.5141V24.1138H44.4575Z" fill="#0D2A22"/>
<path d="M58.703 24.4008C57.734 24.4008 56.8704 24.2326 56.1123 23.8961C55.3542 23.5531 54.7543 23.0483 54.3126 22.382C53.8776 21.7091 53.66 20.8712 53.66 19.8684C53.66 19.0239 53.8149 18.3147 54.1248 17.7407C54.4346 17.1667 54.8565 16.7049 55.3905 16.3552C55.9244 16.0056 56.5309 15.7417 57.2099 15.5635C57.8955 15.3854 58.6141 15.2601 59.3656 15.1875C60.2489 15.0951 60.9609 15.0094 61.5014 14.9302C62.042 14.8444 62.4342 14.7191 62.6781 14.5541C62.9221 14.3892 63.044 14.1451 63.044 13.8218V13.7624C63.044 13.1357 62.8462 12.6508 62.4507 12.3077C62.0618 11.9646 61.508 11.7931 60.7895 11.7931C60.0314 11.7931 59.4282 11.9613 58.9799 12.2978C58.5316 12.6277 58.235 13.0433 58.09 13.5447L54.194 13.2281C54.3918 12.3044 54.7807 11.5061 55.3608 10.8332C55.9409 10.1536 56.6891 9.63244 57.6054 9.26958C58.5284 8.90013 59.5963 8.7154 60.8093 8.7154C61.6531 8.7154 62.4606 8.81436 63.2319 9.01228C64.0098 9.21021 64.6986 9.51699 65.2985 9.93263C65.905 10.3483 66.383 10.8827 66.7323 11.5358C67.0817 12.1824 67.2564 12.9576 67.2564 13.8614V24.1138H63.2616V22.006H63.1429C62.899 22.481 62.5727 22.8999 62.164 23.2628C61.7552 23.619 61.2641 23.8994 60.6906 24.1039C60.1171 24.3019 59.4546 24.4008 58.703 24.4008ZM59.9094 21.4914C60.5291 21.4914 61.0762 21.3693 61.5509 21.1252C62.0255 20.8745 62.398 20.538 62.6683 20.1158C62.9385 19.6935 63.0737 19.2152 63.0737 18.6808V17.0678C62.9418 17.1535 62.7605 17.2327 62.5298 17.3053C62.3057 17.3712 62.0519 17.4339 61.7684 17.4933C61.485 17.5461 61.2015 17.5956 60.918 17.6417C60.6346 17.6813 60.3775 17.7176 60.1467 17.7506C59.6523 17.8232 59.2205 17.9386 58.8514 18.097C58.4822 18.2553 58.1954 18.4697 57.9911 18.7402C57.7867 19.0041 57.6845 19.334 57.6845 19.7298C57.6845 20.3038 57.8922 20.7425 58.3075 21.046C58.7294 21.3429 59.2634 21.4914 59.9094 21.4914Z" fill="#0D2A22"/>
<path d="M75.0771 24.3612C73.9234 24.3612 72.8786 24.0644 71.9425 23.4706C71.013 22.8702 70.2747 21.9895 69.7275 20.8283C69.187 19.6606 68.9167 18.2289 68.9167 16.5334C68.9167 14.7916 69.1968 13.3435 69.7572 12.189C70.3175 11.0278 71.0624 10.1602 71.9919 9.58626C72.928 9.00569 73.9531 8.7154 75.0672 8.7154C75.9176 8.7154 76.6263 8.86054 77.1932 9.15083C77.7667 9.43452 78.2281 9.79078 78.5775 10.2196C78.9335 10.6419 79.2038 11.0575 79.3884 11.4665H79.5169V3.84648H83.7195V24.1138H79.5664V21.6794H79.3884C79.1906 22.1016 78.9104 22.5206 78.5479 22.9362C78.1919 23.3452 77.7271 23.685 77.1536 23.9555C76.5867 24.226 75.8945 24.3612 75.0771 24.3612ZM76.412 21.0064C77.091 21.0064 77.6645 20.8217 78.1326 20.4523C78.6072 20.0762 78.9698 19.5517 79.2203 18.8788C79.4774 18.2058 79.6059 17.4174 79.6059 16.5136C79.6059 15.6097 79.4807 14.8246 79.2302 14.1583C78.9797 13.4919 78.6171 12.9773 78.1425 12.6145C77.6678 12.2516 77.091 12.0702 76.412 12.0702C75.7198 12.0702 75.1364 12.2582 74.6618 12.6343C74.1871 13.0103 73.8279 13.5315 73.5839 14.1979C73.34 14.8642 73.2181 15.6361 73.2181 16.5136C73.2181 17.3976 73.34 18.1794 73.5839 18.859C73.8344 19.5319 74.1937 20.0597 74.6618 20.4424C75.1364 20.8184 75.7198 21.0064 76.412 21.0064Z" fill="#0D2A22"/>
</svg>
