<svg width="14" height="15" viewBox="0 0 14 15" fill="none" xmlns="http://www.w3.org/2000/svg">
<g clip-path="url(#clip0_2256_11700)">
<path d="M6.99996 12.9635C10.2216 12.9635 12.8333 10.3519 12.8333 7.13021C12.8333 3.90855 10.2216 1.29688 6.99996 1.29688C3.7783 1.29688 1.16663 3.90855 1.16663 7.13021C1.16663 10.3519 3.7783 12.9635 6.99996 12.9635Z" stroke="#0A9150" stroke-width="1.05" stroke-linecap="round" stroke-linejoin="round"/>
<path d="M5.54163 5.35999C5.54163 5.08157 5.54163 4.94236 5.59981 4.86465C5.65051 4.79692 5.72813 4.75455 5.81251 4.74852C5.90935 4.7416 6.02645 4.81688 6.26065 4.96744L9.01433 6.73766C9.21755 6.8683 9.31916 6.93363 9.35426 7.01669C9.38493 7.08926 9.38493 7.17116 9.35426 7.24373C9.31916 7.32679 9.21755 7.39211 9.01433 7.52276L6.26065 9.29298C6.02645 9.44354 5.90935 9.51882 5.81251 9.5119C5.72813 9.50587 5.65051 9.4635 5.59981 9.39577C5.54163 9.31806 5.54163 9.17885 5.54163 8.90043V5.35999Z" stroke="#0A9150" stroke-width="1.05" stroke-linecap="round" stroke-linejoin="round"/>
</g>
<defs>
<clipPath id="clip0_2256_11700">
<rect width="14" height="14" fill="white" transform="translate(0 0.130859)"/>
</clipPath>
</defs>
</svg>
