<svg width="12" height="13" viewBox="0 0 12 13" fill="none" xmlns="http://www.w3.org/2000/svg">
<g clip-path="url(#clip0_2256_11806)">
<path d="M1.28845 6.13151C1.28845 6.75024 1.41032 7.36292 1.6471 7.93456C1.88388 8.50619 2.23093 9.02559 2.66844 9.46311C3.10596 9.90062 3.62536 10.2477 4.19699 10.4845C4.76863 10.7212 5.38131 10.8431 6.00004 10.8431C6.61877 10.8431 7.23145 10.7212 7.80309 10.4845C8.37472 10.2477 8.89412 9.90062 9.33164 9.46311C9.76915 9.02559 10.1162 8.50619 10.353 7.93456C10.5898 7.36292 10.7116 6.75024 10.7116 6.13151C10.7116 4.88192 10.2152 3.68351 9.33164 2.79991C8.44804 1.91632 7.24963 1.41992 6.00004 1.41992C4.75045 1.41992 3.55204 1.91632 2.66844 2.79991C1.78485 3.68351 1.28845 4.88192 1.28845 6.13151Z" stroke="#6C737F" stroke-width="0.9" stroke-linecap="round" stroke-linejoin="round"/>
<path d="M6 3.51562V6.13317L7.57053 7.7037" stroke="#6C737F" stroke-width="0.9" stroke-linecap="round" stroke-linejoin="round"/>
</g>
<defs>
<clipPath id="clip0_2256_11806">
<rect width="12" height="12" fill="white" transform="translate(0 0.130859)"/>
</clipPath>
</defs>
</svg>
